<?xml version="1.0" standalone="no"?>
<!DOCTYPE svg PUBLIC "-//W3C//DTD SVG 1.1//EN" "http://www.w3.org/Graphics/SVG/1.1/DTD/svg11.dtd" >
<svg xmlns="http://www.w3.org/2000/svg" xmlns:xlink="http://www.w3.org/1999/xlink" version="1.1">
<metadata>
Created by FontForge 20170731 at Mon Nov  2 23:07:50 2020
 By Aleksey,,,
Copyright 2015 Google Inc. All Rights Reserved.
</metadata>
<defs>
<font id="NotoSansDisplay-Regular" horiz-adv-x="0" >
  <font-face 
    font-family="Noto Sans Display"
    font-weight="400"
    font-stretch="normal"
    units-per-em="1000"
    panose-1="2 11 5 2 4 5 4 2 2 4"
    ascent="800"
    descent="-200"
    x-height="536"
    cap-height="714"
    bbox="-621 -389 2743 1072"
    underline-thickness="50"
    underline-position="-175"
    unicode-range="U+000D-FFFD"
  />
<missing-glyph horiz-adv-x="563" 
d="M88 0v714h386v-714h-386zM136 51h290v612h-290v-612z" />
    <glyph glyph-name="f_f" unicode="ff" horiz-adv-x="652" 
d="M315 468h-126v-468h-88v468h-87v41l87 30v31q0 69 19.5 112t56.5 63t89 20q31 0 56.5 -5.5t44.5 -12.5l-23 -69q-16 5 -35.5 10t-40.5 5q-40 0 -59.5 -29.5t-19.5 -92.5v-35h126v-68zM641 468h-126v-468h-88v468h-87v41l87 30v31q0 69 19.5 112t56.5 63t89 20
q31 0 56.5 -5.5t44.5 -12.5l-23 -69q-16 5 -35.5 10t-40.5 5q-40 0 -59.5 -29.5t-19.5 -92.5v-35h126v-68z" />
    <glyph glyph-name="fi" unicode="fi" horiz-adv-x="572" 
d="M315 468h-126v-468h-88v468h-87v41l87 30v31q0 69 19.5 112t56.5 63t89 20q31 0 56.5 -5.5t44.5 -12.5l-23 -69q-16 5 -35.5 10t-40.5 5q-40 0 -59.5 -29.5t-19.5 -92.5v-35h126v-68zM493 536v-536h-87v536h87zM450 737q20 0 35 -13.5t15 -42.5q0 -28 -15 -42t-35 -14
q-21 0 -36 14t-15 42q0 29 15 42.5t36 13.5z" />
    <glyph glyph-name="fl" unicode="fl" horiz-adv-x="571" 
d="M315 468h-126v-468h-88v468h-87v41l87 30v31q0 69 19.5 112t56.5 63t89 20q31 0 56.5 -5.5t44.5 -12.5l-23 -69q-16 5 -35.5 10t-40.5 5q-40 0 -59.5 -29.5t-19.5 -92.5v-35h126v-68zM492 0h-87v760h87v-760z" />
    <glyph glyph-name="f_f_i" unicode="ffi" horiz-adv-x="898" 
d="M315 468h-126v-468h-88v468h-87v41l87 30v31q0 69 19.5 112t56.5 63t89 20q31 0 56.5 -5.5t44.5 -12.5l-23 -69q-16 5 -35.5 10t-40.5 5q-40 0 -59.5 -29.5t-19.5 -92.5v-35h126v-68zM641 468h-126v-468h-88v468h-87v41l87 30v31q0 69 19.5 112t56.5 63t89 20
q31 0 56.5 -5.5t44.5 -12.5l-23 -69q-16 5 -35.5 10t-40.5 5q-40 0 -59.5 -29.5t-19.5 -92.5v-35h126v-68zM819 536v-536h-87v536h87zM776 737q20 0 35 -13.5t15 -42.5q0 -28 -15 -42t-35 -14q-21 0 -36 14t-15 42q0 29 15 42.5t36 13.5z" />
    <glyph glyph-name="f_f_l" unicode="ffl" horiz-adv-x="897" 
d="M315 468h-126v-468h-88v468h-87v41l87 30v31q0 69 19.5 112t56.5 63t89 20q31 0 56.5 -5.5t44.5 -12.5l-23 -69q-16 5 -35.5 10t-40.5 5q-40 0 -59.5 -29.5t-19.5 -92.5v-35h126v-68zM641 468h-126v-468h-88v468h-87v41l87 30v31q0 69 19.5 112t56.5 63t89 20
q31 0 56.5 -5.5t44.5 -12.5l-23 -69q-16 5 -35.5 10t-40.5 5q-40 0 -59.5 -29.5t-19.5 -92.5v-35h126v-68zM818 0h-87v760h87v-760z" />
    <glyph glyph-name=".notdef" horiz-adv-x="563" 
d="M88 0v714h386v-714h-386zM136 51h290v612h-290v-612z" />
    <glyph glyph-name=".null" 
 />
    <glyph glyph-name="nonmarkingreturn" horiz-adv-x="333" 
 />
    <glyph glyph-name="NULL" 
 />
    <glyph glyph-name="NULL" 
 />
    <glyph glyph-name="CR" unicode="&#xd;" horiz-adv-x="244" 
 />
    <glyph glyph-name="space" unicode=" " horiz-adv-x="244" 
 />
    <glyph glyph-name="exclam" unicode="!" horiz-adv-x="255" 
d="M162 201h-70l-17 513h105zM67 54q0 37 17.5 52t42.5 15q24 0 42 -15t18 -52q0 -36 -18 -52t-42 -16q-25 0 -42.5 16t-17.5 52z" />
    <glyph glyph-name="quotedbl" unicode="&#x22;" horiz-adv-x="388" 
d="M153 714l-19 -258h-54l-19 258h92zM327 714l-19 -258h-55l-18 258h92z" />
    <glyph glyph-name="numbersign" unicode="#" horiz-adv-x="607" 
d="M451 436l-28 -160h128v-67h-141l-38 -209h-69l38 209h-131l-37 -209h-68l36 209h-118v67h130l30 160h-125v66h137l37 212h70l-37 -212h132l37 212h68l-38 -212h119v-66h-132zM223 276h131l28 160h-131z" />
    <glyph glyph-name="dollar" unicode="$" horiz-adv-x="537" 
d="M238 49q-53 1 -101.5 9.5t-79.5 23.5v85q32 -16 82.5 -28t98.5 -13v202q-47 14 -81.5 30.5t-56.5 37.5t-32.5 48.5t-10.5 63.5q0 74 49 116t132 47v88h60v-87q50 -1 91.5 -11.5t76.5 -25.5l-27 -74q-31 13 -67 22.5t-74 12.5v-201q62 -19 103.5 -40.5t63 -53t21.5 -81.5
q0 -70 -48.5 -113.5t-139.5 -53.5v-111h-60v107zM298 131q53 6 78 27.5t25 55.5q0 25 -9.5 41.5t-31.5 28.5t-62 23v-176zM238 594q-49 -4 -72.5 -25t-23.5 -54q0 -26 9 -44.5t30 -31t57 -22.5v177z" />
    <glyph glyph-name="percent" unicode="%" horiz-adv-x="787" 
d="M184 724q70 0 106 -58.5t36 -164.5t-34 -165.5t-108 -59.5q-45 0 -76 27t-47 77.5t-16 120.5q0 106 33.5 164.5t105.5 58.5zM184 662q-35 0 -51 -40.5t-16 -120.5t16 -121t51 -41t52.5 40.5t17.5 121.5q0 80 -17.5 120.5t-52.5 40.5zM617 714l-372 -714h-75l372 714h75z
M599 438q46 0 78 -26.5t48.5 -76t16.5 -120.5q0 -106 -34.5 -165.5t-108.5 -59.5q-45 0 -76 27t-47 77.5t-16 120.5q0 106 33.5 164.5t105.5 58.5zM599 375q-34 0 -50 -40t-16 -120q0 -81 16 -121.5t50 -40.5q36 0 53 40t17 122q0 80 -17 120t-53 40z" />
    <glyph glyph-name="ampersand" unicode="&#x26;" horiz-adv-x="690" 
d="M286 725q76 0 120.5 -40.5t44.5 -113.5q0 -63 -38.5 -107t-96.5 -80l178 -186q24 31 39.5 71.5t25.5 87.5h88q-14 -64 -37.5 -119t-59.5 -96l138 -142h-117l-79 84q-22 -21 -46.5 -38.5t-52 -29.5t-60 -19t-70.5 -7q-66 0 -114 22.5t-74 66.5t-26 107q0 51 17.5 88
t49.5 66t76 56q-20 24 -38.5 50t-30 56.5t-11.5 66.5q0 74 47 115t127 41zM244 341q-32 -21 -55.5 -42.5t-36 -47.5t-12.5 -62q0 -55 34.5 -88t91.5 -33q58 0 100 21t71 50zM284 653q-38 0 -63 -22t-25 -61q0 -36 17.5 -66.5t50.5 -67.5q54 34 77.5 64.5t23.5 70.5
q0 36 -22 59t-59 23z" />
    <glyph glyph-name="quotesingle" unicode="'" horiz-adv-x="214" 
d="M153 714l-19 -258h-54l-19 258h92z" />
    <glyph glyph-name="parenleft" unicode="(" horiz-adv-x="285" 
d="M38 274q0 82 14.5 160t45.5 149t78 131h81q-43 -62 -72.5 -134t-44.5 -149t-15 -156q0 -77 15 -153t44 -146.5t72 -133.5h-80q-47 59 -78 128.5t-45.5 146.5t-14.5 157z" />
    <glyph glyph-name="parenright" unicode=")" horiz-adv-x="285" 
d="M247 274q0 -80 -14.5 -157t-45 -146.5t-78.5 -128.5h-80q43 63 72 133.5t44 146.5t15 153q0 119 -33.5 232t-98.5 207h81q48 -60 78.5 -131t45 -149t14.5 -160z" />
    <glyph glyph-name="asterisk" unicode="*" horiz-adv-x="518" 
d="M304 760l-19 -192l180 54l13 -92l-172 -15l112 -158l-83 -47l-79 175l-72 -175l-85 47l109 158l-170 15l14 92l177 -54l-19 192h94z" />
    <glyph glyph-name="plus" unicode="+" horiz-adv-x="537" 
d="M303 388h186v-71h-186v-206h-71v206h-186v71h186v207h71v-207z" />
    <glyph glyph-name="comma" unicode="," horiz-adv-x="254" 
d="M183 105q-8 -35 -21.5 -76t-29 -81.5t-30.5 -76.5h-64q9 38 18 81.5t17 86t12 77.5h91z" />
    <glyph glyph-name="hyphen" unicode="-" horiz-adv-x="303" 
d="M37 229v78h229v-78h-229z" />
    <glyph glyph-name="period" unicode="." horiz-adv-x="254" 
d="M67 54q0 37 17 52t42 15t43 -15t18 -52q0 -36 -18 -52t-43 -16t-42 16t-17 52z" />
    <glyph glyph-name="slash" unicode="/" horiz-adv-x="352" 
d="M343 714l-250 -714h-84l250 714h84z" />
    <glyph glyph-name="zero" unicode="0" horiz-adv-x="537" 
d="M492 358q0 -87 -12.5 -155t-39 -115.5t-69.5 -72.5t-103 -25q-76 0 -125.5 44t-73.5 126.5t-24 197.5q0 116 22 198t71 125.5t130 43.5q76 0 125.5 -43.5t74 -125.5t24.5 -198zM132 358q0 -98 13.5 -163t43.5 -97.5t79 -32.5t79 32t43.5 97.5t13.5 163.5t-13.5 162.5
t-43.5 97t-79 32.5t-79 -32.5t-43.5 -97t-13.5 -162.5z" />
    <glyph glyph-name="one" unicode="1" horiz-adv-x="537" 
d="M337 0h-85v499q0 29 0.5 49t1.5 37.5t2 36.5q-14 -16 -27 -27.5t-31 -27.5l-71 -62l-46 59l184 150h72v-714z" />
    <glyph glyph-name="two" unicode="2" horiz-adv-x="537" 
d="M491 0h-446v73l175 189q50 54 84.5 96t52.5 82.5t18 88.5q0 59 -32 89.5t-84 30.5q-48 0 -85 -18t-75 -50l-47 59q27 24 58 43t68.5 30t81.5 11q63 0 108.5 -23t70.5 -65.5t25 -101.5q0 -42 -12.5 -79.5t-35.5 -73.5t-54.5 -73t-70.5 -78l-137 -146l1 -4h336v-80z" />
    <glyph glyph-name="three" unicode="3" horiz-adv-x="537" 
d="M465 547q0 -48 -17.5 -83t-48.5 -57t-74 -31v-4q81 -10 121 -54t40 -115q0 -62 -27.5 -110.5t-85 -75.5t-146.5 -27q-53 0 -98 8.5t-87 30.5v82q42 -22 91 -34.5t94 -12.5q89 0 128 37.5t39 103.5q0 45 -21.5 72.5t-63 40.5t-101.5 13h-63v75h64q56 0 93 17t55.5 47.5
t18.5 70.5q0 52 -32 80.5t-88 28.5q-36 0 -65 -7.5t-53.5 -21t-48.5 -31.5l-43 60q24 20 55.5 37t70.5 27t84 10q105 0 157 -50t52 -127z" />
    <glyph glyph-name="four" unicode="4" horiz-adv-x="537" 
d="M519 162h-97v-162h-84v162h-319v75l314 481h89v-477h97v-79zM338 466q0 26 0.5 47.5t1.5 40.5t1.5 36.5t1.5 33.5h-4q-8 -19 -19 -41t-21 -37l-196 -305h235v225z" />
    <glyph glyph-name="five" unicode="5" horiz-adv-x="537" 
d="M260 438q68 0 118.5 -25t78.5 -71.5t28 -113.5q0 -74 -30 -127.5t-86.5 -82t-136.5 -28.5q-52 0 -97 10t-77 29v83q34 -22 82.5 -34.5t92.5 -12.5q49 0 85.5 16.5t57 51t20.5 86.5q0 70 -40 107.5t-126 37.5q-27 0 -60.5 -5t-53.5 -10l-42 28l25 337h339v-80h-264
l-16 -207q17 3 43 7t59 4z" />
    <glyph glyph-name="six" unicode="6" horiz-adv-x="537" 
d="M50 305q0 62 8 122t28 113.5t55 95t89 65t130 23.5q20 0 43.5 -2t39.5 -7v-75q-17 6 -38.5 9t-42.5 3q-65 0 -107.5 -23t-67.5 -63t-36.5 -92t-14.5 -111h6q14 24 35.5 43t52 30t70.5 11q59 0 102.5 -25.5t67.5 -74t24 -117.5q0 -74 -26 -128t-74 -83t-114 -29
q-48 0 -90 19t-73.5 58t-49 98.5t-17.5 139.5zM279 64q58 0 93.5 40.5t35.5 125.5q0 68 -31.5 108t-95.5 40q-43 0 -75 -19.5t-50 -49.5t-18 -62q0 -33 9 -65t26.5 -59t44 -43t61.5 -16z" />
    <glyph glyph-name="seven" unicode="7" horiz-adv-x="537" 
d="M126 0l274 634h-360v80h453v-68l-271 -646h-96z" />
    <glyph glyph-name="eight" unicode="8" horiz-adv-x="537" 
d="M268 724q59 0 104.5 -19.5t71.5 -57.5t26 -94q0 -43 -17.5 -75t-46 -56.5t-63.5 -43.5q41 -21 75 -47.5t54 -61.5t20 -84q0 -60 -27.5 -103.5t-77 -67.5t-116.5 -24q-73 0 -123.5 23t-76.5 65.5t-26 103.5q0 49 19 85t50.5 62t68.5 44q-32 20 -58.5 45.5t-42 58.5
t-15.5 77q0 55 26.5 92.5t72 57.5t102.5 20zM130 181q0 -52 34 -86.5t105 -34.5q45 0 75.5 16t46.5 44t16 64q0 35 -17.5 61.5t-48.5 47.5t-72 38l-14 6q-40 -19 -68 -41t-42.5 -50t-14.5 -65zM267 653q-51 0 -83.5 -26.5t-32.5 -76.5q0 -37 16.5 -62t43.5 -42.5t60 -33.5
q32 15 57.5 33t40.5 43.5t15 61.5q0 50 -32 76.5t-85 26.5z" />
    <glyph glyph-name="nine" unicode="9" horiz-adv-x="537" 
d="M490 409q0 -77 -13 -151.5t-46 -135t-94 -96.5t-157 -36q-19 0 -44 2.5t-41 7.5v75q17 -6 39 -9.5t43 -3.5q66 0 108.5 23t67.5 62.5t36.5 92t13.5 110.5h-6q-14 -23 -35.5 -42t-52 -30t-71.5 -11q-57 0 -100.5 25.5t-67.5 73.5t-24 117q0 75 26.5 129t75 83t113.5 29
q48 0 90 -19.5t73 -58.5t48.5 -98t17.5 -139zM262 650q-58 0 -94 -41t-36 -125q0 -68 31 -107.5t95 -39.5q44 0 76.5 19t50 49t17.5 62t-9 64.5t-26.5 59.5t-43.5 43t-61 16z" />
    <glyph glyph-name="colon" unicode=":" horiz-adv-x="254" 
d="M67 54q0 37 17 52t42 15t43 -15t18 -52q0 -36 -18 -52t-43 -16t-42 16t-17 52zM67 482q0 38 17 53t42 15t43 -15t18 -53q0 -36 -18 -52t-43 -16t-42 16t-17 52z" />
    <glyph glyph-name="semicolon" unicode=";" horiz-adv-x="254" 
d="M175 105q-8 -35 -21.5 -76t-29 -81.5t-30.5 -76.5h-65q7 28 14 60t13 64.5t11.5 63.5t9.5 57h91zM65 482q0 38 17 53t42 15q26 0 43.5 -15t17.5 -53q0 -36 -17.5 -52t-43.5 -16q-25 0 -42 16t-17 52z" />
    <glyph glyph-name="less" unicode="&#x3c;" horiz-adv-x="537" 
d="M490 116l-444 207v50l444 235v-78l-352 -178l352 -158v-78z" />
    <glyph glyph-name="equal" unicode="=" horiz-adv-x="538" 
d="M52 416v71h432v-71h-432zM52 217v71h432v-71h-432z" />
    <glyph glyph-name="greater" unicode="&#x3e;" horiz-adv-x="537" 
d="M46 194l351 157l-351 179v78l444 -235v-50l-444 -207v78z" />
    <glyph glyph-name="question" unicode="?" horiz-adv-x="411" 
d="M132 228q0 38 7 65.5t24.5 52.5t47.5 52q36 33 56 55t28.5 43t8.5 51q0 48 -29 74t-82 26q-46 0 -82 -12.5t-69 -29.5l-31 70q38 21 84.5 35t103.5 14q90 0 139 -47t49 -128q0 -45 -14 -76.5t-38.5 -57.5t-58.5 -57q-31 -28 -47 -49t-21.5 -41.5t-5.5 -49.5v-17h-70v27z
M110 54q0 37 17.5 52t43.5 15q23 0 41 -15t18 -52q0 -36 -18 -52t-41 -16q-26 0 -43.5 16t-17.5 52z" />
    <glyph glyph-name="at" unicode="@" horiz-adv-x="845" 
d="M791 357q0 -46 -10 -90t-30.5 -79.5t-51 -57t-71.5 -21.5q-43 0 -68 26.5t-31 60.5h-5q-16 -37 -49 -62t-83 -25q-73 0 -112 51t-39 135q0 66 24.5 116.5t70 79.5t106.5 29q42 0 82.5 -7.5t62.5 -16.5l-9 -203q-1 -18 -1 -25.5v-10.5q0 -52 17 -69t39 -17q29 0 49 25.5
t30.5 68t10.5 93.5q0 93 -35 157.5t-96 98.5t-139 34q-80 0 -141.5 -27t-103 -76t-63 -115.5t-21.5 -146.5q0 -98 32.5 -166.5t96 -104t155.5 -35.5q56 0 109.5 13.5t93.5 29.5v-68q-40 -18 -91 -29.5t-112 -11.5q-111 0 -190.5 44t-121.5 126.5t-42 198.5q0 93 27.5 172.5
t79 138t125.5 91t167 32.5q98 0 174.5 -43t120 -123t43.5 -191zM317 293q0 -64 23.5 -93t63.5 -29q52 0 75.5 42t26.5 109l6 125q-13 4 -31 7t-38 3q-46 0 -74 -24t-40 -61.5t-12 -78.5z" />
    <glyph glyph-name="A" unicode="A" horiz-adv-x="604" 
d="M511 0l-78 221h-265l-77 -221h-91l260 717h84l259 -717h-92zM333 517q-2 8 -8.5 29t-13 43.5t-10.5 34.5q-7 -31 -15.5 -60.5t-14.5 -46.5l-74 -216h210z" />
    <glyph glyph-name="B" unicode="B" horiz-adv-x="613" 
d="M284 714q84 0 141 -17t86 -56t29 -104q0 -42 -14.5 -74.5t-42.5 -54t-69 -29.5v-5q42 -7 75.5 -26t53 -54t19.5 -91q0 -65 -28.5 -110.5t-80.5 -69t-125 -23.5h-237v714h193zM301 410q84 0 115.5 29.5t31.5 87.5q0 59 -38.5 84.5t-121.5 25.5h-108v-227h121zM180 335
v-259h132q87 0 121.5 37t34.5 97q0 38 -15.5 66t-50.5 43.5t-96 15.5h-126z" />
    <glyph glyph-name="C" unicode="C" horiz-adv-x="594" 
d="M378 645q-53 0 -95 -19.5t-71.5 -57t-45 -91t-15.5 -120.5q0 -88 25 -153t75.5 -100t125.5 -35q44 0 83.5 8t78.5 20v-78q-38 -15 -78 -22t-96 -7q-103 0 -171.5 45t-102.5 128t-34 195q0 81 21 148t62 116t101 75.5t138 26.5q51 0 99 -11t87 -31l-35 -76
q-31 15 -69.5 27t-82.5 12z" />
    <glyph glyph-name="D" unicode="D" horiz-adv-x="687" 
d="M630 364q0 -120 -42 -201t-120.5 -122t-189.5 -41h-187v714h207q102 0 176.5 -40t115 -117.5t40.5 -192.5zM536 361q0 95 -29 156t-84.5 90.5t-135.5 29.5h-107v-560h89q134 0 200.5 71.5t66.5 212.5z" />
    <glyph glyph-name="E" unicode="E" horiz-adv-x="523" 
d="M467 0h-376v714h376v-79h-287v-223h270v-78h-270v-255h287v-79z" />
    <glyph glyph-name="F" unicode="F" horiz-adv-x="491" 
d="M180 0h-89v714h376v-79h-287v-253h269v-79h-269v-303z" />
    <glyph glyph-name="G" unicode="G" horiz-adv-x="684" 
d="M379 377h235v-350q-54 -19 -109.5 -28t-126.5 -9q-104 0 -175.5 44.5t-108.5 127t-37 195.5q0 112 41 194t119 127.5t188 45.5q56 0 106.5 -11t93.5 -31l-33 -78q-35 17 -79.5 29t-91.5 12q-79 0 -135 -35t-86 -99.5t-30 -153.5q0 -85 25 -150.5t79.5 -102t142.5 -36.5
q29 0 51.5 2.5t41.5 6.5t35 8v212h-146v80z" />
    <glyph glyph-name="H" unicode="H" horiz-adv-x="699" 
d="M607 0h-89v333h-338v-333h-89v714h89v-302h338v302h89v-714z" />
    <glyph glyph-name="I" unicode="I" horiz-adv-x="322" 
d="M284 0h-247v52l79 19v571l-79 20v52h247v-52l-79 -20v-571l79 -19v-52z" />
    <glyph glyph-name="J" unicode="J" horiz-adv-x="260" 
d="M-2 -190q-23 0 -40.5 3.5t-30.5 9.5v76q15 -4 32 -7t36 -3q24 0 44.5 10t33.5 35t13 70v710h89v-703q0 -69 -22 -113.5t-61.5 -66t-93.5 -21.5z" />
    <glyph glyph-name="K" unicode="K" horiz-adv-x="585" 
d="M585 0h-104l-233 341l-68 -64v-277h-89v714h89v-352q27 34 55 68l56 68l181 216h104l-264 -311z" />
    <glyph glyph-name="L" unicode="L" horiz-adv-x="496" 
d="M91 0v714h89v-634h292v-80h-381z" />
    <glyph glyph-name="M" unicode="M" horiz-adv-x="856" 
d="M386 0l-216 626h-4q2 -20 3.5 -51t2.5 -67.5t1 -74.5v-433h-82v714h130l203 -585h4l207 585h130v-714h-88v439q0 35 1 69.5t3 65t3 51.5h-4l-220 -625h-74z" />
    <glyph glyph-name="N" unicode="N" horiz-adv-x="719" 
d="M628 0h-105l-354 593h-4q1 -18 2.5 -40t2.5 -47.5t2 -52.5t1 -54v-399h-82v714h104l353 -591h4q-1 12 -2 33.5t-2 48t-2 54.5t-1 52v403h83v-714z" />
    <glyph glyph-name="O" unicode="O" horiz-adv-x="735" 
d="M678 358q0 -83 -20 -150.5t-59 -116.5t-97 -75t-134 -26q-79 0 -137.5 26.5t-97 75t-57.5 116.5t-19 151q0 110 34 192t103.5 128t174.5 46q101 0 170 -45.5t104 -128t35 -193.5zM151 358q0 -90 23 -155t71.5 -100t122.5 -35q75 0 123 35t70.5 100t22.5 155
q0 135 -51.5 211.5t-163.5 76.5q-75 0 -123.5 -34.5t-71.5 -99t-23 -154.5z" />
    <glyph glyph-name="P" unicode="P" horiz-adv-x="571" 
d="M271 714q132 0 192 -55t60 -155q0 -59 -25 -110.5t-83 -83.5t-159 -32h-76v-278h-89v714h180zM264 637h-84v-282h66q62 0 103 14.5t61.5 46.5t20.5 84q0 69 -40.5 103t-126.5 34z" />
    <glyph glyph-name="Q" unicode="Q" horiz-adv-x="735" 
d="M678 358q0 -87 -22 -158t-64.5 -120t-106.5 -72l161 -178h-126l-130 161q-5 0 -11 -0.5t-11 -0.5q-79 0 -137.5 26.5t-97 75t-57.5 116.5t-19 151q0 110 34 192t103.5 128t174.5 46q101 0 170 -45.5t104 -128t35 -193.5zM151 358q0 -90 23 -155t71.5 -100t122.5 -35
q75 0 123 35t70.5 100t22.5 155q0 135 -51.5 211.5t-163.5 76.5q-75 0 -123.5 -34.5t-71.5 -99t-23 -154.5z" />
    <glyph glyph-name="R" unicode="R" horiz-adv-x="588" 
d="M277 714q84 0 138.5 -22.5t81 -67.5t26.5 -113q0 -57 -19.5 -95t-50 -60.5t-64.5 -35.5l186 -320h-104l-162 295h-129v-295h-89v714h186zM272 636h-92v-265h96q54 0 88.5 15.5t50.5 45.5t16 75q0 47 -17 75t-52.5 41t-89.5 13z" />
    <glyph glyph-name="S" unicode="S" horiz-adv-x="517" 
d="M473 191q0 -64 -29.5 -108.5t-83 -68.5t-127.5 -24q-37 0 -71.5 4t-63 11.5t-50.5 18.5v86q35 -16 85.5 -29t103.5 -13q49 0 81.5 14t49 40t16.5 61t-14.5 59t-48.5 44.5t-93 43.5q-55 22 -93.5 50t-58.5 67.5t-20 94.5q0 57 27.5 97.5t76 62.5t112.5 22q55 0 101 -11
t85 -29l-28 -77q-36 16 -76.5 27t-83.5 11q-41 0 -68.5 -13t-41.5 -36.5t-14 -54.5q0 -36 14 -60t46 -43t85 -41q59 -23 99.5 -49.5t61.5 -63.5t21 -93z" />
    <glyph glyph-name="T" unicode="T" horiz-adv-x="524" 
d="M307 0h-89v635h-208v79h503v-79h-206v-635z" />
    <glyph glyph-name="U" unicode="U" horiz-adv-x="689" 
d="M604 252q0 -74 -28.5 -133.5t-87 -94t-147.5 -34.5q-126 0 -191.5 72.5t-65.5 191.5v460h89v-463q0 -87 43 -135t130 -48q60 0 97 23.5t54.5 65t17.5 95.5v462h89v-462z" />
    <glyph glyph-name="V" unicode="V" horiz-adv-x="568" 
d="M568 714l-239 -714h-90l-239 714h93l149 -458q10 -29 17.5 -56t14 -51.5t10.5 -48.5q4 24 10 49t14.5 52t17.5 57l148 456h94z" />
    <glyph glyph-name="W" unicode="W" horiz-adv-x="876" 
d="M865 714l-178 -714h-91l-127 468q-6 21 -11.5 43l-10.5 42t-8 34.5t-4 21.5q-1 -7 -4 -21.5t-7 -34.5t-9.5 -42.5t-11.5 -45.5l-124 -465h-92l-177 714h93l103 -436q7 -30 13 -60t10.5 -57.5t7.5 -52.5q4 26 9 55.5t12 59.5t15 60l116 431h92l121 -434q9 -31 15.5 -62
t12 -59t8.5 -51q3 25 8 52.5t11.5 57.5t13.5 61l102 435h92z" />
    <glyph glyph-name="X" unicode="X" horiz-adv-x="556" 
d="M553 0h-101l-176 310l-179 -310h-94l223 372l-209 342h99l163 -280l164 280h94l-208 -340z" />
    <glyph glyph-name="Y" unicode="Y" horiz-adv-x="536" 
d="M268 363l172 351h96l-223 -437v-277h-89v273l-224 441h97z" />
    <glyph glyph-name="Z" unicode="Z" horiz-adv-x="539" 
d="M503 0h-468v68l351 566h-340v80h448v-68l-351 -566h360v-80z" />
    <glyph glyph-name="bracketleft" unicode="[" horiz-adv-x="309" 
d="M285 -158h-211v872h211v-72h-127v-728h127v-72z" />
    <glyph glyph-name="backslash" unicode="\" horiz-adv-x="352" 
d="M93 714l251 -714h-85l-250 714h84z" />
    <glyph glyph-name="bracketright" unicode="]" horiz-adv-x="309" 
d="M24 -86h128v728h-128v72h211v-872h-211v72z" />
    <glyph glyph-name="asciicircum" unicode="^" horiz-adv-x="538" 
d="M35 267l199 452h49l220 -452h-76l-167 359l-149 -359h-76z" />
    <glyph glyph-name="underscore" unicode="_" horiz-adv-x="415" 
d="M417 -154h-419v64h419v-64z" />
    <glyph glyph-name="grave" unicode="`" horiz-adv-x="275" 
d="M143 766q11 -22 27 -49.5t33.5 -53.5t31.5 -45v-12h-59q-16 14 -36 33.5t-39.5 41t-35.5 41.5t-25 34v10h103z" />
    <glyph glyph-name="a" unicode="a" horiz-adv-x="531" 
d="M272 545q92 0 137.5 -43t45.5 -137v-365h-63l-17 76h-4q-22 -29 -44.5 -48.5t-52 -28.5t-72.5 -9q-45 0 -81 17t-57 52.5t-21 89.5q0 80 59 123.5t182 47.5l85 3v32q0 67 -26.5 93t-75.5 26q-39 0 -74.5 -12.5t-67.5 -28.5l-27 66q34 19 79 32.5t95 13.5zM296 259
q-92 -4 -127.5 -32t-35.5 -79q0 -45 25 -66t65 -21q62 0 104 37.5t42 115.5v48z" />
    <glyph glyph-name="b" unicode="b" horiz-adv-x="579" 
d="M166 575q0 -34 -1.5 -63.5t-3.5 -46.5h5q21 34 59 57t96 23q94 0 150.5 -69.5t56.5 -207.5q0 -92 -26 -154t-72.5 -93t-108.5 -31q-59 0 -96.5 23t-58.5 55h-7l-17 -68h-63v760h87v-185zM305 472q-52 0 -82.5 -21.5t-43.5 -66t-13 -113.5v-4q0 -99 29.5 -151.5
t111.5 -52.5q65 0 98 53t33 153q0 101 -33 152t-100 51z" />
    <glyph glyph-name="c" unicode="c" horiz-adv-x="454" 
d="M282 -10q-68 0 -120 29t-81.5 90t-29.5 156q0 99 31 161t84.5 91t121.5 29q39 0 75.5 -8.5t59.5 -20.5l-27 -73q-23 9 -53.5 17t-56.5 8q-49 0 -81 -23t-48 -68t-16 -112q0 -64 16 -109t47.5 -68t77.5 -23q41 0 73 9t59 22v-78q-26 -14 -57 -21.5t-75 -7.5z" />
    <glyph glyph-name="d" unicode="d" horiz-adv-x="579" 
d="M257 -10q-93 0 -149.5 69.5t-56.5 207.5t57 208.5t150 70.5q39 0 68 -10.5t50.5 -28.5t36.5 -40h6q-1 13 -3.5 38.5t-2.5 40.5v214h87v-760h-70l-13 72h-4q-15 -23 -36.5 -41.5t-51 -29.5t-68.5 -11zM273 63q78 0 109.5 46.5t31.5 140.5v16q0 100 -30 153.5t-112 53.5
q-66 0 -98.5 -56.5t-32.5 -151.5q0 -96 32.5 -149t99.5 -53z" />
    <glyph glyph-name="e" unicode="e" horiz-adv-x="532" 
d="M275 546q65 0 112 -30t72.5 -84.5t25.5 -127.5v-53h-344q2 -91 43 -138.5t115 -47.5q48 0 85.5 9.5t77.5 27.5v-77q-39 -18 -76.5 -26.5t-90.5 -8.5q-72 0 -127 31t-86 92.5t-31 150.5q0 88 28 151t78.5 97t117.5 34zM275 474q-58 0 -92 -40.5t-40 -112.5h252
q0 46 -13 80t-39.5 53.5t-67.5 19.5z" />
    <glyph glyph-name="f" unicode="f" horiz-adv-x="326" 
d="M315 468h-126v-468h-88v468h-87v41l87 30v31q0 69 19.5 112t56.5 63t89 20q31 0 56.5 -5.5t44.5 -12.5l-23 -69q-16 5 -35.5 10t-40.5 5q-40 0 -59.5 -29.5t-19.5 -92.5v-35h126v-68z" />
    <glyph glyph-name="g" unicode="g" horiz-adv-x="579" 
d="M257 546q50 0 89.5 -20t67.5 -61h5l11 71h70v-545q0 -76 -24.5 -127.5t-75 -77.5t-128.5 -26q-55 0 -100 8.5t-82 25.5v81q25 -13 54.5 -22.5t63 -14.5t69.5 -5q64 0 100.5 40.5t36.5 110.5v21q0 12 1 34.5t2 31.5h-4q-26 -41 -65 -61t-90 -20q-97 0 -152 73t-55 204
q0 86 24.5 148.5t71 96.5t110.5 34zM271 472q-41 0 -70.5 -24t-44.5 -70t-15 -112q0 -99 33.5 -151.5t98.5 -52.5q37 0 64 10.5t44 33t25.5 57.5t8.5 83v21q0 73 -15.5 118t-47 66t-81.5 21z" />
    <glyph glyph-name="h" unicode="h" horiz-adv-x="584" 
d="M166 537q0 -19 -1.5 -39t-3.5 -36h6q16 28 40.5 46t54 27.5t61.5 9.5q61 0 102 -20.5t62 -63.5t21 -112v-349h-87v343q0 65 -27 97t-83 32q-55 0 -87 -22.5t-45 -66t-13 -106.5v-277h-87v760h87v-223z" />
    <glyph glyph-name="i" unicode="i" horiz-adv-x="246" 
d="M167 536v-536h-87v536h87zM124 737q20 0 35 -13.5t15 -42.5q0 -28 -15 -42t-35 -14q-21 0 -36 14t-15 42q0 29 15 42.5t36 13.5z" />
    <glyph glyph-name="j" unicode="j" horiz-adv-x="246" 
d="M22 -240q-24 0 -42.5 3.5t-31.5 8.5v71q14 -4 29 -7t33 -3q31 0 50.5 17.5t19.5 66.5v619h87v-616q0 -50 -15 -86t-47 -55t-83 -19zM73 681q0 29 15 42.5t36 13.5q20 0 35 -13.5t15 -42.5q0 -28 -15 -42t-35 -14q-21 0 -36 14t-15 42z" />
    <glyph glyph-name="k" unicode="k" horiz-adv-x="508" 
d="M165 363q0 -16 -1.5 -42t-2.5 -45h4q6 8 17 23t23 30.5t21 25.5l159 181h101l-204 -229l218 -307h-104l-173 250l-58 -53v-197h-86v760h86v-397z" />
    <glyph glyph-name="l" unicode="l" horiz-adv-x="245" 
d="M166 0h-87v760h87v-760z" />
    <glyph glyph-name="m" unicode="m" horiz-adv-x="882" 
d="M636 546q86 0 128 -46.5t42 -150.5v-349h-86v345q0 63 -24.5 95t-76.5 32q-72 0 -102.5 -45t-30.5 -131v-296h-87v345q0 42 -11 70.5t-33 42.5t-57 14q-50 0 -79 -22.5t-41 -65.5t-12 -106v-278h-87v536h70l13 -73h5q16 28 39 46.5t51 27.5t58 9q58 0 97 -22t57 -68h6
q25 46 68.5 68t92.5 22z" />
    <glyph glyph-name="n" unicode="n" horiz-adv-x="584" 
d="M325 546q90 0 136.5 -46.5t46.5 -150.5v-349h-87v343q0 65 -27 97t-83 32q-82 0 -113.5 -50t-31.5 -144v-278h-87v536h70l13 -73h5q16 28 41 46.5t55 27.5t62 9z" />
    <glyph glyph-name="o" unicode="o" horiz-adv-x="570" 
d="M520 269q0 -67 -16.5 -118.5t-47.5 -87.5t-75 -54.5t-98 -18.5q-50 0 -92.5 18.5t-74 54.5t-48.5 87.5t-17 118.5q0 89 28.5 150.5t81.5 94t125 32.5q69 0 121.5 -32.5t82.5 -94t30 -150.5zM141 269q0 -63 15 -109.5t47 -71.5t82 -25t82 25t47.5 71.5t15.5 109.5
q0 64 -15.5 109t-47.5 69.5t-83 24.5q-75 0 -109 -54t-34 -149z" />
    <glyph glyph-name="p" unicode="p" horiz-adv-x="579" 
d="M322 546q93 0 149.5 -69t56.5 -208q0 -91 -26 -153.5t-72.5 -94t-108.5 -31.5q-39 0 -68.5 11t-50.5 28.5t-36 38.5h-6q2 -17 4 -43t2 -45v-220h-87v776h71l12 -73h4q15 23 36 42t50.5 30t69.5 11zM305 472q-50 0 -80.5 -20.5t-44.5 -61.5t-14 -104v-17q0 -66 12.5 -112
t43.5 -70t85 -24q45 0 74 27t43 73.5t14 106.5q0 92 -32.5 147t-100.5 55z" />
    <glyph glyph-name="q" unicode="q" horiz-adv-x="579" 
d="M413 -11q0 18 1 42t4 41h-6q-22 -34 -59.5 -58t-97.5 -24q-91 0 -147.5 69.5t-56.5 207.5q0 92 26 154t73 93.5t108 31.5q59 0 96.5 -24t59.5 -59h4l12 73h70v-776h-87v229zM274 63q51 0 81.5 20t44.5 61.5t14 103.5v18q0 102 -31 154.5t-111 52.5q-67 0 -99 -56.5
t-32 -151.5t32.5 -148.5t100.5 -53.5z" />
    <glyph glyph-name="r" unicode="r" horiz-adv-x="391" 
d="M318 546q14 0 30 -1.5t28 -4.5l-10 -81q-12 3 -26.5 5t-27.5 2q-29 0 -55 -13t-46.5 -36.5t-32.5 -56.5t-12 -74v-286h-87v536h71l10 -98h4q16 30 38.5 54.5t51.5 39t64 14.5z" />
    <glyph glyph-name="s" unicode="s" horiz-adv-x="452" 
d="M410 148q0 -52 -24.5 -87t-69.5 -53t-108 -18q-53 0 -91.5 9t-67.5 25v80q31 -16 74 -29.5t87 -13.5q61 0 88.5 21.5t27.5 57.5q0 20 -10.5 36t-37 32t-76.5 36q-48 20 -82.5 40t-53 48t-18.5 72q0 68 52.5 105t137.5 37q46 0 86 -9.5t76 -26.5l-29 -70q-21 10 -44 17.5
t-46.5 12t-47.5 4.5q-49 0 -75 -17.5t-26 -47.5q0 -22 12 -38t39.5 -30.5t75.5 -33.5t82 -39t51.5 -48.5t17.5 -71.5z" />
    <glyph glyph-name="t" unicode="t" horiz-adv-x="345" 
d="M252 62q19 0 39 3.5t33 7.5v-67q-14 -7 -39.5 -11.5t-48.5 -4.5q-40 0 -74 14.5t-54.5 50.5t-20.5 101v312h-71v42l73 35l33 114h52v-123h146v-68h-146v-310q0 -49 22 -72.5t56 -23.5z" />
    <glyph glyph-name="u" unicode="u" horiz-adv-x="583" 
d="M504 536v-536h-70l-13 71h-4q-16 -28 -41.5 -46t-55.5 -26.5t-63 -8.5q-60 0 -101 20.5t-61.5 63.5t-20.5 111v351h88v-345q0 -64 27 -96t83 -32q55 0 86.5 22.5t45 66t13.5 105.5v279h87z" />
    <glyph glyph-name="v" unicode="v" horiz-adv-x="482" 
d="M191 0l-191 536h93l106 -316q8 -22 16 -49t14.5 -51.5t8.5 -41.5h4q3 17 10 42t15.5 52t15.5 48l106 316h93l-192 -536h-99z" />
    <glyph glyph-name="w" unicode="w" horiz-adv-x="743" 
d="M409 303q-11 41 -21.5 80.5t-14.5 61.5h-4q-4 -22 -13.5 -61.5t-21.5 -81.5l-87 -301h-98l-139 536h90l69 -286q7 -29 13.5 -58.5t11.5 -56t7 -45.5h4q3 17 8.5 42t12 52.5t12.5 49.5l87 302h96l84 -302q7 -23 13.5 -49t12 -50.5t7.5 -43.5h3q3 25 13 69t21 90l70 286h88
l-140 -536h-101z" />
    <glyph glyph-name="x" unicode="x" horiz-adv-x="501" 
d="M198 274l-174 262h99l128 -202l126 202h99l-174 -262l183 -274h-99l-135 214l-137 -214h-98z" />
    <glyph glyph-name="y" unicode="y" horiz-adv-x="484" 
d="M1 536h94l107 -305q10 -27 18 -52t14 -48.5t9 -45.5h3q6 25 17.5 65.5t24.5 81.5l101 304h95l-217 -610q-18 -50 -42.5 -87.5t-59.5 -58t-84 -20.5q-22 0 -39.5 2.5t-29.5 5.5v70q10 -2 25 -4t31 -2q29 0 50 11.5t36 33t25 50.5l25 71z" />
    <glyph glyph-name="z" unicode="z" horiz-adv-x="443" 
d="M407 0h-371v58l268 410h-252v68h349v-66l-265 -402h271v-68z" />
    <glyph glyph-name="braceleft" unicode="{" horiz-adv-x="358" 
d="M327 -158q-59 1 -101 18t-64 52.5t-22 88.5v147q0 34 -13.5 54.5t-39 30t-62.5 9.5v73q37 1 62.5 10t39 29.5t13.5 53.5v148q0 40 13 69.5t37.5 49t59 29.5t77.5 10v-72q-31 -1 -54 -11t-35.5 -30t-12.5 -53v-144q0 -51 -25.5 -81.5t-77.5 -40.5v-6q52 -10 77.5 -40.5
t25.5 -81.5v-147q0 -32 12 -52.5t35 -30t55 -10.5v-72z" />
    <glyph glyph-name="bar" unicode="|" horiz-adv-x="517" 
d="M223 760h71v-1001h-71v1001z" />
    <glyph glyph-name="braceright" unicode="}" horiz-adv-x="358" 
d="M31 -86q32 1 55 11t35 30.5t12 52.5v145q0 51 26 81.5t77 40.5v6q-52 10 -77.5 40.5t-25.5 81.5v146q0 33 -12 53t-34.5 30t-55.5 10v72q45 0 79.5 -10t58.5 -29.5t36.5 -49.5t12.5 -70v-146q0 -34 13.5 -54.5t39 -30t62.5 -9.5v-73q-37 0 -62.5 -9.5t-39 -29.5
t-13.5 -54v-149q0 -53 -23 -88t-65 -52.5t-99 -17.5v72z" />
    <glyph glyph-name="asciitilde" unicode="~" horiz-adv-x="537" 
d="M253 319q-34 16 -57 21.5t-43 5.5q-26 0 -55 -17t-52 -42v78q23 26 51 39.5t62 13.5q27 0 54.5 -6t70.5 -26q35 -16 56.5 -21.5t41.5 -5.5q27 0 56.5 17t51.5 42v-77q-22 -26 -50.5 -40t-62.5 -14q-27 0 -54.5 6.5t-69.5 25.5z" />
    <glyph glyph-name="uni00A0" unicode="&#xa0;" horiz-adv-x="244" 
 />
    <glyph glyph-name="exclamdown" unicode="&#xa1;" horiz-adv-x="255" 
d="M93 330h70l16 -512h-106zM187 478q0 -37 -17.5 -52t-42.5 -15t-42.5 15t-17.5 52q0 36 17.5 52t42.5 16t42.5 -16t17.5 -52z" />
    <glyph glyph-name="cent" unicode="&#xa2;" horiz-adv-x="538" 
d="M332 644q36 -1 69 -9.5t57 -19.5l-26 -73q-25 10 -56 18t-57 8q-50 0 -82.5 -22.5t-48 -68t-15.5 -114.5t16 -113t48 -65t79 -21q41 0 72 8.5t61 21.5v-77q-26 -13 -53.5 -20.5t-63.5 -9.5v-97h-65v100q-56 9 -97 39t-63.5 87t-22.5 146q0 91 23 149t64 89t96 40v84h65
v-80z" />
    <glyph glyph-name="sterling" unicode="&#xa3;" horiz-adv-x="538" 
d="M315 723q51 0 93 -12t74 -29l-30 -70q-28 14 -62.5 26t-72.5 12q-52 0 -79.5 -29.5t-27.5 -95.5v-139h190v-66h-190v-104q0 -40 -9 -66.5t-23.5 -42.5t-31.5 -27h358v-80h-473v74q27 7 47.5 23.5t32.5 45t12 72.5v105h-89v66h89v148q0 60 24 102t67.5 64.5t100.5 22.5z
" />
    <glyph glyph-name="currency" unicode="&#xa4;" horiz-adv-x="538" 
d="M85 353q0 30 8.5 58.5t23.5 51.5l-62 68l48 47l61 -64q22 17 49 26t56 9t54.5 -9t47.5 -26l63 64l47 -47l-61 -67q14 -23 23.5 -51.5t9.5 -59.5t-8.5 -60t-24.5 -52l60 -66l-46 -47l-63 64q-22 -16 -47.5 -25t-54.5 -9t-56.5 9.5t-48.5 25.5l-61 -64l-47 47l61 66
q-15 23 -23.5 51.5t-8.5 59.5zM150 353q0 -36 16 -65t43 -46.5t60 -17.5q34 0 60.5 17.5t42.5 46.5t16 65q0 37 -16 66.5t-42.5 47t-60.5 17.5q-33 0 -60 -17.5t-43 -47t-16 -66.5z" />
    <glyph glyph-name="yen" unicode="&#xa5;" horiz-adv-x="537" 
d="M268 365l164 349h91l-188 -375h115v-64h-140v-82h140v-64h-140v-129h-85v129h-140v64h140v82h-140v64h113l-186 375h92z" />
    <glyph glyph-name="brokenbar" unicode="&#xa6;" horiz-adv-x="517" 
d="M223 760h71v-381h-71v381zM223 140h71v-381h-71v381z" />
    <glyph glyph-name="section" unicode="&#xa7;" horiz-adv-x="481" 
d="M62 395q0 50 23 80.5t51 45.5q-34 20 -52.5 47.5t-18.5 67.5q0 60 48.5 94.5t136.5 34.5q53 0 89.5 -9.5t71.5 -24.5l-26 -67q-32 14 -64 23.5t-76 9.5q-55 0 -77.5 -15.5t-22.5 -43.5q0 -18 11 -32.5t37.5 -29t73.5 -33.5q48 -19 82.5 -41t52.5 -50.5t18 -68.5
q0 -34 -10 -59.5t-26 -43.5t-34 -30q33 -19 51 -45.5t18 -64.5q0 -69 -54.5 -107t-150.5 -38q-52 0 -90.5 8.5t-68.5 24.5v75q21 -10 47.5 -19.5t56 -15.5t58.5 -6q69 0 94.5 21.5t25.5 49.5q0 19 -8.5 33.5t-34 29.5t-76.5 35q-49 20 -84 41t-53.5 50t-18.5 73zM135 405
q0 -24 13 -43t42 -36.5t78 -38.5l19 -8q22 14 40.5 35.5t18.5 55.5q0 25 -12.5 45t-44 38.5t-88.5 37.5q-25 -7 -45.5 -30t-20.5 -56z" />
    <glyph glyph-name="dieresis" unicode="&#xa8;" horiz-adv-x="547" 
d="M139 681q0 26 13.5 37.5t32.5 11.5q18 0 31.5 -11.5t13.5 -37.5q0 -25 -13.5 -37.5t-31.5 -12.5q-19 0 -32.5 12.5t-13.5 37.5zM316 681q0 26 13.5 37.5t31.5 11.5q19 0 32.5 -11.5t13.5 -37.5q0 -25 -13.5 -37.5t-32.5 -12.5q-18 0 -31.5 12.5t-13.5 37.5z" />
    <glyph glyph-name="copyright" unicode="&#xa9;" horiz-adv-x="782" 
d="M410 515q-55 0 -86 -42t-31 -116q0 -76 27 -117.5t89 -41.5q22 0 49 6.5t50 16.5v-64q-23 -10 -46.5 -17t-56.5 -7q-93 0 -139 61.5t-46 162.5q0 65 22 115.5t64 79t103 28.5q29 0 59.5 -8t55.5 -22l-27 -61q-23 13 -45 19.5t-42 6.5zM46 357q0 76 26.5 142.5t74 117
t110 79t134.5 28.5t134.5 -28.5t110 -79t74 -117t26.5 -142.5t-26.5 -142.5t-74 -117t-110 -79t-134.5 -28.5t-134.5 28.5t-110 79t-74 117t-26.5 142.5zM96 357q0 -65 23 -122t63.5 -100t94 -67.5t114.5 -24.5t114.5 24.5t94 67.5t63.5 100t23 122t-23 122t-63.5 100
t-94 67.5t-114.5 24.5t-114.5 -24.5t-94 -67.5t-63.5 -100t-23 -122z" />
    <glyph glyph-name="ordfeminine" unicode="&#xaa;" horiz-adv-x="337" 
d="M168 722q61 0 92 -27t31 -86v-220h-45l-12 42q-19 -21 -45.5 -34.5t-61.5 -13.5q-30 0 -52 11t-34 33t-12 55q0 34 16.5 56.5t50 34.5t83.5 14l52 2v22q0 33 -19.5 46t-47.5 13q-25 0 -49 -7.5t-46 -18.5l-21 49q16 9 35.5 15.5t41 10t43.5 3.5zM186 542
q-55 -2 -74.5 -17.5t-19.5 -42.5q0 -25 13.5 -36.5t35.5 -11.5q47 0 68.5 23.5t21.5 63.5v23z" />
    <glyph glyph-name="guillemotleft" unicode="&#xab;" horiz-adv-x="487" 
d="M38 270l159 201l62 -36l-131 -171l131 -171l-62 -37l-159 201v13zM228 270l160 201l62 -36l-132 -171l132 -171l-62 -37l-160 201v13z" />
    <glyph glyph-name="logicalnot" unicode="&#xac;" horiz-adv-x="537" 
d="M489 388v-260h-69v189h-374v71h443z" />
    <glyph glyph-name="uni00AD" unicode="&#xad;" horiz-adv-x="322" 
d="M37 229v78h229v-78h-229z" />
    <glyph glyph-name="registered" unicode="&#xae;" horiz-adv-x="782" 
d="M381 373q37 0 57.5 20t20.5 51q0 35 -19 51t-60 16h-46v-138h47zM531 446q0 -47 -22.5 -74.5t-50.5 -39.5l109 -194h-81l-94 173h-58v-173h-72v437h121q77 0 112.5 -32t35.5 -97zM46 357q0 76 26.5 142.5t74 117t110 79t134.5 28.5t134.5 -28.5t110 -79t74 -117
t26.5 -142.5t-26.5 -142.5t-74 -117t-110 -79t-134.5 -28.5t-134.5 28.5t-110 79t-74 117t-26.5 142.5zM96 357q0 -65 23 -122t63.5 -100t94 -67.5t114.5 -24.5t114.5 24.5t94 67.5t63.5 100t23 122t-23 122t-63.5 100t-94 67.5t-114.5 24.5t-114.5 -24.5t-94 -67.5
t-63.5 -100t-23 -122z" />
    <glyph glyph-name="overscore" unicode="&#xaf;" horiz-adv-x="470" 
d="M473 760h-476v66h476v-66z" />
    <glyph glyph-name="degree" unicode="&#xb0;" horiz-adv-x="402" 
d="M55 570q0 44 19.5 78.5t53 55t73.5 20.5t73 -20.5t53 -55t20 -78.5q0 -43 -20 -78t-53 -55t-73 -20t-73.5 20t-53 55t-19.5 78zM114 570q0 -39 26 -66.5t62 -27.5q24 0 43.5 12.5t31 34t11.5 47.5q0 40 -25 67t-61 27t-62 -27t-26 -67z" />
    <glyph glyph-name="plusminus" unicode="&#xb1;" horiz-adv-x="537" 
d="M46 0v71h444v-71h-444zM303 391h186v-71h-186v-206h-71v206h-186v71h186v207h71v-207z" />
    <glyph glyph-name="uni00B2" unicode="&#xb2;" horiz-adv-x="331" 
d="M291 416h-268v54l107 112q38 39 57 63.5t26 44t7 41.5q0 32 -16.5 48t-44.5 16q-27 0 -50 -11.5t-47 -31.5l-35 46q28 25 61 40t73 15q60 0 95 -31.5t35 -86.5q0 -33 -12.5 -60.5t-36.5 -55.5t-59 -64l-75 -77h183v-62z" />
    <glyph glyph-name="uni00B3" unicode="&#xb3;" horiz-adv-x="331" 
d="M157 853q66 0 100 -31t34 -79q0 -40 -20 -66t-49 -36v-3q37 -7 59 -32.5t22 -66.5q0 -58 -40 -94.5t-123 -36.5q-34 0 -64 6.5t-59 21.5v63q32 -16 64 -25t60 -9q47 0 69.5 20.5t22.5 55.5q0 36 -26.5 52.5t-74.5 16.5h-54v55h53q47 0 68.5 19.5t21.5 50.5
q0 32 -18.5 46.5t-45.5 14.5q-28 0 -52.5 -10.5t-50.5 -27.5l-35 46q29 23 61.5 36t76.5 13z" />
    <glyph glyph-name="acute" unicode="&#xb4;" horiz-adv-x="275" 
d="M235 756q-9 -14 -25.5 -34t-36 -41.5t-39.5 -41t-37 -33.5h-57v12q14 19 31 45t33 53.5t27 49.5h104v-10z" />
    <glyph glyph-name="uni00B5" unicode="&#xb5;" horiz-adv-x="588" 
d="M509 536v-536h-70l-14 72h-5q-15 -26 -36.5 -44.5t-49 -28t-62.5 -9.5q-36 0 -62.5 12.5t-44.5 32.5h-4q2 -12 3 -29.5t1.5 -40t0.5 -49.5v-156h-87v776h87v-346q0 -62 28 -94.5t83 -32.5t86 22.5t44.5 66t13.5 105.5v279h88z" />
    <glyph glyph-name="paragraph" unicode="&#xb6;" horiz-adv-x="616" 
d="M518 -127h-56v831h-95v-831h-56v400q-13 -4 -31 -6.5t-35 -2.5q-58 0 -101.5 23t-67.5 77t-24 145q0 96 26 150.5t73 77.5t108 23h259v-887z" />
    <glyph glyph-name="periodcentered" unicode="&#xb7;" horiz-adv-x="268" 
d="M67 353q0 37 17 52t42 15t43 -15t18 -52q0 -36 -18 -52t-43 -16t-42 16t-17 52z" />
    <glyph glyph-name="cedilla" unicode="&#xb8;" horiz-adv-x="210" 
d="M199 -139q0 -32 -15.5 -54.5t-46 -34.5t-77.5 -12q-15 0 -28 1.5t-21 3.5v55q9 -2 23.5 -3.5t27.5 -1.5q32 0 49.5 9.5t17.5 34.5q0 26 -24 38t-61 17l40 86h57l-23 -53q22 -5 40.5 -15.5t29.5 -27.5t11 -43z" />
    <glyph glyph-name="uni00B9" unicode="&#xb9;" horiz-adv-x="331" 
d="M229 844v-428h-70v276q0 17 0.5 32t1 29t1.5 28q-9 -9 -20.5 -19.5t-22.5 -19.5l-50 -39l-34 49l123 92h71z" />
    <glyph glyph-name="ordmasculine" unicode="&#xba;" horiz-adv-x="355" 
d="M326 553q0 -81 -41 -125.5t-109 -44.5q-64 0 -105 43.5t-41 126.5q0 82 40 125.5t108 43.5q45 0 78 -19.5t51.5 -57t18.5 -92.5zM92 553q0 -58 20 -87.5t65 -29.5t65.5 29.5t20.5 87.5q0 59 -20.5 87.5t-65.5 28.5q-44 0 -64.5 -28.5t-20.5 -87.5z" />
    <glyph glyph-name="guillemotright" unicode="&#xbb;" horiz-adv-x="487" 
d="M449 257l-161 -201l-61 37l131 171l-131 171l61 36l161 -201v-13zM258 257l-159 -201l-62 37l131 171l-131 171l62 36l159 -201v-13z" />
    <glyph glyph-name="onequarter" unicode="&#xbc;" horiz-adv-x="706" 
d="M121 0l406 714h74l-407 -714h-73zM155 562q0 17 0.5 32t1 29t1.5 28q-9 -9 -20.5 -19.5t-22.5 -19.5l-50 -39l-34 49l123 92h71v-428h-70v276zM567 0v96h-183v52l185 283h72v-275h57v-60h-57v-96h-74zM452 156h115v93q0 21 1 49t2 52q-5 -11 -19 -35.5t-25 -41.5z" />
    <glyph glyph-name="onehalf" unicode="&#xbd;" horiz-adv-x="732" 
d="M95 0l407 714h73l-407 -714h-73zM145 562v24.5t0.5 22.5t1 21.5t1.5 20.5q-9 -9 -20 -19.5t-23 -19.5l-50 -39l-34 49l123 92h71v-428h-70v276zM424 0v54l107 112q38 39 57.5 63.5t26.5 44t7 41.5q0 32 -17 48t-45 16q-27 0 -50 -11.5t-47 -31.5l-35 46q28 25 61 40
t73 15q60 0 95 -31.5t35 -86.5q0 -33 -12.5 -60.5t-36.5 -55.5t-59 -64l-75 -77h183v-62h-268z" />
    <glyph glyph-name="threequarters" unicode="&#xbe;" horiz-adv-x="738" 
d="M161 0l407 714h74l-407 -714h-74zM139 278q-34 0 -64 6.5t-59 21.5v63q32 -16 64 -25t60 -9q47 0 69.5 20.5t22.5 55.5q0 36 -26.5 52.5t-74.5 16.5h-54v55h53q47 0 68.5 19.5t21.5 50.5q0 32 -18.5 46.5t-45.5 14.5q-28 0 -52.5 -10.5t-50.5 -27.5l-35 46q29 23 61.5 36
t76.5 13q66 0 100 -31t34 -79q0 -40 -20 -66t-49 -36v-3q37 -7 59 -32.5t22 -66.5q0 -58 -40 -94.5t-123 -36.5zM599 0v96h-182v52l184 283h72v-275h57v-60h-57v-96h-74zM484 156h115v93q0 21 1 49t2 52q-4 -11 -18.5 -35.5t-25.5 -41.5z" />
    <glyph glyph-name="questiondown" unicode="&#xbf;" horiz-adv-x="434" 
d="M300 304q0 -38 -7 -65.5t-24.5 -52.5t-47.5 -52q-36 -33 -56 -55t-28.5 -43t-8.5 -51q0 -48 29 -74t82 -26q46 0 82 12.5t69 29.5l31 -70q-38 -21 -84.5 -35t-103.5 -14q-90 0 -139 47t-49 128q0 45 14 76.5t38.5 57.5t58.5 57q31 28 47 49t21.5 41.5t5.5 49.5v17h70v-27
zM322 478q0 -37 -17.5 -52t-43.5 -15q-23 0 -41 15t-18 52q0 36 18 52t41 16q26 0 43.5 -16t17.5 -52z" />
    <glyph glyph-name="Agrave" unicode="&#xc0;" horiz-adv-x="604" 
d="M511 0l-78 221h-265l-77 -221h-91l260 717h84l259 -717h-92zM333 517q-2 8 -8.5 29t-13 43.5t-10.5 34.5q-7 -31 -15.5 -60.5t-14.5 -46.5l-74 -216h210zM262 944q11 -22 27 -49.5t33.5 -53.5t31.5 -45v-12h-59q-16 14 -36 33.5t-39.5 41t-35.5 41.5t-25 34v10h103z" />
    <glyph glyph-name="Aacute" unicode="&#xc1;" horiz-adv-x="604" 
d="M511 0l-78 221h-265l-77 -221h-91l260 717h84l259 -717h-92zM333 517q-2 8 -8.5 29t-13 43.5t-10.5 34.5q-7 -31 -15.5 -60.5t-14.5 -46.5l-74 -216h210zM448 934q-9 -14 -25.5 -34t-36 -41.5t-39.5 -41t-37 -33.5h-57v12q14 19 31 45t33 53.5t27 49.5h104v-10z" />
    <glyph glyph-name="Acircumflex" unicode="&#xc2;" horiz-adv-x="604" 
d="M511 0l-78 221h-265l-77 -221h-91l260 717h84l259 -717h-92zM333 517q-2 8 -8.5 29t-13 43.5t-10.5 34.5q-7 -31 -15.5 -60.5t-14.5 -46.5l-74 -216h210zM345 944q12 -22 33 -49.5t44 -54t41 -45.5v-11h-61q-25 16 -51 39.5t-52 50.5q-25 -27 -50.5 -50t-50.5 -40h-59v11
q18 20 40 46t43 53.5t33 49.5h90z" />
    <glyph glyph-name="Atilde" unicode="&#xc3;" horiz-adv-x="604" 
d="M511 0l-78 221h-265l-77 -221h-91l260 717h84l259 -717h-92zM333 517q-2 8 -8.5 29t-13 43.5t-10.5 34.5q-7 -31 -15.5 -60.5t-14.5 -46.5l-74 -216h210zM475 913q-6 -58 -33 -93t-71 -35q-20 0 -39 8.5t-37 20t-35 20t-32 8.5q-22 0 -33.5 -14.5t-17.5 -43.5h-50
q3 30 11.5 53.5t21.5 40t31.5 25.5t40.5 9q21 0 40 -8.5t37 -20t34.5 -20t31.5 -8.5q21 0 32.5 14.5t18.5 43.5h49z" />
    <glyph glyph-name="Adieresis" unicode="&#xc4;" horiz-adv-x="604" 
d="M511 0l-78 221h-265l-77 -221h-91l260 717h84l259 -717h-92zM333 517q-2 8 -8.5 29t-13 43.5t-10.5 34.5q-7 -31 -15.5 -60.5t-14.5 -46.5l-74 -216h210zM167 859q0 26 13.5 37.5t32.5 11.5q18 0 31.5 -11.5t13.5 -37.5q0 -25 -13.5 -37.5t-31.5 -12.5q-19 0 -32.5 12.5
t-13.5 37.5zM344 859q0 26 13.5 37.5t31.5 11.5q19 0 32.5 -11.5t13.5 -37.5q0 -25 -13.5 -37.5t-32.5 -12.5q-18 0 -31.5 12.5t-13.5 37.5z" />
    <glyph glyph-name="Aring" unicode="&#xc5;" horiz-adv-x="604" 
d="M511 0l-78 221h-265l-77 -221h-91l260 717h84l259 -717h-92zM333 517q-2 8 -8.5 29t-13 43.5t-10.5 34.5q-7 -31 -15.5 -60.5t-14.5 -46.5l-74 -216h210zM299 667q-46 0 -74.5 28t-28.5 78t28.5 77.5t74.5 27.5q45 0 75.5 -27.5t30.5 -76.5q0 -51 -30 -79t-76 -28z
M299 717q23 0 37.5 15t14.5 41t-14.5 41t-37.5 15q-22 0 -37 -15t-15 -41t13.5 -41t38.5 -15z" />
    <glyph glyph-name="AE" unicode="&#xc6;" horiz-adv-x="833" 
d="M777 0h-354v221h-234l-98 -221h-92l317 714h461v-79h-265v-223h247v-78h-247v-255h265v-79zM223 301h200v333h-55z" />
    <glyph glyph-name="Ccedilla" unicode="&#xc7;" horiz-adv-x="594" 
d="M378 645q-53 0 -95 -19.5t-71.5 -57t-45 -91t-15.5 -120.5q0 -88 25 -153t75.5 -100t125.5 -35q44 0 83.5 8t78.5 20v-78q-38 -15 -78 -22t-96 -7q-103 0 -171.5 45t-102.5 128t-34 195q0 81 21 148t62 116t101 75.5t138 26.5q51 0 99 -11t87 -31l-35 -76
q-31 15 -69.5 27t-82.5 12zM460 -139q0 -32 -15.5 -54.5t-46 -34.5t-77.5 -12q-15 0 -28 1.5t-21 3.5v55q9 -2 23.5 -3.5t27.5 -1.5q32 0 49.5 9.5t17.5 34.5q0 26 -24 38t-61 17l40 86h57l-23 -53q22 -5 40.5 -15.5t29.5 -27.5t11 -43z" />
    <glyph glyph-name="Egrave" unicode="&#xc8;" horiz-adv-x="523" 
d="M467 0h-376v714h376v-79h-287v-223h270v-78h-270v-255h287v-79zM248 944q11 -22 27 -49.5t33.5 -53.5t31.5 -45v-12h-59q-16 14 -36 33.5t-39.5 41t-35.5 41.5t-25 34v10h103z" />
    <glyph glyph-name="Eacute" unicode="&#xc9;" horiz-adv-x="523" 
d="M467 0h-376v714h376v-79h-287v-223h270v-78h-270v-255h287v-79zM434 934q-9 -14 -25.5 -34t-36 -41.5t-39.5 -41t-37 -33.5h-57v12q14 19 31 45t33 53.5t27 49.5h104v-10z" />
    <glyph glyph-name="Ecircumflex" unicode="&#xca;" horiz-adv-x="523" 
d="M467 0h-376v714h376v-79h-287v-223h270v-78h-270v-255h287v-79zM331 944q12 -22 33 -49.5t44 -54t41 -45.5v-11h-61q-25 16 -51 39.5t-52 50.5q-25 -27 -50.5 -50t-50.5 -40h-59v11q18 20 40 46t43 53.5t33 49.5h90z" />
    <glyph glyph-name="Edieresis" unicode="&#xcb;" horiz-adv-x="523" 
d="M467 0h-376v714h376v-79h-287v-223h270v-78h-270v-255h287v-79zM153 859q0 26 13.5 37.5t32.5 11.5q18 0 31.5 -11.5t13.5 -37.5q0 -25 -13.5 -37.5t-31.5 -12.5q-19 0 -32.5 12.5t-13.5 37.5zM330 859q0 26 13.5 37.5t31.5 11.5q19 0 32.5 -11.5t13.5 -37.5
q0 -25 -13.5 -37.5t-32.5 -12.5q-18 0 -31.5 12.5t-13.5 37.5z" />
    <glyph glyph-name="Igrave" unicode="&#xcc;" horiz-adv-x="322" 
d="M284 0h-247v52l79 19v571l-79 20v52h247v-52l-79 -20v-571l79 -19v-52zM123 944q11 -22 27 -49.5t33.5 -53.5t31.5 -45v-12h-59q-16 14 -36 33.5t-39.5 41t-35.5 41.5t-25 34v10h103z" />
    <glyph glyph-name="Iacute" unicode="&#xcd;" horiz-adv-x="322" 
d="M284 0h-247v52l79 19v571l-79 20v52h247v-52l-79 -20v-571l79 -19v-52zM309 934q-9 -14 -25.5 -34t-36 -41.5t-39.5 -41t-37 -33.5h-57v12q14 19 31 45t33 53.5t27 49.5h104v-10z" />
    <glyph glyph-name="Icircumflex" unicode="&#xce;" horiz-adv-x="322" 
d="M284 0h-247v52l79 19v571l-79 20v52h247v-52l-79 -20v-571l79 -19v-52zM206 944q12 -22 33 -49.5t44 -54t41 -45.5v-11h-61q-25 16 -51 39.5t-52 50.5q-25 -27 -50.5 -50t-50.5 -40h-59v11q18 20 40 46t43 53.5t33 49.5h90z" />
    <glyph glyph-name="Idieresis" unicode="&#xcf;" horiz-adv-x="322" 
d="M284 0h-247v52l79 19v571l-79 20v52h247v-52l-79 -20v-571l79 -19v-52zM28 859q0 26 13.5 37.5t32.5 11.5q18 0 31.5 -11.5t13.5 -37.5q0 -25 -13.5 -37.5t-31.5 -12.5q-19 0 -32.5 12.5t-13.5 37.5zM205 859q0 26 13.5 37.5t31.5 11.5q19 0 32.5 -11.5t13.5 -37.5
q0 -25 -13.5 -37.5t-32.5 -12.5q-18 0 -31.5 12.5t-13.5 37.5z" />
    <glyph glyph-name="Eth" unicode="&#xd0;" horiz-adv-x="687" 
d="M298 714q101 0 175.5 -40t115.5 -117.5t41 -192.5q0 -120 -42 -201t-120.5 -122t-190.5 -41h-180v314h-69v78h69v322h201zM287 637h-101v-245h163v-78h-163v-237h83q134 0 200.5 71.5t66.5 212.5q0 143 -65 209.5t-184 66.5z" />
    <glyph glyph-name="Ntilde" unicode="&#xd1;" horiz-adv-x="719" 
d="M628 0h-105l-354 593h-4q1 -18 2.5 -40t2.5 -47.5t2 -52.5t1 -54v-399h-82v714h104l353 -591h4q-1 12 -2 33.5t-2 48t-2 54.5t-1 52v403h83v-714zM533 913q-6 -58 -33 -93t-71 -35q-20 0 -39 8.5t-37 20t-35 20t-32 8.5q-22 0 -33.5 -14.5t-17.5 -43.5h-50
q3 30 11.5 53.5t21.5 40t31.5 25.5t40.5 9q21 0 40 -8.5t37 -20t34.5 -20t31.5 -8.5q21 0 32.5 14.5t18.5 43.5h49z" />
    <glyph glyph-name="Ograve" unicode="&#xd2;" horiz-adv-x="735" 
d="M678 358q0 -83 -20 -150.5t-59 -116.5t-97 -75t-134 -26q-79 0 -137.5 26.5t-97 75t-57.5 116.5t-19 151q0 110 34 192t103.5 128t174.5 46q101 0 170 -45.5t104 -128t35 -193.5zM151 358q0 -90 23 -155t71.5 -100t122.5 -35q75 0 123 35t70.5 100t22.5 155
q0 135 -51.5 211.5t-163.5 76.5q-75 0 -123.5 -34.5t-71.5 -99t-23 -154.5zM329 955q11 -22 27 -49.5t33.5 -53.5t31.5 -45v-12h-59q-16 14 -36 33.5t-39.5 41t-35.5 41.5t-25 34v10h103z" />
    <glyph glyph-name="Oacute" unicode="&#xd3;" horiz-adv-x="735" 
d="M678 358q0 -83 -20 -150.5t-59 -116.5t-97 -75t-134 -26q-79 0 -137.5 26.5t-97 75t-57.5 116.5t-19 151q0 110 34 192t103.5 128t174.5 46q101 0 170 -45.5t104 -128t35 -193.5zM151 358q0 -90 23 -155t71.5 -100t122.5 -35q75 0 123 35t70.5 100t22.5 155
q0 135 -51.5 211.5t-163.5 76.5q-75 0 -123.5 -34.5t-71.5 -99t-23 -154.5zM515 945q-9 -14 -25.5 -34t-36 -41.5t-39.5 -41t-37 -33.5h-57v12q14 19 31 45t33 53.5t27 49.5h104v-10z" />
    <glyph glyph-name="Ocircumflex" unicode="&#xd4;" horiz-adv-x="735" 
d="M678 358q0 -83 -20 -150.5t-59 -116.5t-97 -75t-134 -26q-79 0 -137.5 26.5t-97 75t-57.5 116.5t-19 151q0 110 34 192t103.5 128t174.5 46q101 0 170 -45.5t104 -128t35 -193.5zM151 358q0 -90 23 -155t71.5 -100t122.5 -35q75 0 123 35t70.5 100t22.5 155
q0 135 -51.5 211.5t-163.5 76.5q-75 0 -123.5 -34.5t-71.5 -99t-23 -154.5zM412 955q12 -22 33 -49.5t44 -54t41 -45.5v-11h-61q-25 16 -51 39.5t-52 50.5q-25 -27 -50.5 -50t-50.5 -40h-59v11q18 20 40 46t43 53.5t33 49.5h90z" />
    <glyph glyph-name="Otilde" unicode="&#xd5;" horiz-adv-x="735" 
d="M678 358q0 -83 -20 -150.5t-59 -116.5t-97 -75t-134 -26q-79 0 -137.5 26.5t-97 75t-57.5 116.5t-19 151q0 110 34 192t103.5 128t174.5 46q101 0 170 -45.5t104 -128t35 -193.5zM151 358q0 -90 23 -155t71.5 -100t122.5 -35q75 0 123 35t70.5 100t22.5 155
q0 135 -51.5 211.5t-163.5 76.5q-75 0 -123.5 -34.5t-71.5 -99t-23 -154.5zM542 924q-6 -58 -33 -93t-71 -35q-20 0 -39 8.5t-37 20t-35 20t-32 8.5q-22 0 -33.5 -14.5t-17.5 -43.5h-50q3 30 11.5 53.5t21.5 40t31.5 25.5t40.5 9q21 0 40 -8.5t37 -20t34.5 -20t31.5 -8.5
q21 0 32.5 14.5t18.5 43.5h49z" />
    <glyph glyph-name="Odieresis" unicode="&#xd6;" horiz-adv-x="735" 
d="M678 358q0 -83 -20 -150.5t-59 -116.5t-97 -75t-134 -26q-79 0 -137.5 26.5t-97 75t-57.5 116.5t-19 151q0 110 34 192t103.5 128t174.5 46q101 0 170 -45.5t104 -128t35 -193.5zM151 358q0 -90 23 -155t71.5 -100t122.5 -35q75 0 123 35t70.5 100t22.5 155
q0 135 -51.5 211.5t-163.5 76.5q-75 0 -123.5 -34.5t-71.5 -99t-23 -154.5zM234 870q0 26 13.5 37.5t32.5 11.5q18 0 31.5 -11.5t13.5 -37.5q0 -25 -13.5 -37.5t-31.5 -12.5q-19 0 -32.5 12.5t-13.5 37.5zM411 870q0 26 13.5 37.5t31.5 11.5q19 0 32.5 -11.5t13.5 -37.5
q0 -25 -13.5 -37.5t-32.5 -12.5q-18 0 -31.5 12.5t-13.5 37.5z" />
    <glyph glyph-name="multiply" unicode="&#xd7;" horiz-adv-x="538" 
d="M427 574l49 -51l-159 -170l158 -170l-49 -51l-159 169l-156 -169l-50 51l157 170l-158 169l50 52l158 -171z" />
    <glyph glyph-name="Oslash" unicode="&#xd8;" horiz-adv-x="735" 
d="M678 358q0 -83 -20 -150.5t-59 -116.5t-97 -75t-134 -26q-52 0 -95.5 12t-76.5 35l-45 -68l-59 40l48 74q-42 49 -62.5 119t-20.5 157q0 110 34 192t103.5 128t174.5 46q49 0 90.5 -12t75.5 -33l43 66l59 -41l-47 -71q43 -48 65.5 -118t22.5 -158zM584 358
q0 63 -11.5 114t-34.5 88l-295 -454q24 -18 55.5 -28t69.5 -10q75 0 123 35t70.5 100t22.5 155zM151 358q0 -61 10.5 -111t32.5 -87l294 451q-23 17 -53 26t-66 9q-75 0 -123.5 -34.5t-71.5 -99t-23 -154.5z" />
    <glyph glyph-name="Ugrave" unicode="&#xd9;" horiz-adv-x="689" 
d="M604 252q0 -74 -28.5 -133.5t-87 -94t-147.5 -34.5q-126 0 -191.5 72.5t-65.5 191.5v460h89v-463q0 -87 43 -135t130 -48q60 0 97 23.5t54.5 65t17.5 95.5v462h89v-462zM306 944q11 -22 27 -49.5t33.5 -53.5t31.5 -45v-12h-59q-16 14 -36 33.5t-39.5 41t-35.5 41.5
t-25 34v10h103z" />
    <glyph glyph-name="Uacute" unicode="&#xda;" horiz-adv-x="689" 
d="M604 252q0 -74 -28.5 -133.5t-87 -94t-147.5 -34.5q-126 0 -191.5 72.5t-65.5 191.5v460h89v-463q0 -87 43 -135t130 -48q60 0 97 23.5t54.5 65t17.5 95.5v462h89v-462zM492 934q-9 -14 -25.5 -34t-36 -41.5t-39.5 -41t-37 -33.5h-57v12q14 19 31 45t33 53.5t27 49.5h104
v-10z" />
    <glyph glyph-name="Ucircumflex" unicode="&#xdb;" horiz-adv-x="689" 
d="M604 252q0 -74 -28.5 -133.5t-87 -94t-147.5 -34.5q-126 0 -191.5 72.5t-65.5 191.5v460h89v-463q0 -87 43 -135t130 -48q60 0 97 23.5t54.5 65t17.5 95.5v462h89v-462zM389 944q12 -22 33 -49.5t44 -54t41 -45.5v-11h-61q-25 16 -51 39.5t-52 50.5q-25 -27 -50.5 -50
t-50.5 -40h-59v11q18 20 40 46t43 53.5t33 49.5h90z" />
    <glyph glyph-name="Udieresis" unicode="&#xdc;" horiz-adv-x="689" 
d="M604 252q0 -74 -28.5 -133.5t-87 -94t-147.5 -34.5q-126 0 -191.5 72.5t-65.5 191.5v460h89v-463q0 -87 43 -135t130 -48q60 0 97 23.5t54.5 65t17.5 95.5v462h89v-462zM211 859q0 26 13.5 37.5t32.5 11.5q18 0 31.5 -11.5t13.5 -37.5q0 -25 -13.5 -37.5t-31.5 -12.5
q-19 0 -32.5 12.5t-13.5 37.5zM388 859q0 26 13.5 37.5t31.5 11.5q19 0 32.5 -11.5t13.5 -37.5q0 -25 -13.5 -37.5t-32.5 -12.5q-18 0 -31.5 12.5t-13.5 37.5z" />
    <glyph glyph-name="Yacute" unicode="&#xdd;" horiz-adv-x="536" 
d="M268 363l172 351h96l-223 -437v-277h-89v273l-224 441h97zM415 934q-9 -14 -25.5 -34t-36 -41.5t-39.5 -41t-37 -33.5h-57v12q14 19 31 45t33 53.5t27 49.5h104v-10z" />
    <glyph glyph-name="Thorn" unicode="&#xde;" horiz-adv-x="571" 
d="M523 382q0 -60 -24.5 -111.5t-82.5 -83.5t-160 -32h-76v-155h-89v714h89v-124h90q135 0 194 -55t59 -153zM246 231q64 0 105 14.5t60.5 47t19.5 84.5q0 69 -40 102.5t-129 33.5h-82v-282h66z" />
    <glyph glyph-name="germandbls" unicode="&#xdf;" horiz-adv-x="599" 
d="M497 617q0 -34 -13.5 -59.5t-33 -45t-39 -35.5t-33 -31.5t-13.5 -33.5q0 -13 6.5 -24t24.5 -25.5t53 -39.5q34 -24 58 -48t37 -53t13 -69q0 -57 -22.5 -93t-62.5 -53t-93 -17q-44 0 -77.5 9t-58.5 25v79q16 -10 37.5 -20t46.5 -16t49 -6q50 0 72.5 23t22.5 63
q0 24 -8 42.5t-27 36.5t-53 41q-39 27 -61 48.5t-31.5 43.5t-9.5 48q0 31 13 53t32 38.5t37.5 32.5t31.5 35t13 46q0 42 -33 61t-85 19q-33 0 -61.5 -9.5t-45.5 -32.5t-17 -66v-584h-87v584q0 67 28 106.5t75.5 57t107.5 17.5q62 0 108.5 -16.5t72.5 -49t26 -82.5z" />
    <glyph glyph-name="agrave" unicode="&#xe0;" horiz-adv-x="531" 
d="M272 545q92 0 137.5 -43t45.5 -137v-365h-63l-17 76h-4q-22 -29 -44.5 -48.5t-52 -28.5t-72.5 -9q-45 0 -81 17t-57 52.5t-21 89.5q0 80 59 123.5t182 47.5l85 3v32q0 67 -26.5 93t-75.5 26q-39 0 -74.5 -12.5t-67.5 -28.5l-27 66q34 19 79 32.5t95 13.5zM296 259
q-92 -4 -127.5 -32t-35.5 -79q0 -45 25 -66t65 -21q62 0 104 37.5t42 115.5v48zM227 766q11 -22 27 -49.5t33.5 -53.5t31.5 -45v-12h-59q-16 14 -36 33.5t-39.5 41t-35.5 41.5t-25 34v10h103z" />
    <glyph glyph-name="aacute" unicode="&#xe1;" horiz-adv-x="531" 
d="M272 545q92 0 137.5 -43t45.5 -137v-365h-63l-17 76h-4q-22 -29 -44.5 -48.5t-52 -28.5t-72.5 -9q-45 0 -81 17t-57 52.5t-21 89.5q0 80 59 123.5t182 47.5l85 3v32q0 67 -26.5 93t-75.5 26q-39 0 -74.5 -12.5t-67.5 -28.5l-27 66q34 19 79 32.5t95 13.5zM296 259
q-92 -4 -127.5 -32t-35.5 -79q0 -45 25 -66t65 -21q62 0 104 37.5t42 115.5v48zM413 756q-9 -14 -25.5 -34t-36 -41.5t-39.5 -41t-37 -33.5h-57v12q14 19 31 45t33 53.5t27 49.5h104v-10z" />
    <glyph glyph-name="acircumflex" unicode="&#xe2;" horiz-adv-x="531" 
d="M272 545q92 0 137.5 -43t45.5 -137v-365h-63l-17 76h-4q-22 -29 -44.5 -48.5t-52 -28.5t-72.5 -9q-45 0 -81 17t-57 52.5t-21 89.5q0 80 59 123.5t182 47.5l85 3v32q0 67 -26.5 93t-75.5 26q-39 0 -74.5 -12.5t-67.5 -28.5l-27 66q34 19 79 32.5t95 13.5zM296 259
q-92 -4 -127.5 -32t-35.5 -79q0 -45 25 -66t65 -21q62 0 104 37.5t42 115.5v48zM310 766q12 -22 33 -49.5t44 -54t41 -45.5v-11h-61q-25 16 -51 39.5t-52 50.5q-25 -27 -50.5 -50t-50.5 -40h-59v11q18 20 40 46t43 53.5t33 49.5h90z" />
    <glyph glyph-name="atilde" unicode="&#xe3;" horiz-adv-x="531" 
d="M272 545q92 0 137.5 -43t45.5 -137v-365h-63l-17 76h-4q-22 -29 -44.5 -48.5t-52 -28.5t-72.5 -9q-45 0 -81 17t-57 52.5t-21 89.5q0 80 59 123.5t182 47.5l85 3v32q0 67 -26.5 93t-75.5 26q-39 0 -74.5 -12.5t-67.5 -28.5l-27 66q34 19 79 32.5t95 13.5zM296 259
q-92 -4 -127.5 -32t-35.5 -79q0 -45 25 -66t65 -21q62 0 104 37.5t42 115.5v48zM440 735q-6 -58 -33 -93t-71 -35q-20 0 -39 8.5t-37 20t-35 20t-32 8.5q-22 0 -33.5 -14.5t-17.5 -43.5h-50q3 30 11.5 53.5t21.5 40t31.5 25.5t40.5 9q21 0 40 -8.5t37 -20t34.5 -20
t31.5 -8.5q21 0 32.5 14.5t18.5 43.5h49z" />
    <glyph glyph-name="adieresis" unicode="&#xe4;" horiz-adv-x="531" 
d="M272 545q92 0 137.5 -43t45.5 -137v-365h-63l-17 76h-4q-22 -29 -44.5 -48.5t-52 -28.5t-72.5 -9q-45 0 -81 17t-57 52.5t-21 89.5q0 80 59 123.5t182 47.5l85 3v32q0 67 -26.5 93t-75.5 26q-39 0 -74.5 -12.5t-67.5 -28.5l-27 66q34 19 79 32.5t95 13.5zM296 259
q-92 -4 -127.5 -32t-35.5 -79q0 -45 25 -66t65 -21q62 0 104 37.5t42 115.5v48zM132 681q0 26 13.5 37.5t32.5 11.5q18 0 31.5 -11.5t13.5 -37.5q0 -25 -13.5 -37.5t-31.5 -12.5q-19 0 -32.5 12.5t-13.5 37.5zM309 681q0 26 13.5 37.5t31.5 11.5q19 0 32.5 -11.5t13.5 -37.5
q0 -25 -13.5 -37.5t-32.5 -12.5q-18 0 -31.5 12.5t-13.5 37.5z" />
    <glyph glyph-name="aring" unicode="&#xe5;" horiz-adv-x="531" 
d="M272 545q92 0 137.5 -43t45.5 -137v-365h-63l-17 76h-4q-22 -29 -44.5 -48.5t-52 -28.5t-72.5 -9q-45 0 -81 17t-57 52.5t-21 89.5q0 80 59 123.5t182 47.5l85 3v32q0 67 -26.5 93t-75.5 26q-39 0 -74.5 -12.5t-67.5 -28.5l-27 66q34 19 79 32.5t95 13.5zM296 259
q-92 -4 -127.5 -32t-35.5 -79q0 -45 25 -66t65 -21q62 0 104 37.5t42 115.5v48zM265 606q-46 0 -74.5 28t-28.5 78t28.5 77.5t74.5 27.5q45 0 75.5 -27.5t30.5 -76.5q0 -51 -30 -79t-76 -28zM265 656q23 0 37.5 15t14.5 41t-14.5 41t-37.5 15q-22 0 -37 -15t-15 -41
t13.5 -41t38.5 -15z" />
    <glyph glyph-name="ae" unicode="&#xe6;" horiz-adv-x="816" 
d="M570 546q61 0 105.5 -30t69 -84t24.5 -126v-54h-323q2 -96 38.5 -141.5t105.5 -45.5q47 0 83 9.5t73 27.5v-77q-37 -18 -74 -26.5t-85 -8.5q-43 0 -79.5 12.5t-64.5 38t-48 62.5q-22 -34 -47.5 -59.5t-60.5 -39.5t-84 -14q-45 0 -81.5 17t-57.5 52.5t-21 89.5t25 91
t76 57.5t128 22.5l85 3v34q0 65 -28 91t-75 26q-37 0 -73.5 -12t-67.5 -29l-27 66q34 20 81 33t93 13q59 0 97 -20.5t58 -65.5q25 41 64.5 64t90.5 23zM286 259q-86 -4 -119.5 -32t-33.5 -79q0 -45 23.5 -66t62.5 -21t69.5 16.5t48.5 50.5t18 86v48zM569 474
q-54 0 -85.5 -39.5t-36.5 -113.5h231q0 46 -12 80.5t-36 53.5t-61 19z" />
    <glyph glyph-name="ccedilla" unicode="&#xe7;" horiz-adv-x="454" 
d="M282 -10q-68 0 -120 29t-81.5 90t-29.5 156q0 99 31 161t84.5 91t121.5 29q39 0 75.5 -8.5t59.5 -20.5l-27 -73q-23 9 -53.5 17t-56.5 8q-49 0 -81 -23t-48 -68t-16 -112q0 -64 16 -109t47.5 -68t77.5 -23q41 0 73 9t59 22v-78q-26 -14 -57 -21.5t-75 -7.5zM369 -139
q0 -32 -15.5 -54.5t-46 -34.5t-77.5 -12q-15 0 -28 1.5t-21 3.5v55q9 -2 23.5 -3.5t27.5 -1.5q32 0 49.5 9.5t17.5 34.5q0 26 -24 38t-61 17l40 86h57l-23 -53q22 -5 40.5 -15.5t29.5 -27.5t11 -43z" />
    <glyph glyph-name="egrave" unicode="&#xe8;" horiz-adv-x="532" 
d="M275 546q65 0 112 -30t72.5 -84.5t25.5 -127.5v-53h-344q2 -91 43 -138.5t115 -47.5q48 0 85.5 9.5t77.5 27.5v-77q-39 -18 -76.5 -26.5t-90.5 -8.5q-72 0 -127 31t-86 92.5t-31 150.5q0 88 28 151t78.5 97t117.5 34zM275 474q-58 0 -92 -40.5t-40 -112.5h252
q0 46 -13 80t-39.5 53.5t-67.5 19.5zM230 766q11 -22 27 -49.5t33.5 -53.5t31.5 -45v-12h-59q-16 14 -36 33.5t-39.5 41t-35.5 41.5t-25 34v10h103z" />
    <glyph glyph-name="eacute" unicode="&#xe9;" horiz-adv-x="532" 
d="M275 546q65 0 112 -30t72.5 -84.5t25.5 -127.5v-53h-344q2 -91 43 -138.5t115 -47.5q48 0 85.5 9.5t77.5 27.5v-77q-39 -18 -76.5 -26.5t-90.5 -8.5q-72 0 -127 31t-86 92.5t-31 150.5q0 88 28 151t78.5 97t117.5 34zM275 474q-58 0 -92 -40.5t-40 -112.5h252
q0 46 -13 80t-39.5 53.5t-67.5 19.5zM416 756q-9 -14 -25.5 -34t-36 -41.5t-39.5 -41t-37 -33.5h-57v12q14 19 31 45t33 53.5t27 49.5h104v-10z" />
    <glyph glyph-name="ecircumflex" unicode="&#xea;" horiz-adv-x="532" 
d="M275 546q65 0 112 -30t72.5 -84.5t25.5 -127.5v-53h-344q2 -91 43 -138.5t115 -47.5q48 0 85.5 9.5t77.5 27.5v-77q-39 -18 -76.5 -26.5t-90.5 -8.5q-72 0 -127 31t-86 92.5t-31 150.5q0 88 28 151t78.5 97t117.5 34zM275 474q-58 0 -92 -40.5t-40 -112.5h252
q0 46 -13 80t-39.5 53.5t-67.5 19.5zM313 766q12 -22 33 -49.5t44 -54t41 -45.5v-11h-61q-25 16 -51 39.5t-52 50.5q-25 -27 -50.5 -50t-50.5 -40h-59v11q18 20 40 46t43 53.5t33 49.5h90z" />
    <glyph glyph-name="edieresis" unicode="&#xeb;" horiz-adv-x="532" 
d="M275 546q65 0 112 -30t72.5 -84.5t25.5 -127.5v-53h-344q2 -91 43 -138.5t115 -47.5q48 0 85.5 9.5t77.5 27.5v-77q-39 -18 -76.5 -26.5t-90.5 -8.5q-72 0 -127 31t-86 92.5t-31 150.5q0 88 28 151t78.5 97t117.5 34zM275 474q-58 0 -92 -40.5t-40 -112.5h252
q0 46 -13 80t-39.5 53.5t-67.5 19.5zM135 681q0 26 13.5 37.5t32.5 11.5q18 0 31.5 -11.5t13.5 -37.5q0 -25 -13.5 -37.5t-31.5 -12.5q-19 0 -32.5 12.5t-13.5 37.5zM312 681q0 26 13.5 37.5t31.5 11.5q19 0 32.5 -11.5t13.5 -37.5q0 -25 -13.5 -37.5t-32.5 -12.5
q-18 0 -31.5 12.5t-13.5 37.5z" />
    <glyph glyph-name="igrave" unicode="&#xec;" horiz-adv-x="245" 
d="M166 0h-87v536h87v-536zM84 766q11 -22 27 -49.5t33.5 -53.5t31.5 -45v-12h-59q-16 14 -36 33.5t-39.5 41t-35.5 41.5t-25 34v10h103z" />
    <glyph glyph-name="iacute" unicode="&#xed;" horiz-adv-x="245" 
d="M166 0h-87v536h87v-536zM270 756q-9 -14 -25.5 -34t-36 -41.5t-39.5 -41t-37 -33.5h-57v12q14 19 31 45t33 53.5t27 49.5h104v-10z" />
    <glyph glyph-name="icircumflex" unicode="&#xee;" horiz-adv-x="245" 
d="M166 0h-87v536h87v-536zM167 766q12 -22 33 -49.5t44 -54t41 -45.5v-11h-61q-25 16 -51 39.5t-52 50.5q-25 -27 -50.5 -50t-50.5 -40h-59v11q18 20 40 46t43 53.5t33 49.5h90z" />
    <glyph glyph-name="idieresis" unicode="&#xef;" horiz-adv-x="245" 
d="M166 0h-87v536h87v-536zM-11 681q0 26 13.5 37.5t32.5 11.5q18 0 31.5 -11.5t13.5 -37.5q0 -25 -13.5 -37.5t-31.5 -12.5q-19 0 -32.5 12.5t-13.5 37.5zM166 681q0 26 13.5 37.5t31.5 11.5q19 0 32.5 -11.5t13.5 -37.5q0 -25 -13.5 -37.5t-32.5 -12.5q-18 0 -31.5 12.5
t-13.5 37.5z" />
    <glyph glyph-name="eth" unicode="&#xf0;" horiz-adv-x="570" 
d="M204 765q30 -15 60.5 -33t57.5 -39l108 67l36 -54l-92 -57q43 -42 76 -98.5t51.5 -125.5t18.5 -150q0 -95 -28.5 -158.5t-81.5 -95t-127 -31.5q-68 0 -120.5 29.5t-82 84t-29.5 129.5t27 128.5t77 82.5t117 29q33 0 60.5 -6t49 -19t35.5 -33l4 2q-15 57 -45.5 105
t-69.5 86l-121 -75l-36 55l103 64q-19 14 -40 27.5t-43 25.5zM285 402q-51 0 -83.5 -20t-47.5 -58t-15 -94q0 -49 15.5 -87t47.5 -59.5t83 -21.5q77 0 111.5 48.5t34.5 140.5q0 31 -9 58.5t-26.5 48t-45 32.5t-65.5 12z" />
    <glyph glyph-name="ntilde" unicode="&#xf1;" horiz-adv-x="584" 
d="M325 546q90 0 136.5 -46.5t46.5 -150.5v-349h-87v343q0 65 -27 97t-83 32q-82 0 -113.5 -50t-31.5 -144v-278h-87v536h70l13 -73h5q16 28 41 46.5t55 27.5t62 9zM466 735q-6 -58 -33 -93t-71 -35q-20 0 -39 8.5t-37 20t-35 20t-32 8.5q-22 0 -33.5 -14.5t-17.5 -43.5h-50
q3 30 11.5 53.5t21.5 40t31.5 25.5t40.5 9q21 0 40 -8.5t37 -20t34.5 -20t31.5 -8.5q21 0 32.5 14.5t18.5 43.5h49z" />
    <glyph glyph-name="ograve" unicode="&#xf2;" horiz-adv-x="570" 
d="M520 269q0 -67 -16.5 -118.5t-47.5 -87.5t-75 -54.5t-98 -18.5q-50 0 -92.5 18.5t-74 54.5t-48.5 87.5t-17 118.5q0 89 28.5 150.5t81.5 94t125 32.5q69 0 121.5 -32.5t82.5 -94t30 -150.5zM141 269q0 -63 15 -109.5t47 -71.5t82 -25t82 25t47.5 71.5t15.5 109.5
q0 64 -15.5 109t-47.5 69.5t-83 24.5q-75 0 -109 -54t-34 -149zM246 766q11 -22 27 -49.5t33.5 -53.5t31.5 -45v-12h-59q-16 14 -36 33.5t-39.5 41t-35.5 41.5t-25 34v10h103z" />
    <glyph glyph-name="oacute" unicode="&#xf3;" horiz-adv-x="570" 
d="M520 269q0 -67 -16.5 -118.5t-47.5 -87.5t-75 -54.5t-98 -18.5q-50 0 -92.5 18.5t-74 54.5t-48.5 87.5t-17 118.5q0 89 28.5 150.5t81.5 94t125 32.5q69 0 121.5 -32.5t82.5 -94t30 -150.5zM141 269q0 -63 15 -109.5t47 -71.5t82 -25t82 25t47.5 71.5t15.5 109.5
q0 64 -15.5 109t-47.5 69.5t-83 24.5q-75 0 -109 -54t-34 -149zM432 756q-9 -14 -25.5 -34t-36 -41.5t-39.5 -41t-37 -33.5h-57v12q14 19 31 45t33 53.5t27 49.5h104v-10z" />
    <glyph glyph-name="ocircumflex" unicode="&#xf4;" horiz-adv-x="570" 
d="M520 269q0 -67 -16.5 -118.5t-47.5 -87.5t-75 -54.5t-98 -18.5q-50 0 -92.5 18.5t-74 54.5t-48.5 87.5t-17 118.5q0 89 28.5 150.5t81.5 94t125 32.5q69 0 121.5 -32.5t82.5 -94t30 -150.5zM141 269q0 -63 15 -109.5t47 -71.5t82 -25t82 25t47.5 71.5t15.5 109.5
q0 64 -15.5 109t-47.5 69.5t-83 24.5q-75 0 -109 -54t-34 -149zM329 766q12 -22 33 -49.5t44 -54t41 -45.5v-11h-61q-25 16 -51 39.5t-52 50.5q-25 -27 -50.5 -50t-50.5 -40h-59v11q18 20 40 46t43 53.5t33 49.5h90z" />
    <glyph glyph-name="otilde" unicode="&#xf5;" horiz-adv-x="570" 
d="M520 269q0 -67 -16.5 -118.5t-47.5 -87.5t-75 -54.5t-98 -18.5q-50 0 -92.5 18.5t-74 54.5t-48.5 87.5t-17 118.5q0 89 28.5 150.5t81.5 94t125 32.5q69 0 121.5 -32.5t82.5 -94t30 -150.5zM141 269q0 -63 15 -109.5t47 -71.5t82 -25t82 25t47.5 71.5t15.5 109.5
q0 64 -15.5 109t-47.5 69.5t-83 24.5q-75 0 -109 -54t-34 -149zM459 735q-6 -58 -33 -93t-71 -35q-20 0 -39 8.5t-37 20t-35 20t-32 8.5q-22 0 -33.5 -14.5t-17.5 -43.5h-50q3 30 11.5 53.5t21.5 40t31.5 25.5t40.5 9q21 0 40 -8.5t37 -20t34.5 -20t31.5 -8.5
q21 0 32.5 14.5t18.5 43.5h49z" />
    <glyph glyph-name="odieresis" unicode="&#xf6;" horiz-adv-x="570" 
d="M520 269q0 -67 -16.5 -118.5t-47.5 -87.5t-75 -54.5t-98 -18.5q-50 0 -92.5 18.5t-74 54.5t-48.5 87.5t-17 118.5q0 89 28.5 150.5t81.5 94t125 32.5q69 0 121.5 -32.5t82.5 -94t30 -150.5zM141 269q0 -63 15 -109.5t47 -71.5t82 -25t82 25t47.5 71.5t15.5 109.5
q0 64 -15.5 109t-47.5 69.5t-83 24.5q-75 0 -109 -54t-34 -149zM151 681q0 26 13.5 37.5t32.5 11.5q18 0 31.5 -11.5t13.5 -37.5q0 -25 -13.5 -37.5t-31.5 -12.5q-19 0 -32.5 12.5t-13.5 37.5zM328 681q0 26 13.5 37.5t31.5 11.5q19 0 32.5 -11.5t13.5 -37.5
q0 -25 -13.5 -37.5t-32.5 -12.5q-18 0 -31.5 12.5t-13.5 37.5z" />
    <glyph glyph-name="divide" unicode="&#xf7;" horiz-adv-x="537" 
d="M46 317v71h444v-71h-444zM267 121q-22 0 -37.5 14.5t-15.5 46.5q0 34 15.5 47t37.5 13t37.5 -13t15.5 -47q0 -32 -15.5 -46.5t-37.5 -14.5zM267 462q-22 0 -37.5 14.5t-15.5 46.5q0 34 15.5 47t37.5 13t37.5 -13t15.5 -47q0 -32 -15.5 -46.5t-37.5 -14.5z" />
    <glyph glyph-name="oslash" unicode="&#xf8;" horiz-adv-x="570" 
d="M520 269q0 -89 -29 -151.5t-82 -95t-126 -32.5q-34 0 -64 8.5t-56 24.5l-37 -56l-56 39l42 62q-29 36 -45 86.5t-16 114.5q0 133 63 205t172 72q35 0 66 -9.5t57 -26.5l35 56l57 -38l-41 -63q28 -35 44 -84.5t16 -111.5zM141 269q0 -38 5 -70.5t16 -57.5l203 306
q-16 12 -36.5 18.5t-44.5 6.5q-75 0 -109 -54t-34 -149zM430 269q0 37 -5 68t-16 55l-202 -306q16 -11 36 -17t42 -6q50 0 82 25t47.5 71.5t15.5 109.5z" />
    <glyph glyph-name="ugrave" unicode="&#xf9;" horiz-adv-x="583" 
d="M504 536v-536h-70l-13 71h-4q-16 -28 -41.5 -46t-55.5 -26.5t-63 -8.5q-60 0 -101 20.5t-61.5 63.5t-20.5 111v351h88v-345q0 -64 27 -96t83 -32q55 0 86.5 22.5t45 66t13.5 105.5v279h87zM253 766q11 -22 27 -49.5t33.5 -53.5t31.5 -45v-12h-59q-16 14 -36 33.5
t-39.5 41t-35.5 41.5t-25 34v10h103z" />
    <glyph glyph-name="uacute" unicode="&#xfa;" horiz-adv-x="583" 
d="M504 536v-536h-70l-13 71h-4q-16 -28 -41.5 -46t-55.5 -26.5t-63 -8.5q-60 0 -101 20.5t-61.5 63.5t-20.5 111v351h88v-345q0 -64 27 -96t83 -32q55 0 86.5 22.5t45 66t13.5 105.5v279h87zM439 756q-9 -14 -25.5 -34t-36 -41.5t-39.5 -41t-37 -33.5h-57v12q14 19 31 45
t33 53.5t27 49.5h104v-10z" />
    <glyph glyph-name="ucircumflex" unicode="&#xfb;" horiz-adv-x="583" 
d="M504 536v-536h-70l-13 71h-4q-16 -28 -41.5 -46t-55.5 -26.5t-63 -8.5q-60 0 -101 20.5t-61.5 63.5t-20.5 111v351h88v-345q0 -64 27 -96t83 -32q55 0 86.5 22.5t45 66t13.5 105.5v279h87zM336 766q12 -22 33 -49.5t44 -54t41 -45.5v-11h-61q-25 16 -51 39.5t-52 50.5
q-25 -27 -50.5 -50t-50.5 -40h-59v11q18 20 40 46t43 53.5t33 49.5h90z" />
    <glyph glyph-name="udieresis" unicode="&#xfc;" horiz-adv-x="583" 
d="M504 536v-536h-70l-13 71h-4q-16 -28 -41.5 -46t-55.5 -26.5t-63 -8.5q-60 0 -101 20.5t-61.5 63.5t-20.5 111v351h88v-345q0 -64 27 -96t83 -32q55 0 86.5 22.5t45 66t13.5 105.5v279h87zM158 681q0 26 13.5 37.5t32.5 11.5q18 0 31.5 -11.5t13.5 -37.5
q0 -25 -13.5 -37.5t-31.5 -12.5q-19 0 -32.5 12.5t-13.5 37.5zM335 681q0 26 13.5 37.5t31.5 11.5q19 0 32.5 -11.5t13.5 -37.5q0 -25 -13.5 -37.5t-32.5 -12.5q-18 0 -31.5 12.5t-13.5 37.5z" />
    <glyph glyph-name="yacute" unicode="&#xfd;" horiz-adv-x="484" 
d="M1 536h94l107 -305q10 -27 18 -52t14 -48.5t9 -45.5h3q6 25 17.5 65.5t24.5 81.5l101 304h95l-217 -610q-18 -50 -42.5 -87.5t-59.5 -58t-84 -20.5q-22 0 -39.5 2.5t-29.5 5.5v70q10 -2 25 -4t31 -2q29 0 50 11.5t36 33t25 50.5l25 71zM389 756q-9 -14 -25.5 -34
t-36 -41.5t-39.5 -41t-37 -33.5h-57v12q14 19 31 45t33 53.5t27 49.5h104v-10z" />
    <glyph glyph-name="thorn" unicode="&#xfe;" horiz-adv-x="579" 
d="M528 269q0 -91 -25.5 -153.5t-72 -94t-108.5 -31.5q-39 0 -68.5 10.5t-51 28.5t-36.5 39h-6q1 -7 2.5 -23t2.5 -33t1 -28v-224h-87v1000h87v-224q0 -14 -1 -36.5t-2 -35.5h4q15 23 36 41.5t50 29.5t69 11q93 0 149.5 -70t56.5 -207zM438 270q0 101 -32 151.5t-100 50.5
q-76 0 -108 -46t-32 -138v-19q0 -99 30 -152.5t111 -53.5q45 0 74 24t43 70.5t14 112.5z" />
    <glyph glyph-name="ydieresis" unicode="&#xff;" horiz-adv-x="484" 
d="M1 536h94l107 -305q10 -27 18 -52t14 -48.5t9 -45.5h3q6 25 17.5 65.5t24.5 81.5l101 304h95l-217 -610q-18 -50 -42.5 -87.5t-59.5 -58t-84 -20.5q-22 0 -39.5 2.5t-29.5 5.5v70q10 -2 25 -4t31 -2q29 0 50 11.5t36 33t25 50.5l25 71zM108 681q0 26 13.5 37.5t32.5 11.5
q18 0 31.5 -11.5t13.5 -37.5q0 -25 -13.5 -37.5t-31.5 -12.5q-19 0 -32.5 12.5t-13.5 37.5zM285 681q0 26 13.5 37.5t31.5 11.5q19 0 32.5 -11.5t13.5 -37.5q0 -25 -13.5 -37.5t-32.5 -12.5q-18 0 -31.5 12.5t-13.5 37.5z" />
    <glyph glyph-name="Amacron" unicode="&#x100;" horiz-adv-x="604" 
d="M511 0l-78 221h-265l-77 -221h-91l260 717h84l259 -717h-92zM333 517q-2 8 -8.5 29t-13 43.5t-10.5 34.5q-7 -31 -15.5 -60.5t-14.5 -46.5l-74 -216h210zM441 855v-71h-282v71h282z" />
    <glyph glyph-name="amacron" unicode="&#x101;" horiz-adv-x="531" 
d="M272 545q92 0 137.5 -43t45.5 -137v-365h-63l-17 76h-4q-22 -29 -44.5 -48.5t-52 -28.5t-72.5 -9q-45 0 -81 17t-57 52.5t-21 89.5q0 80 59 123.5t182 47.5l85 3v32q0 67 -26.5 93t-75.5 26q-39 0 -74.5 -12.5t-67.5 -28.5l-27 66q34 19 79 32.5t95 13.5zM296 259
q-92 -4 -127.5 -32t-35.5 -79q0 -45 25 -66t65 -21q62 0 104 37.5t42 115.5v48zM406 677v-71h-282v71h282z" />
    <glyph glyph-name="Abreve" unicode="&#x102;" horiz-adv-x="604" 
d="M511 0l-78 221h-265l-77 -221h-91l260 717h84l259 -717h-92zM333 517q-2 8 -8.5 29t-13 43.5t-10.5 34.5q-7 -31 -15.5 -60.5t-14.5 -46.5l-74 -216h210zM450 918q-3 -40 -21.5 -70t-51 -47t-78.5 -17q-71 0 -107 36.5t-40 97.5h53q3 -27 14.5 -40.5t32 -18t48.5 -4.5
q37 0 64 12t32 51h54z" />
    <glyph glyph-name="abreve" unicode="&#x103;" horiz-adv-x="531" 
d="M272 545q92 0 137.5 -43t45.5 -137v-365h-63l-17 76h-4q-22 -29 -44.5 -48.5t-52 -28.5t-72.5 -9q-45 0 -81 17t-57 52.5t-21 89.5q0 80 59 123.5t182 47.5l85 3v32q0 67 -26.5 93t-75.5 26q-39 0 -74.5 -12.5t-67.5 -28.5l-27 66q34 19 79 32.5t95 13.5zM296 259
q-92 -4 -127.5 -32t-35.5 -79q0 -45 25 -66t65 -21q62 0 104 37.5t42 115.5v48zM415 740q-3 -40 -21.5 -70t-51 -47t-78.5 -17q-71 0 -107 36.5t-40 97.5h53q3 -27 14.5 -40.5t32 -18t48.5 -4.5q37 0 64 12t32 51h54z" />
    <glyph glyph-name="Aogonek" unicode="&#x104;" horiz-adv-x="604" 
d="M511 0l-78 221h-265l-77 -221h-91l260 717h84l259 -717h-92zM333 517q-2 8 -8.5 29t-13 43.5t-10.5 34.5q-7 -31 -15.5 -60.5t-14.5 -46.5l-74 -216h210zM541 -116q0 -22 11.5 -33.5t30.5 -11.5q15 0 26.5 2.5t18.5 3.5v-56q-13 -4 -26.5 -6.5t-32.5 -2.5q-33 0 -55 11
t-32.5 32.5t-10.5 50.5t14 56t34.5 49t39.5 36l46 -15q-31 -32 -47.5 -58.5t-16.5 -57.5z" />
    <glyph glyph-name="aogonek" unicode="&#x105;" horiz-adv-x="531" 
d="M272 545q92 0 137.5 -43t45.5 -137v-365h-63l-17 76h-4q-22 -29 -44.5 -48.5t-52 -28.5t-72.5 -9q-45 0 -81 17t-57 52.5t-21 89.5q0 80 59 123.5t182 47.5l85 3v32q0 67 -26.5 93t-75.5 26q-39 0 -74.5 -12.5t-67.5 -28.5l-27 66q34 19 79 32.5t95 13.5zM296 259
q-92 -4 -127.5 -32t-35.5 -79q0 -45 25 -66t65 -21q62 0 104 37.5t42 115.5v48zM408 -116q0 -22 11.5 -33.5t30.5 -11.5q15 0 26.5 2.5t18.5 3.5v-56q-13 -4 -26.5 -6.5t-32.5 -2.5q-33 0 -55 11t-32.5 32.5t-10.5 50.5t14 56t34.5 49t39.5 36l46 -15q-31 -32 -47.5 -58.5
t-16.5 -57.5z" />
    <glyph glyph-name="Cacute" unicode="&#x106;" horiz-adv-x="594" 
d="M378 645q-53 0 -95 -19.5t-71.5 -57t-45 -91t-15.5 -120.5q0 -88 25 -153t75.5 -100t125.5 -35q44 0 83.5 8t78.5 20v-78q-38 -15 -78 -22t-96 -7q-103 0 -171.5 45t-102.5 128t-34 195q0 81 21 148t62 116t101 75.5t138 26.5q51 0 99 -11t87 -31l-35 -76
q-31 15 -69.5 27t-82.5 12zM504 934q-9 -14 -25.5 -34t-36 -41.5t-39.5 -41t-37 -33.5h-57v12q14 19 31 45t33 53.5t27 49.5h104v-10z" />
    <glyph glyph-name="cacute" unicode="&#x107;" horiz-adv-x="454" 
d="M282 -10q-68 0 -120 29t-81.5 90t-29.5 156q0 99 31 161t84.5 91t121.5 29q39 0 75.5 -8.5t59.5 -20.5l-27 -73q-23 9 -53.5 17t-56.5 8q-49 0 -81 -23t-48 -68t-16 -112q0 -64 16 -109t47.5 -68t77.5 -23q41 0 73 9t59 22v-78q-26 -14 -57 -21.5t-75 -7.5zM414 756
q-9 -14 -25.5 -34t-36 -41.5t-39.5 -41t-37 -33.5h-57v12q14 19 31 45t33 53.5t27 49.5h104v-10z" />
    <glyph glyph-name="Ccircumflex" unicode="&#x108;" horiz-adv-x="594" 
d="M378 645q-53 0 -95 -19.5t-71.5 -57t-45 -91t-15.5 -120.5q0 -88 25 -153t75.5 -100t125.5 -35q44 0 83.5 8t78.5 20v-78q-38 -15 -78 -22t-96 -7q-103 0 -171.5 45t-102.5 128t-34 195q0 81 21 148t62 116t101 75.5t138 26.5q51 0 99 -11t87 -31l-35 -76
q-31 15 -69.5 27t-82.5 12zM401 944q12 -22 33 -49.5t44 -54t41 -45.5v-11h-61q-25 16 -51 39.5t-52 50.5q-25 -27 -50.5 -50t-50.5 -40h-59v11q18 20 40 46t43 53.5t33 49.5h90z" />
    <glyph glyph-name="ccircumflex" unicode="&#x109;" horiz-adv-x="454" 
d="M282 -10q-68 0 -120 29t-81.5 90t-29.5 156q0 99 31 161t84.5 91t121.5 29q39 0 75.5 -8.5t59.5 -20.5l-27 -73q-23 9 -53.5 17t-56.5 8q-49 0 -81 -23t-48 -68t-16 -112q0 -64 16 -109t47.5 -68t77.5 -23q41 0 73 9t59 22v-78q-26 -14 -57 -21.5t-75 -7.5zM311 766
q12 -22 33 -49.5t44 -54t41 -45.5v-11h-61q-25 16 -51 39.5t-52 50.5q-25 -27 -50.5 -50t-50.5 -40h-59v11q18 20 40 46t43 53.5t33 49.5h90z" />
    <glyph glyph-name="Cdot" unicode="&#x10a;" horiz-adv-x="594" 
d="M378 645q-53 0 -95 -19.5t-71.5 -57t-45 -91t-15.5 -120.5q0 -88 25 -153t75.5 -100t125.5 -35q44 0 83.5 8t78.5 20v-78q-38 -15 -78 -22t-96 -7q-103 0 -171.5 45t-102.5 128t-34 195q0 81 21 148t62 116t101 75.5t138 26.5q51 0 99 -11t87 -31l-35 -76
q-31 15 -69.5 27t-82.5 12zM357 915q20 0 35 -13.5t15 -42.5q0 -28 -15 -42t-35 -14q-21 0 -36 14t-15 42q0 29 15 42.5t36 13.5z" />
    <glyph glyph-name="cdot" unicode="&#x10b;" horiz-adv-x="454" 
d="M282 -10q-68 0 -120 29t-81.5 90t-29.5 156q0 99 31 161t84.5 91t121.5 29q39 0 75.5 -8.5t59.5 -20.5l-27 -73q-23 9 -53.5 17t-56.5 8q-49 0 -81 -23t-48 -68t-16 -112q0 -64 16 -109t47.5 -68t77.5 -23q41 0 73 9t59 22v-78q-26 -14 -57 -21.5t-75 -7.5zM267 737
q20 0 35 -13.5t15 -42.5q0 -28 -15 -42t-35 -14q-21 0 -36 14t-15 42q0 29 15 42.5t36 13.5z" />
    <glyph glyph-name="Ccaron" unicode="&#x10c;" horiz-adv-x="594" 
d="M378 645q-53 0 -95 -19.5t-71.5 -57t-45 -91t-15.5 -120.5q0 -88 25 -153t75.5 -100t125.5 -35q44 0 83.5 8t78.5 20v-78q-38 -15 -78 -22t-96 -7q-103 0 -171.5 45t-102.5 128t-34 195q0 81 21 148t62 116t101 75.5t138 26.5q51 0 99 -11t87 -31l-35 -76
q-31 15 -69.5 27t-82.5 12zM519 931q-18 -19 -41 -45t-44 -52.5t-33 -49.5h-90q-12 23 -33 49.5t-43.5 52.5t-39.5 45v13h59q25 -17 51.5 -41t49.5 -51q26 27 52 51t51 41h61v-13z" />
    <glyph glyph-name="ccaron" unicode="&#x10d;" horiz-adv-x="454" 
d="M282 -10q-68 0 -120 29t-81.5 90t-29.5 156q0 99 31 161t84.5 91t121.5 29q39 0 75.5 -8.5t59.5 -20.5l-27 -73q-23 9 -53.5 17t-56.5 8q-49 0 -81 -23t-48 -68t-16 -112q0 -64 16 -109t47.5 -68t77.5 -23q41 0 73 9t59 22v-78q-26 -14 -57 -21.5t-75 -7.5zM429 753
q-18 -19 -41 -45t-44 -52.5t-33 -49.5h-90q-12 23 -33 49.5t-43.5 52.5t-39.5 45v13h59q25 -17 51.5 -41t49.5 -51q26 27 52 51t51 41h61v-13z" />
    <glyph glyph-name="Dcaron" unicode="&#x10e;" horiz-adv-x="687" 
d="M630 364q0 -120 -42 -201t-120.5 -122t-189.5 -41h-187v714h207q102 0 176.5 -40t115 -117.5t40.5 -192.5zM536 361q0 95 -29 156t-84.5 90.5t-135.5 29.5h-107v-560h89q134 0 200.5 71.5t66.5 212.5zM502 931q-18 -19 -41 -45t-44 -52.5t-33 -49.5h-90q-12 23 -33 49.5
t-43.5 52.5t-39.5 45v13h59q25 -17 51.5 -41t49.5 -51q26 27 52 51t51 41h61v-13z" />
    <glyph glyph-name="dcaron" unicode="&#x10f;" horiz-adv-x="615" 
d="M671 751q-4 -18 -15 -45t-25 -55.5t-28 -50.5h-48v12q5 14 9.5 33t8.5 39.5t7.5 40t5.5 35.5h85v-9zM257 -10q-93 0 -149.5 69.5t-56.5 207.5t57 208.5t150 70.5q39 0 68 -10.5t50.5 -28.5t36.5 -40h6q-1 13 -3.5 38.5t-2.5 40.5v214h87v-760h-70l-13 72h-4
q-15 -23 -36.5 -41.5t-51 -29.5t-68.5 -11zM273 63q78 0 109.5 46.5t31.5 140.5v16q0 100 -30 153.5t-112 53.5q-66 0 -98.5 -56.5t-32.5 -151.5q0 -96 32.5 -149t99.5 -53z" />
    <glyph glyph-name="Dcroat" unicode="&#x110;" horiz-adv-x="687" 
d="M298 714q101 0 175.5 -40t115.5 -117.5t41 -192.5q0 -120 -42 -201t-120.5 -122t-190.5 -41h-180v314h-69v78h69v322h201zM287 637h-101v-245h163v-78h-163v-237h83q134 0 200.5 71.5t66.5 212.5q0 143 -65 209.5t-184 66.5z" />
    <glyph glyph-name="dcroat" unicode="&#x111;" horiz-adv-x="582" 
d="M257 -10q-94 0 -150 69.5t-56 205.5q0 140 57 209t149 69q40 0 69 -10.5t50.5 -28.5t36.5 -40h6q-2 13 -4 38.5t-2 41.5v61h-196v66h196v89h87v-89h71v-66h-71v-605h-71l-13 72h-4q-15 -23 -36.5 -41.5t-50.5 -29.5t-68 -11zM274 63q77 0 108.5 46t31.5 139v17
q0 101 -30 153t-112 52q-66 0 -98 -55t-32 -151t32.5 -148.5t99.5 -52.5z" />
    <glyph glyph-name="Emacron" unicode="&#x112;" horiz-adv-x="523" 
d="M467 0h-376v714h376v-79h-287v-223h270v-78h-270v-255h287v-79zM427 855v-71h-282v71h282z" />
    <glyph glyph-name="emacron" unicode="&#x113;" horiz-adv-x="532" 
d="M275 546q65 0 112 -30t72.5 -84.5t25.5 -127.5v-53h-344q2 -91 43 -138.5t115 -47.5q48 0 85.5 9.5t77.5 27.5v-77q-39 -18 -76.5 -26.5t-90.5 -8.5q-72 0 -127 31t-86 92.5t-31 150.5q0 88 28 151t78.5 97t117.5 34zM275 474q-58 0 -92 -40.5t-40 -112.5h252
q0 46 -13 80t-39.5 53.5t-67.5 19.5zM409 677v-71h-282v71h282z" />
    <glyph glyph-name="Ebreve" unicode="&#x114;" horiz-adv-x="523" 
d="M467 0h-376v714h376v-79h-287v-223h270v-78h-270v-255h287v-79zM436 918q-3 -40 -21.5 -70t-51 -47t-78.5 -17q-71 0 -107 36.5t-40 97.5h53q3 -27 14.5 -40.5t32 -18t48.5 -4.5q37 0 64 12t32 51h54z" />
    <glyph glyph-name="ebreve" unicode="&#x115;" horiz-adv-x="532" 
d="M275 546q65 0 112 -30t72.5 -84.5t25.5 -127.5v-53h-344q2 -91 43 -138.5t115 -47.5q48 0 85.5 9.5t77.5 27.5v-77q-39 -18 -76.5 -26.5t-90.5 -8.5q-72 0 -127 31t-86 92.5t-31 150.5q0 88 28 151t78.5 97t117.5 34zM275 474q-58 0 -92 -40.5t-40 -112.5h252
q0 46 -13 80t-39.5 53.5t-67.5 19.5zM418 740q-3 -40 -21.5 -70t-51 -47t-78.5 -17q-71 0 -107 36.5t-40 97.5h53q3 -27 14.5 -40.5t32 -18t48.5 -4.5q37 0 64 12t32 51h54z" />
    <glyph glyph-name="Edotaccent" unicode="&#x116;" horiz-adv-x="523" 
d="M467 0h-376v714h376v-79h-287v-223h270v-78h-270v-255h287v-79zM287 915q20 0 35 -13.5t15 -42.5q0 -28 -15 -42t-35 -14q-21 0 -36 14t-15 42q0 29 15 42.5t36 13.5z" />
    <glyph glyph-name="edotaccent" unicode="&#x117;" horiz-adv-x="532" 
d="M275 546q65 0 112 -30t72.5 -84.5t25.5 -127.5v-53h-344q2 -91 43 -138.5t115 -47.5q48 0 85.5 9.5t77.5 27.5v-77q-39 -18 -76.5 -26.5t-90.5 -8.5q-72 0 -127 31t-86 92.5t-31 150.5q0 88 28 151t78.5 97t117.5 34zM275 474q-58 0 -92 -40.5t-40 -112.5h252
q0 46 -13 80t-39.5 53.5t-67.5 19.5zM269 737q20 0 35 -13.5t15 -42.5q0 -28 -15 -42t-35 -14q-21 0 -36 14t-15 42q0 29 15 42.5t36 13.5z" />
    <glyph glyph-name="Eogonek" unicode="&#x118;" horiz-adv-x="523" 
d="M467 0h-376v714h376v-79h-287v-223h270v-78h-270v-255h287v-79zM394 -116q0 -22 11.5 -33.5t30.5 -11.5q15 0 26.5 2.5t18.5 3.5v-56q-13 -4 -26.5 -6.5t-32.5 -2.5q-33 0 -55 11t-32.5 32.5t-10.5 50.5t14 56t34.5 49t39.5 36l46 -15q-31 -32 -47.5 -58.5t-16.5 -57.5z
" />
    <glyph glyph-name="eogonek" unicode="&#x119;" horiz-adv-x="532" 
d="M359 -116q0 -22 12 -33.5t33 -11.5q17 0 28.5 2.5t19.5 3.5v-56q-14 -4 -28 -6.5t-34 -2.5q-53 0 -78 25t-25 69q0 29 14.5 56t36 49t41.5 36l80 10q-40 -32 -62 -56t-30 -44t-8 -41zM275 546q65 0 112 -30t72.5 -84.5t25.5 -127.5v-53h-344q2 -91 43 -138.5t115 -47.5
q48 0 85.5 9.5t77.5 27.5v-77q-39 -18 -76.5 -26.5t-90.5 -8.5q-72 0 -127 31t-86 92.5t-31 150.5q0 88 28 151t78.5 97t117.5 34zM275 474q-58 0 -92 -40.5t-40 -112.5h252q0 46 -13 80t-39.5 53.5t-67.5 19.5z" />
    <glyph glyph-name="Ecaron" unicode="&#x11a;" horiz-adv-x="523" 
d="M467 0h-376v714h376v-79h-287v-223h270v-78h-270v-255h287v-79zM449 931q-18 -19 -41 -45t-44 -52.5t-33 -49.5h-90q-12 23 -33 49.5t-43.5 52.5t-39.5 45v13h59q25 -17 51.5 -41t49.5 -51q26 27 52 51t51 41h61v-13z" />
    <glyph glyph-name="ecaron" unicode="&#x11b;" horiz-adv-x="532" 
d="M275 546q65 0 112 -30t72.5 -84.5t25.5 -127.5v-53h-344q2 -91 43 -138.5t115 -47.5q48 0 85.5 9.5t77.5 27.5v-77q-39 -18 -76.5 -26.5t-90.5 -8.5q-72 0 -127 31t-86 92.5t-31 150.5q0 88 28 151t78.5 97t117.5 34zM275 474q-58 0 -92 -40.5t-40 -112.5h252
q0 46 -13 80t-39.5 53.5t-67.5 19.5zM431 753q-18 -19 -41 -45t-44 -52.5t-33 -49.5h-90q-12 23 -33 49.5t-43.5 52.5t-39.5 45v13h59q25 -17 51.5 -41t49.5 -51q26 27 52 51t51 41h61v-13z" />
    <glyph glyph-name="Gcircumflex" unicode="&#x11c;" horiz-adv-x="684" 
d="M379 377h235v-350q-54 -19 -109.5 -28t-126.5 -9q-104 0 -175.5 44.5t-108.5 127t-37 195.5q0 112 41 194t119 127.5t188 45.5q56 0 106.5 -11t93.5 -31l-33 -78q-35 17 -79.5 29t-91.5 12q-79 0 -135 -35t-86 -99.5t-30 -153.5q0 -85 25 -150.5t79.5 -102t142.5 -36.5
q29 0 51.5 2.5t41.5 6.5t35 8v212h-146v80zM424 944q12 -22 33 -49.5t44 -54t41 -45.5v-11h-61q-25 16 -51 39.5t-52 50.5q-25 -27 -50.5 -50t-50.5 -40h-59v11q18 20 40 46t43 53.5t33 49.5h90z" />
    <glyph glyph-name="gcircumflex" unicode="&#x11d;" horiz-adv-x="579" 
d="M257 546q50 0 89.5 -20t67.5 -61h5l11 71h70v-545q0 -76 -24.5 -127.5t-75 -77.5t-128.5 -26q-55 0 -100 8.5t-82 25.5v81q25 -13 54.5 -22.5t63 -14.5t69.5 -5q64 0 100.5 40.5t36.5 110.5v21q0 12 1 34.5t2 31.5h-4q-26 -41 -65 -61t-90 -20q-97 0 -152 73t-55 204
q0 86 24.5 148.5t71 96.5t110.5 34zM271 472q-41 0 -70.5 -24t-44.5 -70t-15 -112q0 -99 33.5 -151.5t98.5 -52.5q37 0 64 10.5t44 33t25.5 57.5t8.5 83v21q0 73 -15.5 118t-47 66t-81.5 21zM324 766q12 -22 33 -49.5t44 -54t41 -45.5v-11h-61q-25 16 -51 39.5t-52 50.5
q-25 -27 -50.5 -50t-50.5 -40h-59v11q18 20 40 46t43 53.5t33 49.5h90z" />
    <glyph glyph-name="Gbreve" unicode="&#x11e;" horiz-adv-x="684" 
d="M379 377h235v-350q-54 -19 -109.5 -28t-126.5 -9q-104 0 -175.5 44.5t-108.5 127t-37 195.5q0 112 41 194t119 127.5t188 45.5q56 0 106.5 -11t93.5 -31l-33 -78q-35 17 -79.5 29t-91.5 12q-79 0 -135 -35t-86 -99.5t-30 -153.5q0 -85 25 -150.5t79.5 -102t142.5 -36.5
q29 0 51.5 2.5t41.5 6.5t35 8v212h-146v80zM529 918q-3 -40 -21.5 -70t-51 -47t-78.5 -17q-71 0 -107 36.5t-40 97.5h53q3 -27 14.5 -40.5t32 -18t48.5 -4.5q37 0 64 12t32 51h54z" />
    <glyph glyph-name="gbreve" unicode="&#x11f;" horiz-adv-x="579" 
d="M257 546q50 0 89.5 -20t67.5 -61h5l11 71h70v-545q0 -76 -24.5 -127.5t-75 -77.5t-128.5 -26q-55 0 -100 8.5t-82 25.5v81q25 -13 54.5 -22.5t63 -14.5t69.5 -5q64 0 100.5 40.5t36.5 110.5v21q0 12 1 34.5t2 31.5h-4q-26 -41 -65 -61t-90 -20q-97 0 -152 73t-55 204
q0 86 24.5 148.5t71 96.5t110.5 34zM271 472q-41 0 -70.5 -24t-44.5 -70t-15 -112q0 -99 33.5 -151.5t98.5 -52.5q37 0 64 10.5t44 33t25.5 57.5t8.5 83v21q0 73 -15.5 118t-47 66t-81.5 21zM429 740q-3 -40 -21.5 -70t-51 -47t-78.5 -17q-71 0 -107 36.5t-40 97.5h53
q3 -27 14.5 -40.5t32 -18t48.5 -4.5q37 0 64 12t32 51h54z" />
    <glyph glyph-name="Gdot" unicode="&#x120;" horiz-adv-x="684" 
d="M379 377h235v-350q-54 -19 -109.5 -28t-126.5 -9q-104 0 -175.5 44.5t-108.5 127t-37 195.5q0 112 41 194t119 127.5t188 45.5q56 0 106.5 -11t93.5 -31l-33 -78q-35 17 -79.5 29t-91.5 12q-79 0 -135 -35t-86 -99.5t-30 -153.5q0 -85 25 -150.5t79.5 -102t142.5 -36.5
q29 0 51.5 2.5t41.5 6.5t35 8v212h-146v80zM380 915q20 0 35 -13.5t15 -42.5q0 -28 -15 -42t-35 -14q-21 0 -36 14t-15 42q0 29 15 42.5t36 13.5z" />
    <glyph glyph-name="gdot" unicode="&#x121;" horiz-adv-x="579" 
d="M257 546q50 0 89.5 -20t67.5 -61h5l11 71h70v-545q0 -76 -24.5 -127.5t-75 -77.5t-128.5 -26q-55 0 -100 8.5t-82 25.5v81q25 -13 54.5 -22.5t63 -14.5t69.5 -5q64 0 100.5 40.5t36.5 110.5v21q0 12 1 34.5t2 31.5h-4q-26 -41 -65 -61t-90 -20q-97 0 -152 73t-55 204
q0 86 24.5 148.5t71 96.5t110.5 34zM271 472q-41 0 -70.5 -24t-44.5 -70t-15 -112q0 -99 33.5 -151.5t98.5 -52.5q37 0 64 10.5t44 33t25.5 57.5t8.5 83v21q0 73 -15.5 118t-47 66t-81.5 21zM280 737q20 0 35 -13.5t15 -42.5q0 -28 -15 -42t-35 -14q-21 0 -36 14t-15 42
q0 29 15 42.5t36 13.5z" />
    <glyph glyph-name="uni0122" unicode="&#x122;" horiz-adv-x="684" 
d="M379 377h235v-350q-54 -19 -109.5 -28t-126.5 -9q-104 0 -175.5 44.5t-108.5 127t-37 195.5q0 112 41 194t119 127.5t188 45.5q56 0 106.5 -11t93.5 -31l-33 -78q-35 17 -79.5 29t-91.5 12q-79 0 -135 -35t-86 -99.5t-30 -153.5q0 -85 25 -150.5t79.5 -102t142.5 -36.5
q29 0 51.5 2.5t41.5 6.5t35 8v212h-146v80zM426 -70q-4 -18 -15.5 -45.5t-27 -55.5t-32.5 -50h-48v12q7 17 15 43.5t14.5 55t8.5 49.5h85v-9z" />
    <glyph glyph-name="uni0123" unicode="&#x123;" horiz-adv-x="615" 
d="M345 754q-7 -17 -15 -43.5t-14.5 -54.5t-9.5 -50h-85v9q5 18 16.5 45t27 55.5t31.5 50.5h49v-12zM257 546q50 0 89.5 -20t67.5 -61h5l11 71h70v-545q0 -76 -24.5 -127.5t-75 -77.5t-128.5 -26q-55 0 -100 8.5t-82 25.5v81q25 -13 54.5 -22.5t63 -14.5t69.5 -5
q64 0 100.5 40.5t36.5 110.5v21q0 12 1 34.5t2 31.5h-4q-26 -41 -65 -61t-90 -20q-97 0 -152 73t-55 204q0 86 24.5 148.5t71 96.5t110.5 34zM271 472q-41 0 -70.5 -24t-44.5 -70t-15 -112q0 -99 33.5 -151.5t98.5 -52.5q37 0 64 10.5t44 33t25.5 57.5t8.5 83v21
q0 73 -15.5 118t-47 66t-81.5 21z" />
    <glyph glyph-name="Hcircumflex" unicode="&#x124;" horiz-adv-x="699" 
d="M607 0h-89v333h-338v-333h-89v714h89v-302h338v302h89v-714zM394 944q12 -22 33 -49.5t44 -54t41 -45.5v-11h-61q-25 16 -51 39.5t-52 50.5q-25 -27 -50.5 -50t-50.5 -40h-59v11q18 20 40 46t43 53.5t33 49.5h90z" />
    <glyph glyph-name="hcircumflex" unicode="&#x125;" horiz-adv-x="584" 
d="M166 537q0 -19 -1.5 -39t-3.5 -36h6q16 28 40.5 46t54 27.5t61.5 9.5q61 0 102 -20.5t62 -63.5t21 -112v-349h-87v343q0 65 -27 97t-83 32q-55 0 -87 -22.5t-45 -66t-13 -106.5v-277h-87v760h87v-223zM168 990q12 -22 33 -49.5t44 -54t41 -45.5v-11h-61q-25 16 -51 39.5
t-52 50.5q-25 -27 -50.5 -50t-50.5 -40h-59v11q18 20 40 46t43 53.5t33 49.5h90z" />
    <glyph glyph-name="Hbar" unicode="&#x126;" horiz-adv-x="698" 
d="M91 0v523h-91v72h91v119h89v-119h338v119h89v-119h90v-72h-90v-523h-89v333h-338v-333h-89zM180 412h338v111h-338v-111z" />
    <glyph glyph-name="hbar" unicode="&#x127;" horiz-adv-x="584" 
d="M167 760v-90h195v-66h-195v-87q0 -19 -1.5 -38.5t-3.5 -35.5h6q16 28 40 46t54 27.5t63 9.5q60 0 101 -20.5t61.5 -64t20.5 -112.5v-329h-86v323q0 65 -27 97t-84 32q-55 0 -86.5 -22.5t-44.5 -65.5t-13 -106v-258h-88v604h-71v66h71v90h88z" />
    <glyph glyph-name="Itilde" unicode="&#x128;" horiz-adv-x="322" 
d="M284 0h-247v52l79 19v571l-79 20v52h247v-52l-79 -20v-571l79 -19v-52zM336 913q-6 -58 -33 -93t-71 -35q-20 0 -39 8.5t-37 20t-35 20t-32 8.5q-22 0 -33.5 -14.5t-17.5 -43.5h-50q3 30 11.5 53.5t21.5 40t31.5 25.5t40.5 9q21 0 40 -8.5t37 -20t34.5 -20t31.5 -8.5
q21 0 32.5 14.5t18.5 43.5h49z" />
    <glyph glyph-name="itilde" unicode="&#x129;" horiz-adv-x="245" 
d="M166 0h-87v536h87v-536zM297 735q-6 -58 -33 -93t-71 -35q-20 0 -39 8.5t-37 20t-35 20t-32 8.5q-22 0 -33.5 -14.5t-17.5 -43.5h-50q3 30 11.5 53.5t21.5 40t31.5 25.5t40.5 9q21 0 40 -8.5t37 -20t34.5 -20t31.5 -8.5q21 0 32.5 14.5t18.5 43.5h49z" />
    <glyph glyph-name="Imacron" unicode="&#x12a;" horiz-adv-x="322" 
d="M284 0h-247v52l79 19v571l-79 20v52h247v-52l-79 -20v-571l79 -19v-52zM302 855v-71h-282v71h282z" />
    <glyph glyph-name="imacron" unicode="&#x12b;" horiz-adv-x="245" 
d="M166 0h-87v536h87v-536zM263 677v-71h-282v71h282z" />
    <glyph glyph-name="Ibreve" unicode="&#x12c;" horiz-adv-x="322" 
d="M284 0h-247v52l79 19v571l-79 20v52h247v-52l-79 -20v-571l79 -19v-52zM311 918q-3 -40 -21.5 -70t-51 -47t-78.5 -17q-71 0 -107 36.5t-40 97.5h53q3 -27 14.5 -40.5t32 -18t48.5 -4.5q37 0 64 12t32 51h54z" />
    <glyph glyph-name="ibreve" unicode="&#x12d;" horiz-adv-x="245" 
d="M166 0h-87v536h87v-536zM272 740q-3 -40 -21.5 -70t-51 -47t-78.5 -17q-71 0 -107 36.5t-40 97.5h53q3 -27 14.5 -40.5t32 -18t48.5 -4.5q37 0 64 12t32 51h54z" />
    <glyph glyph-name="Iogonek" unicode="&#x12e;" horiz-adv-x="322" 
d="M284 0h-247v52l79 19v571l-79 20v52h247v-52l-79 -20v-571l79 -19v-52zM200 -116q0 -22 11.5 -33.5t30.5 -11.5q15 0 26.5 2.5t18.5 3.5v-56q-13 -4 -26.5 -6.5t-32.5 -2.5q-33 0 -55 11t-32.5 32.5t-10.5 50.5t14 56t34.5 49t39.5 36l46 -15q-31 -32 -47.5 -58.5
t-16.5 -57.5z" />
    <glyph glyph-name="iogonek" unicode="&#x12f;" horiz-adv-x="246" 
d="M167 536v-536h-87v536h87zM124 737q20 0 35 -13.5t15 -42.5q0 -28 -15 -42t-35 -14q-21 0 -36 14t-15 42q0 29 15 42.5t36 13.5zM95 -116q0 -22 11.5 -33.5t30.5 -11.5q15 0 26.5 2.5t18.5 3.5v-56q-13 -4 -26.5 -6.5t-32.5 -2.5q-33 0 -55 11t-32.5 32.5t-10.5 50.5
t14 56t34.5 49t39.5 36l46 -15q-31 -32 -47.5 -58.5t-16.5 -57.5z" />
    <glyph glyph-name="Idotaccent" unicode="&#x130;" horiz-adv-x="322" 
d="M284 0h-247v52l79 19v571l-79 20v52h247v-52l-79 -20v-571l79 -19v-52zM162 915q20 0 35 -13.5t15 -42.5q0 -28 -15 -42t-35 -14q-21 0 -36 14t-15 42q0 29 15 42.5t36 13.5z" />
    <glyph glyph-name="dotlessi" unicode="&#x131;" horiz-adv-x="245" 
d="M166 0h-87v536h87v-536z" />
    <glyph glyph-name="IJ" unicode="&#x132;" horiz-adv-x="582" 
d="M284 0h-247v52l79 19v571l-79 20v52h247v-52l-79 -20v-571l79 -19v-52zM320 -190q-23 0 -40.5 3.5t-30.5 9.5v76q15 -4 32 -7t36 -3q24 0 44.5 10t33.5 35t13 70v710h89v-703q0 -69 -22 -113.5t-61.5 -66t-93.5 -21.5z" />
    <glyph glyph-name="ij" unicode="&#x133;" horiz-adv-x="492" 
d="M167 536v-536h-87v536h87zM124 737q20 0 35 -13.5t15 -42.5q0 -28 -15 -42t-35 -14q-21 0 -36 14t-15 42q0 29 15 42.5t36 13.5zM268 -240q-24 0 -42.5 3.5t-31.5 8.5v71q14 -4 29 -7t33 -3q31 0 50.5 17.5t19.5 66.5v619h87v-616q0 -50 -15 -86t-47 -55t-83 -19z
M319 681q0 29 15 42.5t36 13.5q20 0 35 -13.5t15 -42.5q0 -28 -15 -42t-35 -14q-21 0 -36 14t-15 42z" />
    <glyph glyph-name="Jcircumflex" unicode="&#x134;" horiz-adv-x="260" 
d="M-2 -190q-23 0 -40.5 3.5t-30.5 9.5v76q15 -4 32 -7t36 -3q24 0 44.5 10t33.5 35t13 70v710h89v-703q0 -69 -22 -113.5t-61.5 -66t-93.5 -21.5zM175 944q12 -22 33 -49.5t44 -54t41 -45.5v-11h-61q-25 16 -51 39.5t-52 50.5q-25 -27 -50.5 -50t-50.5 -40h-59v11
q18 20 40 46t43 53.5t33 49.5h90z" />
    <glyph glyph-name="jcircumflex" unicode="&#x135;" horiz-adv-x="246" 
d="M22 -240q-24 0 -42.5 3.5t-31.5 8.5v71q14 -4 29 -7t33 -3q31 0 50.5 17.5t19.5 66.5v619h87v-616q0 -50 -15 -86t-47 -55t-83 -19zM167 766q12 -22 33 -49.5t44 -54t41 -45.5v-11h-61q-25 16 -51 39.5t-52 50.5q-25 -27 -50.5 -50t-50.5 -40h-59v11q18 20 40 46t43 53.5
t33 49.5h90z" />
    <glyph glyph-name="uni0136" unicode="&#x136;" horiz-adv-x="585" 
d="M585 0h-104l-233 341l-68 -64v-277h-89v714h89v-352q27 34 55 68l56 68l181 216h104l-264 -311zM371 -70q-4 -18 -15.5 -45.5t-27 -55.5t-32.5 -50h-48v12q7 17 15 43.5t14.5 55t8.5 49.5h85v-9z" />
    <glyph glyph-name="uni0137" unicode="&#x137;" horiz-adv-x="508" 
d="M165 363q0 -16 -1.5 -42t-2.5 -45h4q6 8 17 23t23 30.5t21 25.5l159 181h101l-204 -229l218 -307h-104l-173 250l-58 -53v-197h-86v760h86v-397zM323 -70q-4 -18 -15.5 -45.5t-27 -55.5t-32.5 -50h-48v12q7 17 15 43.5t14.5 55t8.5 49.5h85v-9z" />
    <glyph glyph-name="kgreenlandic" unicode="&#x138;" horiz-adv-x="508" 
d="M485 536l-192 -237l207 -299h-103l-164 242l-63 -54v-188h-91v536h91v-139q0 -40 -1.5 -78t-3.5 -58h2q9 13 19.5 26.5t19.5 24.5l176 224h103z" />
    <glyph glyph-name="Lacute" unicode="&#x139;" horiz-adv-x="496" 
d="M91 0v714h89v-634h292v-80h-381zM281 934q-9 -14 -25.5 -34t-36 -41.5t-39.5 -41t-37 -33.5h-57v12q14 19 31 45t33 53.5t27 49.5h104v-10z" />
    <glyph glyph-name="lacute" unicode="&#x13a;" horiz-adv-x="245" 
d="M166 0h-87v760h87v-760zM270 980q-9 -14 -25.5 -34t-36 -41.5t-39.5 -41t-37 -33.5h-57v12q14 19 31 45t33 53.5t27 49.5h104v-10z" />
    <glyph glyph-name="uni013B" unicode="&#x13b;" horiz-adv-x="496" 
d="M91 0v714h89v-634h292v-80h-381zM332 -70q-4 -18 -15.5 -45.5t-27 -55.5t-32.5 -50h-48v12q7 17 15 43.5t14.5 55t8.5 49.5h85v-9z" />
    <glyph glyph-name="uni013C" unicode="&#x13c;" horiz-adv-x="245" 
d="M166 0h-87v760h87v-760zM172 -70q-4 -18 -15.5 -45.5t-27 -55.5t-32.5 -50h-48v12q7 17 15 43.5t14.5 55t8.5 49.5h85v-9z" />
    <glyph glyph-name="Lcaron" unicode="&#x13d;" horiz-adv-x="524" 
d="M482 705q-4 -18 -15 -45t-25 -55.5t-28 -50.5h-48v12q5 14 9.5 33t8.5 39.5t7.5 40t5.5 35.5h85v-9zM91 0v714h89v-634h292v-80h-381z" />
    <glyph glyph-name="lcaron" unicode="&#x13e;" horiz-adv-x="258" 
d="M320 751q-4 -18 -15 -45t-25 -55.5t-28 -50.5h-48v12q5 14 9.5 33t8.5 39.5t7.5 40t5.5 35.5h85v-9zM166 0h-87v760h87v-760z" />
    <glyph glyph-name="Ldot" unicode="&#x13f;" horiz-adv-x="496" 
d="M91 0v714h89v-634h292v-80h-381zM377 413q20 0 35 -13.5t15 -42.5q0 -28 -15 -42t-35 -14q-21 0 -36 14t-15 42q0 29 15 42.5t36 13.5z" />
    <glyph glyph-name="ldot" unicode="&#x140;" horiz-adv-x="268" 
d="M166 0h-87v760h87v-760zM259 435q20 0 35 -13.5t15 -42.5q0 -28 -15 -42t-35 -14q-21 0 -36 14t-15 42q0 29 15 42.5t36 13.5z" />
    <glyph glyph-name="Lslash" unicode="&#x141;" horiz-adv-x="495" 
d="M90 0v247l-45 -28l-34 60l79 50v385h89v-332l124 81l36 -63l-160 -100v-220h292v-80h-381z" />
    <glyph glyph-name="lslash" unicode="&#x142;" horiz-adv-x="245" 
d="M73 0v285l-47 -32l-35 59l82 56v392h87v-335l58 44l36 -59l-94 -68v-342h-87z" />
    <glyph glyph-name="Nacute" unicode="&#x143;" horiz-adv-x="719" 
d="M628 0h-105l-354 593h-4q1 -18 2.5 -40t2.5 -47.5t2 -52.5t1 -54v-399h-82v714h104l353 -591h4q-1 12 -2 33.5t-2 48t-2 54.5t-1 52v403h83v-714zM506 934q-9 -14 -25.5 -34t-36 -41.5t-39.5 -41t-37 -33.5h-57v12q14 19 31 45t33 53.5t27 49.5h104v-10z" />
    <glyph glyph-name="nacute" unicode="&#x144;" horiz-adv-x="584" 
d="M325 546q90 0 136.5 -46.5t46.5 -150.5v-349h-87v343q0 65 -27 97t-83 32q-82 0 -113.5 -50t-31.5 -144v-278h-87v536h70l13 -73h5q16 28 41 46.5t55 27.5t62 9zM439 756q-9 -14 -25.5 -34t-36 -41.5t-39.5 -41t-37 -33.5h-57v12q14 19 31 45t33 53.5t27 49.5h104v-10z
" />
    <glyph glyph-name="uni0145" unicode="&#x145;" horiz-adv-x="719" 
d="M628 0h-105l-354 593h-4q1 -18 2.5 -40t2.5 -47.5t2 -52.5t1 -54v-399h-82v714h104l353 -591h4q-1 12 -2 33.5t-2 48t-2 54.5t-1 52v403h83v-714zM408 -70q-4 -18 -15.5 -45.5t-27 -55.5t-32.5 -50h-48v12q7 17 15 43.5t14.5 55t8.5 49.5h85v-9z" />
    <glyph glyph-name="uni0146" unicode="&#x146;" horiz-adv-x="584" 
d="M325 546q90 0 136.5 -46.5t46.5 -150.5v-349h-87v343q0 65 -27 97t-83 32q-82 0 -113.5 -50t-31.5 -144v-278h-87v536h70l13 -73h5q16 28 41 46.5t55 27.5t62 9zM341 -70q-4 -18 -15.5 -45.5t-27 -55.5t-32.5 -50h-48v12q7 17 15 43.5t14.5 55t8.5 49.5h85v-9z" />
    <glyph glyph-name="Ncaron" unicode="&#x147;" horiz-adv-x="719" 
d="M628 0h-105l-354 593h-4q1 -18 2.5 -40t2.5 -47.5t2 -52.5t1 -54v-399h-82v714h104l353 -591h4q-1 12 -2 33.5t-2 48t-2 54.5t-1 52v403h83v-714zM521 931q-18 -19 -41 -45t-44 -52.5t-33 -49.5h-90q-12 23 -33 49.5t-43.5 52.5t-39.5 45v13h59q25 -17 51.5 -41t49.5 -51
q26 27 52 51t51 41h61v-13z" />
    <glyph glyph-name="ncaron" unicode="&#x148;" horiz-adv-x="584" 
d="M325 546q90 0 136.5 -46.5t46.5 -150.5v-349h-87v343q0 65 -27 97t-83 32q-82 0 -113.5 -50t-31.5 -144v-278h-87v536h70l13 -73h5q16 28 41 46.5t55 27.5t62 9zM454 753q-18 -19 -41 -45t-44 -52.5t-33 -49.5h-90q-12 23 -33 49.5t-43.5 52.5t-39.5 45v13h59
q25 -17 51.5 -41t49.5 -51q26 27 52 51t51 41h61v-13z" />
    <glyph glyph-name="napostrophe" unicode="&#x149;" horiz-adv-x="688" 
d="M429 546q90 0 136.5 -46.5t46.5 -150.5v-349h-87v343q0 65 -27 97t-83 32q-82 0 -113.5 -50t-31.5 -144v-278h-87v536h70l13 -73h5q16 28 41 46.5t55 27.5t62 9zM145 703q-8 -35 -21.5 -76t-29 -81.5t-30.5 -76.5h-64q7 28 14 60t13 64.5t11.5 63.5t8.5 57h91z" />
    <glyph glyph-name="Eng" unicode="&#x14a;" horiz-adv-x="719" 
d="M448 -190q-23 0 -41 3.5t-32 9.5v76q15 -4 33.5 -7t38.5 -3q25 0 47 9.5t36.5 34t14.5 67.5l-376 593h-4q1 -15 2.5 -38.5t2.5 -52t2 -58.5t1 -57v-387h-82v714h104l353 -572h4q-1 16 -2.5 39t-2.5 49.5t-1.5 55t-0.5 56.5v372h83v-708q0 -67 -22 -110.5t-62.5 -64.5
t-95.5 -21z" />
    <glyph glyph-name="eng" unicode="&#x14b;" horiz-adv-x="584" 
d="M371 -240q-22 0 -39 3.5t-29 8.5v71q13 -4 26 -7t30 -3q26 0 44 17.5t18 66.5v427q0 65 -26.5 96.5t-82.5 31.5q-55 0 -87 -22t-45.5 -65t-13.5 -106v-279h-87v536h70l13 -73h5q17 28 41.5 46.5t54 27.5t61.5 9q62 0 103 -20.5t61.5 -63.5t20.5 -112v-430
q0 -50 -14.5 -86t-45 -55t-78.5 -19z" />
    <glyph glyph-name="Omacron" unicode="&#x14c;" horiz-adv-x="735" 
d="M678 358q0 -83 -20 -150.5t-59 -116.5t-97 -75t-134 -26q-79 0 -137.5 26.5t-97 75t-57.5 116.5t-19 151q0 110 34 192t103.5 128t174.5 46q101 0 170 -45.5t104 -128t35 -193.5zM151 358q0 -90 23 -155t71.5 -100t122.5 -35q75 0 123 35t70.5 100t22.5 155
q0 135 -51.5 211.5t-163.5 76.5q-75 0 -123.5 -34.5t-71.5 -99t-23 -154.5zM508 866v-71h-282v71h282z" />
    <glyph glyph-name="omacron" unicode="&#x14d;" horiz-adv-x="570" 
d="M520 269q0 -67 -16.5 -118.5t-47.5 -87.5t-75 -54.5t-98 -18.5q-50 0 -92.5 18.5t-74 54.5t-48.5 87.5t-17 118.5q0 89 28.5 150.5t81.5 94t125 32.5q69 0 121.5 -32.5t82.5 -94t30 -150.5zM141 269q0 -63 15 -109.5t47 -71.5t82 -25t82 25t47.5 71.5t15.5 109.5
q0 64 -15.5 109t-47.5 69.5t-83 24.5q-75 0 -109 -54t-34 -149zM425 677v-71h-282v71h282z" />
    <glyph glyph-name="Obreve" unicode="&#x14e;" horiz-adv-x="735" 
d="M678 358q0 -83 -20 -150.5t-59 -116.5t-97 -75t-134 -26q-79 0 -137.5 26.5t-97 75t-57.5 116.5t-19 151q0 110 34 192t103.5 128t174.5 46q101 0 170 -45.5t104 -128t35 -193.5zM151 358q0 -90 23 -155t71.5 -100t122.5 -35q75 0 123 35t70.5 100t22.5 155
q0 135 -51.5 211.5t-163.5 76.5q-75 0 -123.5 -34.5t-71.5 -99t-23 -154.5zM517 929q-3 -40 -21.5 -70t-51 -47t-78.5 -17q-71 0 -107 36.5t-40 97.5h53q3 -27 14.5 -40.5t32 -18t48.5 -4.5q37 0 64 12t32 51h54z" />
    <glyph glyph-name="obreve" unicode="&#x14f;" horiz-adv-x="570" 
d="M520 269q0 -67 -16.5 -118.5t-47.5 -87.5t-75 -54.5t-98 -18.5q-50 0 -92.5 18.5t-74 54.5t-48.5 87.5t-17 118.5q0 89 28.5 150.5t81.5 94t125 32.5q69 0 121.5 -32.5t82.5 -94t30 -150.5zM141 269q0 -63 15 -109.5t47 -71.5t82 -25t82 25t47.5 71.5t15.5 109.5
q0 64 -15.5 109t-47.5 69.5t-83 24.5q-75 0 -109 -54t-34 -149zM434 740q-3 -40 -21.5 -70t-51 -47t-78.5 -17q-71 0 -107 36.5t-40 97.5h53q3 -27 14.5 -40.5t32 -18t48.5 -4.5q37 0 64 12t32 51h54z" />
    <glyph glyph-name="Ohungarumlaut" unicode="&#x150;" horiz-adv-x="735" 
d="M678 358q0 -83 -20 -150.5t-59 -116.5t-97 -75t-134 -26q-79 0 -137.5 26.5t-97 75t-57.5 116.5t-19 151q0 110 34 192t103.5 128t174.5 46q101 0 170 -45.5t104 -128t35 -193.5zM151 358q0 -90 23 -155t71.5 -100t122.5 -35q75 0 123 35t70.5 100t22.5 155
q0 135 -51.5 211.5t-163.5 76.5q-75 0 -123.5 -34.5t-71.5 -99t-23 -154.5zM539 945q-7 -13 -22 -33t-33.5 -42t-37 -41.5t-34.5 -33.5h-49v12q13 19 28 45t29.5 53.5t24.5 49.5h94v-10zM372 945q-7 -13 -21.5 -33t-33 -42t-37.5 -41.5t-35 -33.5h-49v12q13 19 28 45
t29.5 53.5t24.5 49.5h94v-10z" />
    <glyph glyph-name="ohungarumlaut" unicode="&#x151;" horiz-adv-x="570" 
d="M520 269q0 -67 -16.5 -118.5t-47.5 -87.5t-75 -54.5t-98 -18.5q-50 0 -92.5 18.5t-74 54.5t-48.5 87.5t-17 118.5q0 89 28.5 150.5t81.5 94t125 32.5q69 0 121.5 -32.5t82.5 -94t30 -150.5zM141 269q0 -63 15 -109.5t47 -71.5t82 -25t82 25t47.5 71.5t15.5 109.5
q0 64 -15.5 109t-47.5 69.5t-83 24.5q-75 0 -109 -54t-34 -149zM456 756q-7 -13 -22 -33t-33.5 -42t-37 -41.5t-34.5 -33.5h-49v12q13 19 28 45t29.5 53.5t24.5 49.5h94v-10zM289 756q-7 -13 -21.5 -33t-33 -42t-37.5 -41.5t-35 -33.5h-49v12q13 19 28 45t29.5 53.5
t24.5 49.5h94v-10z" />
    <glyph glyph-name="OE" unicode="&#x152;" horiz-adv-x="875" 
d="M362 725q16 0 32 -1.5t31 -3.5t29 -6h365v-79h-269v-223h251v-78h-251v-255h269v-79h-360q-14 -3 -29.5 -5t-31.5 -3.5t-32 -1.5q-104 0 -173 46t-102.5 129t-33.5 194t33.5 193t101 127.5t170.5 45.5zM369 646q-56 0 -97.5 -19.5t-68.5 -57t-40 -90.5t-13 -121
q0 -90 23.5 -155t72 -100t122.5 -35q26 0 50.5 4.5t43.5 12.5v545q-19 8 -43 12t-50 4z" />
    <glyph glyph-name="oe" unicode="&#x153;" horiz-adv-x="891" 
d="M637 545q64 0 110 -30t71 -84t25 -127v-53h-335q2 -96 40.5 -141t110.5 -45q50 0 87 9.5t74 27.5v-77q-38 -18 -75 -26.5t-88 -8.5q-64 0 -112.5 28t-78.5 83q-29 -55 -77 -83t-110 -28q-66 0 -118 32.5t-81.5 95t-29.5 151.5q0 88 28 149.5t80 94t124 32.5q59 0 106 -28
t75 -82q19 36 44.5 60.5t58.5 37t71 12.5zM278 472q-73 0 -105 -51t-32 -152q0 -67 14.5 -113t45 -69.5t79.5 -23.5q48 0 78.5 23t45 68t14.5 111q0 70 -15 115.5t-45.5 68.5t-79.5 23zM636 473q-55 0 -88 -39t-38 -113h242q0 46 -12 80t-37.5 53t-66.5 19z" />
    <glyph glyph-name="Racute" unicode="&#x154;" horiz-adv-x="588" 
d="M277 714q84 0 138.5 -22.5t81 -67.5t26.5 -113q0 -57 -19.5 -95t-50 -60.5t-64.5 -35.5l186 -320h-104l-162 295h-129v-295h-89v714h186zM272 636h-92v-265h96q54 0 88.5 15.5t50.5 45.5t16 75q0 47 -17 75t-52.5 41t-89.5 13zM442 934q-9 -14 -25.5 -34t-36 -41.5
t-39.5 -41t-37 -33.5h-57v12q14 19 31 45t33 53.5t27 49.5h104v-10z" />
    <glyph glyph-name="racute" unicode="&#x155;" horiz-adv-x="391" 
d="M318 546q14 0 30 -1.5t28 -4.5l-10 -81q-12 3 -26.5 5t-27.5 2q-29 0 -55 -13t-46.5 -36.5t-32.5 -56.5t-12 -74v-286h-87v536h71l10 -98h4q16 30 38.5 54.5t51.5 39t64 14.5zM383 756q-9 -14 -25.5 -34t-36 -41.5t-39.5 -41t-37 -33.5h-57v12q14 19 31 45t33 53.5
t27 49.5h104v-10z" />
    <glyph glyph-name="uni0156" unicode="&#x156;" horiz-adv-x="588" 
d="M277 714q84 0 138.5 -22.5t81 -67.5t26.5 -113q0 -57 -19.5 -95t-50 -60.5t-64.5 -35.5l186 -320h-104l-162 295h-129v-295h-89v714h186zM272 636h-92v-265h96q54 0 88.5 15.5t50.5 45.5t16 75q0 47 -17 75t-52.5 41t-89.5 13zM360 -70q-4 -18 -15.5 -45.5t-27 -55.5
t-32.5 -50h-48v12q7 17 15 43.5t14.5 55t8.5 49.5h85v-9z" />
    <glyph glyph-name="uni0157" unicode="&#x157;" horiz-adv-x="391" 
d="M318 546q14 0 30 -1.5t28 -4.5l-10 -81q-12 3 -26.5 5t-27.5 2q-29 0 -55 -13t-46.5 -36.5t-32.5 -56.5t-12 -74v-286h-87v536h71l10 -98h4q16 30 38.5 54.5t51.5 39t64 14.5zM169 -70q-4 -18 -15.5 -45.5t-27 -55.5t-32.5 -50h-48v12q7 17 15 43.5t14.5 55t8.5 49.5h85
v-9z" />
    <glyph glyph-name="Rcaron" unicode="&#x158;" horiz-adv-x="588" 
d="M277 714q84 0 138.5 -22.5t81 -67.5t26.5 -113q0 -57 -19.5 -95t-50 -60.5t-64.5 -35.5l186 -320h-104l-162 295h-129v-295h-89v714h186zM272 636h-92v-265h96q54 0 88.5 15.5t50.5 45.5t16 75q0 47 -17 75t-52.5 41t-89.5 13zM457 931q-18 -19 -41 -45t-44 -52.5
t-33 -49.5h-90q-12 23 -33 49.5t-43.5 52.5t-39.5 45v13h59q25 -17 51.5 -41t49.5 -51q26 27 52 51t51 41h61v-13z" />
    <glyph glyph-name="rcaron" unicode="&#x159;" horiz-adv-x="391" 
d="M318 546q14 0 30 -1.5t28 -4.5l-10 -81q-12 3 -26.5 5t-27.5 2q-29 0 -55 -13t-46.5 -36.5t-32.5 -56.5t-12 -74v-286h-87v536h71l10 -98h4q16 30 38.5 54.5t51.5 39t64 14.5zM398 753q-18 -19 -41 -45t-44 -52.5t-33 -49.5h-90q-12 23 -33 49.5t-43.5 52.5t-39.5 45v13
h59q25 -17 51.5 -41t49.5 -51q26 27 52 51t51 41h61v-13z" />
    <glyph glyph-name="Sacute" unicode="&#x15a;" horiz-adv-x="517" 
d="M473 191q0 -64 -29.5 -108.5t-83 -68.5t-127.5 -24q-37 0 -71.5 4t-63 11.5t-50.5 18.5v86q35 -16 85.5 -29t103.5 -13q49 0 81.5 14t49 40t16.5 61t-14.5 59t-48.5 44.5t-93 43.5q-55 22 -93.5 50t-58.5 67.5t-20 94.5q0 57 27.5 97.5t76 62.5t112.5 22q55 0 101 -11
t85 -29l-28 -77q-36 16 -76.5 27t-83.5 11q-41 0 -68.5 -13t-41.5 -36.5t-14 -54.5q0 -36 14 -60t46 -43t85 -41q59 -23 99.5 -49.5t61.5 -63.5t21 -93zM415 934q-9 -14 -25.5 -34t-36 -41.5t-39.5 -41t-37 -33.5h-57v12q14 19 31 45t33 53.5t27 49.5h104v-10z" />
    <glyph glyph-name="sacute" unicode="&#x15b;" horiz-adv-x="452" 
d="M410 148q0 -52 -24.5 -87t-69.5 -53t-108 -18q-53 0 -91.5 9t-67.5 25v80q31 -16 74 -29.5t87 -13.5q61 0 88.5 21.5t27.5 57.5q0 20 -10.5 36t-37 32t-76.5 36q-48 20 -82.5 40t-53 48t-18.5 72q0 68 52.5 105t137.5 37q46 0 86 -9.5t76 -26.5l-29 -70q-21 10 -44 17.5
t-46.5 12t-47.5 4.5q-49 0 -75 -17.5t-26 -47.5q0 -22 12 -38t39.5 -30.5t75.5 -33.5t82 -39t51.5 -48.5t17.5 -71.5zM374 756q-9 -14 -25.5 -34t-36 -41.5t-39.5 -41t-37 -33.5h-57v12q14 19 31 45t33 53.5t27 49.5h104v-10z" />
    <glyph glyph-name="Scircumflex" unicode="&#x15c;" horiz-adv-x="517" 
d="M473 191q0 -64 -29.5 -108.5t-83 -68.5t-127.5 -24q-37 0 -71.5 4t-63 11.5t-50.5 18.5v86q35 -16 85.5 -29t103.5 -13q49 0 81.5 14t49 40t16.5 61t-14.5 59t-48.5 44.5t-93 43.5q-55 22 -93.5 50t-58.5 67.5t-20 94.5q0 57 27.5 97.5t76 62.5t112.5 22q55 0 101 -11
t85 -29l-28 -77q-36 16 -76.5 27t-83.5 11q-41 0 -68.5 -13t-41.5 -36.5t-14 -54.5q0 -36 14 -60t46 -43t85 -41q59 -23 99.5 -49.5t61.5 -63.5t21 -93zM312 944q12 -22 33 -49.5t44 -54t41 -45.5v-11h-61q-25 16 -51 39.5t-52 50.5q-25 -27 -50.5 -50t-50.5 -40h-59v11
q18 20 40 46t43 53.5t33 49.5h90z" />
    <glyph glyph-name="scircumflex" unicode="&#x15d;" horiz-adv-x="452" 
d="M410 148q0 -52 -24.5 -87t-69.5 -53t-108 -18q-53 0 -91.5 9t-67.5 25v80q31 -16 74 -29.5t87 -13.5q61 0 88.5 21.5t27.5 57.5q0 20 -10.5 36t-37 32t-76.5 36q-48 20 -82.5 40t-53 48t-18.5 72q0 68 52.5 105t137.5 37q46 0 86 -9.5t76 -26.5l-29 -70q-21 10 -44 17.5
t-46.5 12t-47.5 4.5q-49 0 -75 -17.5t-26 -47.5q0 -22 12 -38t39.5 -30.5t75.5 -33.5t82 -39t51.5 -48.5t17.5 -71.5zM271 766q12 -22 33 -49.5t44 -54t41 -45.5v-11h-61q-25 16 -51 39.5t-52 50.5q-25 -27 -50.5 -50t-50.5 -40h-59v11q18 20 40 46t43 53.5t33 49.5h90z" />
    <glyph glyph-name="Scedilla" unicode="&#x15e;" horiz-adv-x="517" 
d="M473 191q0 -64 -29.5 -108.5t-83 -68.5t-127.5 -24q-37 0 -71.5 4t-63 11.5t-50.5 18.5v86q35 -16 85.5 -29t103.5 -13q49 0 81.5 14t49 40t16.5 61t-14.5 59t-48.5 44.5t-93 43.5q-55 22 -93.5 50t-58.5 67.5t-20 94.5q0 57 27.5 97.5t76 62.5t112.5 22q55 0 101 -11
t85 -29l-28 -77q-36 16 -76.5 27t-83.5 11q-41 0 -68.5 -13t-41.5 -36.5t-14 -54.5q0 -36 14 -60t46 -43t85 -41q59 -23 99.5 -49.5t61.5 -63.5t21 -93zM349 -139q0 -32 -15.5 -54.5t-46 -34.5t-77.5 -12q-15 0 -28 1.5t-21 3.5v55q9 -2 23.5 -3.5t27.5 -1.5q32 0 49.5 9.5
t17.5 34.5q0 26 -24 38t-61 17l40 86h57l-23 -53q22 -5 40.5 -15.5t29.5 -27.5t11 -43z" />
    <glyph glyph-name="scedilla" unicode="&#x15f;" horiz-adv-x="452" 
d="M410 148q0 -52 -24.5 -87t-69.5 -53t-108 -18q-53 0 -91.5 9t-67.5 25v80q31 -16 74 -29.5t87 -13.5q61 0 88.5 21.5t27.5 57.5q0 20 -10.5 36t-37 32t-76.5 36q-48 20 -82.5 40t-53 48t-18.5 72q0 68 52.5 105t137.5 37q46 0 86 -9.5t76 -26.5l-29 -70q-21 10 -44 17.5
t-46.5 12t-47.5 4.5q-49 0 -75 -17.5t-26 -47.5q0 -22 12 -38t39.5 -30.5t75.5 -33.5t82 -39t51.5 -48.5t17.5 -71.5zM322 -139q0 -32 -15.5 -54.5t-46 -34.5t-77.5 -12q-15 0 -28 1.5t-21 3.5v55q9 -2 23.5 -3.5t27.5 -1.5q32 0 49.5 9.5t17.5 34.5q0 26 -24 38t-61 17
l40 86h57l-23 -53q22 -5 40.5 -15.5t29.5 -27.5t11 -43z" />
    <glyph glyph-name="Scaron" unicode="&#x160;" horiz-adv-x="517" 
d="M473 191q0 -64 -29.5 -108.5t-83 -68.5t-127.5 -24q-37 0 -71.5 4t-63 11.5t-50.5 18.5v86q35 -16 85.5 -29t103.5 -13q49 0 81.5 14t49 40t16.5 61t-14.5 59t-48.5 44.5t-93 43.5q-55 22 -93.5 50t-58.5 67.5t-20 94.5q0 57 27.5 97.5t76 62.5t112.5 22q55 0 101 -11
t85 -29l-28 -77q-36 16 -76.5 27t-83.5 11q-41 0 -68.5 -13t-41.5 -36.5t-14 -54.5q0 -36 14 -60t46 -43t85 -41q59 -23 99.5 -49.5t61.5 -63.5t21 -93zM430 931q-18 -19 -41 -45t-44 -52.5t-33 -49.5h-90q-12 23 -33 49.5t-43.5 52.5t-39.5 45v13h59q25 -17 51.5 -41
t49.5 -51q26 27 52 51t51 41h61v-13z" />
    <glyph glyph-name="scaron" unicode="&#x161;" horiz-adv-x="452" 
d="M410 148q0 -52 -24.5 -87t-69.5 -53t-108 -18q-53 0 -91.5 9t-67.5 25v80q31 -16 74 -29.5t87 -13.5q61 0 88.5 21.5t27.5 57.5q0 20 -10.5 36t-37 32t-76.5 36q-48 20 -82.5 40t-53 48t-18.5 72q0 68 52.5 105t137.5 37q46 0 86 -9.5t76 -26.5l-29 -70q-21 10 -44 17.5
t-46.5 12t-47.5 4.5q-49 0 -75 -17.5t-26 -47.5q0 -22 12 -38t39.5 -30.5t75.5 -33.5t82 -39t51.5 -48.5t17.5 -71.5zM389 753q-18 -19 -41 -45t-44 -52.5t-33 -49.5h-90q-12 23 -33 49.5t-43.5 52.5t-39.5 45v13h59q25 -17 51.5 -41t49.5 -51q26 27 52 51t51 41h61v-13z
" />
    <glyph glyph-name="uni0162" unicode="&#x162;" horiz-adv-x="524" 
d="M307 0h-89v635h-208v79h503v-79h-206v-635zM350 -139q0 -32 -15.5 -54.5t-46 -34.5t-77.5 -12q-15 0 -28 1.5t-21 3.5v55q9 -2 23.5 -3.5t27.5 -1.5q32 0 49.5 9.5t17.5 34.5q0 26 -24 38t-61 17l40 86h57l-23 -53q22 -5 40.5 -15.5t29.5 -27.5t11 -43z" />
    <glyph glyph-name="uni0163" unicode="&#x163;" horiz-adv-x="345" 
d="M252 62q19 0 39 3.5t33 7.5v-67q-14 -7 -39.5 -11.5t-48.5 -4.5q-40 0 -74 14.5t-54.5 50.5t-20.5 101v312h-71v42l73 35l33 114h52v-123h146v-68h-146v-310q0 -49 22 -72.5t56 -23.5zM302 -139q0 -32 -15.5 -54.5t-46 -34.5t-77.5 -12q-15 0 -28 1.5t-21 3.5v55
q9 -2 23.5 -3.5t27.5 -1.5q32 0 49.5 9.5t17.5 34.5q0 26 -24 38t-61 17l40 86h57l-23 -53q22 -5 40.5 -15.5t29.5 -27.5t11 -43z" />
    <glyph glyph-name="Tcaron" unicode="&#x164;" horiz-adv-x="524" 
d="M307 0h-89v635h-208v79h503v-79h-206v-635zM424 931q-18 -19 -41 -45t-44 -52.5t-33 -49.5h-90q-12 23 -33 49.5t-43.5 52.5t-39.5 45v13h59q25 -17 51.5 -41t49.5 -51q26 27 52 51t51 41h61v-13z" />
    <glyph glyph-name="tcaron" unicode="&#x165;" horiz-adv-x="345" 
d="M453 751q-4 -18 -15 -45t-25 -55.5t-28 -50.5h-48v12q5 14 9.5 33t8.5 39.5t7.5 40t5.5 35.5h85v-9zM252 62q19 0 39 3.5t33 7.5v-67q-14 -7 -39.5 -11.5t-48.5 -4.5q-40 0 -74 14.5t-54.5 50.5t-20.5 101v312h-71v42l73 35l33 114h52v-123h146v-68h-146v-310
q0 -49 22 -72.5t56 -23.5z" />
    <glyph glyph-name="Tbar" unicode="&#x166;" horiz-adv-x="524" 
d="M217 0v325h-138v74h138v235h-207v80h503v-80h-207v-235h137v-74h-137v-325h-89z" />
    <glyph glyph-name="tbar" unicode="&#x167;" horiz-adv-x="361" 
d="M24 280v66h302v-66h-302zM252 62q19 0 39 3.5t33 7.5v-67q-14 -7 -39.5 -11.5t-48.5 -4.5q-40 0 -74 14.5t-54.5 50.5t-20.5 101v312h-71v42l73 35l33 114h52v-123h146v-68h-146v-310q0 -49 22 -72.5t56 -23.5z" />
    <glyph glyph-name="Utilde" unicode="&#x168;" horiz-adv-x="689" 
d="M604 252q0 -74 -28.5 -133.5t-87 -94t-147.5 -34.5q-126 0 -191.5 72.5t-65.5 191.5v460h89v-463q0 -87 43 -135t130 -48q60 0 97 23.5t54.5 65t17.5 95.5v462h89v-462zM519 913q-6 -58 -33 -93t-71 -35q-20 0 -39 8.5t-37 20t-35 20t-32 8.5q-22 0 -33.5 -14.5
t-17.5 -43.5h-50q3 30 11.5 53.5t21.5 40t31.5 25.5t40.5 9q21 0 40 -8.5t37 -20t34.5 -20t31.5 -8.5q21 0 32.5 14.5t18.5 43.5h49z" />
    <glyph glyph-name="utilde" unicode="&#x169;" horiz-adv-x="583" 
d="M504 536v-536h-70l-13 71h-4q-16 -28 -41.5 -46t-55.5 -26.5t-63 -8.5q-60 0 -101 20.5t-61.5 63.5t-20.5 111v351h88v-345q0 -64 27 -96t83 -32q55 0 86.5 22.5t45 66t13.5 105.5v279h87zM466 735q-6 -58 -33 -93t-71 -35q-20 0 -39 8.5t-37 20t-35 20t-32 8.5
q-22 0 -33.5 -14.5t-17.5 -43.5h-50q3 30 11.5 53.5t21.5 40t31.5 25.5t40.5 9q21 0 40 -8.5t37 -20t34.5 -20t31.5 -8.5q21 0 32.5 14.5t18.5 43.5h49z" />
    <glyph glyph-name="Umacron" unicode="&#x16a;" horiz-adv-x="689" 
d="M604 252q0 -74 -28.5 -133.5t-87 -94t-147.5 -34.5q-126 0 -191.5 72.5t-65.5 191.5v460h89v-463q0 -87 43 -135t130 -48q60 0 97 23.5t54.5 65t17.5 95.5v462h89v-462zM485 855v-71h-282v71h282z" />
    <glyph glyph-name="umacron" unicode="&#x16b;" horiz-adv-x="583" 
d="M504 536v-536h-70l-13 71h-4q-16 -28 -41.5 -46t-55.5 -26.5t-63 -8.5q-60 0 -101 20.5t-61.5 63.5t-20.5 111v351h88v-345q0 -64 27 -96t83 -32q55 0 86.5 22.5t45 66t13.5 105.5v279h87zM432 677v-71h-282v71h282z" />
    <glyph glyph-name="Ubreve" unicode="&#x16c;" horiz-adv-x="689" 
d="M604 252q0 -74 -28.5 -133.5t-87 -94t-147.5 -34.5q-126 0 -191.5 72.5t-65.5 191.5v460h89v-463q0 -87 43 -135t130 -48q60 0 97 23.5t54.5 65t17.5 95.5v462h89v-462zM494 918q-3 -40 -21.5 -70t-51 -47t-78.5 -17q-71 0 -107 36.5t-40 97.5h53q3 -27 14.5 -40.5
t32 -18t48.5 -4.5q37 0 64 12t32 51h54z" />
    <glyph glyph-name="ubreve" unicode="&#x16d;" horiz-adv-x="583" 
d="M504 536v-536h-70l-13 71h-4q-16 -28 -41.5 -46t-55.5 -26.5t-63 -8.5q-60 0 -101 20.5t-61.5 63.5t-20.5 111v351h88v-345q0 -64 27 -96t83 -32q55 0 86.5 22.5t45 66t13.5 105.5v279h87zM441 740q-3 -40 -21.5 -70t-51 -47t-78.5 -17q-71 0 -107 36.5t-40 97.5h53
q3 -27 14.5 -40.5t32 -18t48.5 -4.5q37 0 64 12t32 51h54z" />
    <glyph glyph-name="Uring" unicode="&#x16e;" horiz-adv-x="689" 
d="M604 252q0 -74 -28.5 -133.5t-87 -94t-147.5 -34.5q-126 0 -191.5 72.5t-65.5 191.5v460h89v-463q0 -87 43 -135t130 -48q60 0 97 23.5t54.5 65t17.5 95.5v462h89v-462zM344 784q-46 0 -74.5 28t-28.5 78t28.5 77.5t74.5 27.5q45 0 75.5 -27.5t30.5 -76.5q0 -51 -30 -79
t-76 -28zM344 834q23 0 37.5 15t14.5 41t-14.5 41t-37.5 15q-22 0 -37 -15t-15 -41t13.5 -41t38.5 -15z" />
    <glyph glyph-name="uring" unicode="&#x16f;" horiz-adv-x="583" 
d="M504 536v-536h-70l-13 71h-4q-16 -28 -41.5 -46t-55.5 -26.5t-63 -8.5q-60 0 -101 20.5t-61.5 63.5t-20.5 111v351h88v-345q0 -64 27 -96t83 -32q55 0 86.5 22.5t45 66t13.5 105.5v279h87zM291 606q-46 0 -74.5 28t-28.5 78t28.5 77.5t74.5 27.5q45 0 75.5 -27.5
t30.5 -76.5q0 -51 -30 -79t-76 -28zM291 656q23 0 37.5 15t14.5 41t-14.5 41t-37.5 15q-22 0 -37 -15t-15 -41t13.5 -41t38.5 -15z" />
    <glyph glyph-name="Uhungarumlaut" unicode="&#x170;" horiz-adv-x="689" 
d="M604 252q0 -74 -28.5 -133.5t-87 -94t-147.5 -34.5q-126 0 -191.5 72.5t-65.5 191.5v460h89v-463q0 -87 43 -135t130 -48q60 0 97 23.5t54.5 65t17.5 95.5v462h89v-462zM516 934q-7 -13 -22 -33t-33.5 -42t-37 -41.5t-34.5 -33.5h-49v12q13 19 28 45t29.5 53.5t24.5 49.5
h94v-10zM349 934q-7 -13 -21.5 -33t-33 -42t-37.5 -41.5t-35 -33.5h-49v12q13 19 28 45t29.5 53.5t24.5 49.5h94v-10z" />
    <glyph glyph-name="uhungarumlaut" unicode="&#x171;" horiz-adv-x="583" 
d="M504 536v-536h-70l-13 71h-4q-16 -28 -41.5 -46t-55.5 -26.5t-63 -8.5q-60 0 -101 20.5t-61.5 63.5t-20.5 111v351h88v-345q0 -64 27 -96t83 -32q55 0 86.5 22.5t45 66t13.5 105.5v279h87zM463 756q-7 -13 -22 -33t-33.5 -42t-37 -41.5t-34.5 -33.5h-49v12q13 19 28 45
t29.5 53.5t24.5 49.5h94v-10zM296 756q-7 -13 -21.5 -33t-33 -42t-37.5 -41.5t-35 -33.5h-49v12q13 19 28 45t29.5 53.5t24.5 49.5h94v-10z" />
    <glyph glyph-name="Uogonek" unicode="&#x172;" horiz-adv-x="731" 
d="M435 -107q0 -29 12 -41.5t33 -12.5q17 0 28.5 2.5t19.5 3.5v-56q-14 -4 -28 -6.5t-34 -2.5q-53 0 -78 26t-25 77q0 32 16 62.5t39 55.5t43 39l63 11q-30 -34 -50 -61t-29.5 -50t-9.5 -47zM604 252q0 -74 -28.5 -133.5t-87 -94t-147.5 -34.5q-126 0 -191.5 72.5
t-65.5 191.5v460h89v-463q0 -87 43 -135t130 -48q60 0 97 23.5t54.5 65t17.5 95.5v462h89v-462z" />
    <glyph glyph-name="uogonek" unicode="&#x173;" horiz-adv-x="583" 
d="M504 536v-536h-70l-13 71h-4q-16 -28 -41.5 -46t-55.5 -26.5t-63 -8.5q-60 0 -101 20.5t-61.5 63.5t-20.5 111v351h88v-345q0 -64 27 -96t83 -32q55 0 86.5 22.5t45 66t13.5 105.5v279h87zM433 -116q0 -22 11.5 -33.5t30.5 -11.5q15 0 26.5 2.5t18.5 3.5v-56
q-13 -4 -26.5 -6.5t-32.5 -2.5q-33 0 -55 11t-32.5 32.5t-10.5 50.5t14 56t34.5 49t39.5 36l46 -15q-31 -32 -47.5 -58.5t-16.5 -57.5z" />
    <glyph glyph-name="Wcircumflex" unicode="&#x174;" horiz-adv-x="876" 
d="M865 714l-178 -714h-91l-127 468q-6 21 -11.5 43l-10.5 42t-8 34.5t-4 21.5q-1 -7 -4 -21.5t-7 -34.5t-9.5 -42.5t-11.5 -45.5l-124 -465h-92l-177 714h93l103 -436q7 -30 13 -60t10.5 -57.5t7.5 -52.5q4 26 9 55.5t12 59.5t15 60l116 431h92l121 -434q9 -31 15.5 -62
t12 -59t8.5 -51q3 25 8 52.5t11.5 57.5t13.5 61l102 435h92zM482 944q12 -22 33 -49.5t44 -54t41 -45.5v-11h-61q-25 16 -51 39.5t-52 50.5q-25 -27 -50.5 -50t-50.5 -40h-59v11q18 20 40 46t43 53.5t33 49.5h90z" />
    <glyph glyph-name="wcircumflex" unicode="&#x175;" horiz-adv-x="743" 
d="M409 303q-11 41 -21.5 80.5t-14.5 61.5h-4q-4 -22 -13.5 -61.5t-21.5 -81.5l-87 -301h-98l-139 536h90l69 -286q7 -29 13.5 -58.5t11.5 -56t7 -45.5h4q3 17 8.5 42t12 52.5t12.5 49.5l87 302h96l84 -302q7 -23 13.5 -49t12 -50.5t7.5 -43.5h3q3 25 13 69t21 90l70 286h88
l-140 -536h-101zM416 766q12 -22 33 -49.5t44 -54t41 -45.5v-11h-61q-25 16 -51 39.5t-52 50.5q-25 -27 -50.5 -50t-50.5 -40h-59v11q18 20 40 46t43 53.5t33 49.5h90z" />
    <glyph glyph-name="Ycircumflex" unicode="&#x176;" horiz-adv-x="536" 
d="M268 363l172 351h96l-223 -437v-277h-89v273l-224 441h97zM312 944q12 -22 33 -49.5t44 -54t41 -45.5v-11h-61q-25 16 -51 39.5t-52 50.5q-25 -27 -50.5 -50t-50.5 -40h-59v11q18 20 40 46t43 53.5t33 49.5h90z" />
    <glyph glyph-name="ycircumflex" unicode="&#x177;" horiz-adv-x="484" 
d="M1 536h94l107 -305q10 -27 18 -52t14 -48.5t9 -45.5h3q6 25 17.5 65.5t24.5 81.5l101 304h95l-217 -610q-18 -50 -42.5 -87.5t-59.5 -58t-84 -20.5q-22 0 -39.5 2.5t-29.5 5.5v70q10 -2 25 -4t31 -2q29 0 50 11.5t36 33t25 50.5l25 71zM286 766q12 -22 33 -49.5t44 -54
t41 -45.5v-11h-61q-25 16 -51 39.5t-52 50.5q-25 -27 -50.5 -50t-50.5 -40h-59v11q18 20 40 46t43 53.5t33 49.5h90z" />
    <glyph glyph-name="Ydieresis" unicode="&#x178;" horiz-adv-x="536" 
d="M268 363l172 351h96l-223 -437v-277h-89v273l-224 441h97zM134 859q0 26 13.5 37.5t32.5 11.5q18 0 31.5 -11.5t13.5 -37.5q0 -25 -13.5 -37.5t-31.5 -12.5q-19 0 -32.5 12.5t-13.5 37.5zM311 859q0 26 13.5 37.5t31.5 11.5q19 0 32.5 -11.5t13.5 -37.5
q0 -25 -13.5 -37.5t-32.5 -12.5q-18 0 -31.5 12.5t-13.5 37.5z" />
    <glyph glyph-name="Zacute" unicode="&#x179;" horiz-adv-x="539" 
d="M503 0h-468v68l351 566h-340v80h448v-68l-351 -566h360v-80zM420 934q-9 -14 -25.5 -34t-36 -41.5t-39.5 -41t-37 -33.5h-57v12q14 19 31 45t33 53.5t27 49.5h104v-10z" />
    <glyph glyph-name="zacute" unicode="&#x17a;" horiz-adv-x="443" 
d="M407 0h-371v58l268 410h-252v68h349v-66l-265 -402h271v-68zM369 756q-9 -14 -25.5 -34t-36 -41.5t-39.5 -41t-37 -33.5h-57v12q14 19 31 45t33 53.5t27 49.5h104v-10z" />
    <glyph glyph-name="Zdotaccent" unicode="&#x17b;" horiz-adv-x="539" 
d="M503 0h-468v68l351 566h-340v80h448v-68l-351 -566h360v-80zM273 915q20 0 35 -13.5t15 -42.5q0 -28 -15 -42t-35 -14q-21 0 -36 14t-15 42q0 29 15 42.5t36 13.5z" />
    <glyph glyph-name="zdotaccent" unicode="&#x17c;" horiz-adv-x="443" 
d="M407 0h-371v58l268 410h-252v68h349v-66l-265 -402h271v-68zM222 737q20 0 35 -13.5t15 -42.5q0 -28 -15 -42t-35 -14q-21 0 -36 14t-15 42q0 29 15 42.5t36 13.5z" />
    <glyph glyph-name="Zcaron" unicode="&#x17d;" horiz-adv-x="539" 
d="M503 0h-468v68l351 566h-340v80h448v-68l-351 -566h360v-80zM435 931q-18 -19 -41 -45t-44 -52.5t-33 -49.5h-90q-12 23 -33 49.5t-43.5 52.5t-39.5 45v13h59q25 -17 51.5 -41t49.5 -51q26 27 52 51t51 41h61v-13z" />
    <glyph glyph-name="zcaron" unicode="&#x17e;" horiz-adv-x="443" 
d="M407 0h-371v58l268 410h-252v68h349v-66l-265 -402h271v-68zM384 753q-18 -19 -41 -45t-44 -52.5t-33 -49.5h-90q-12 23 -33 49.5t-43.5 52.5t-39.5 45v13h59q25 -17 51.5 -41t49.5 -51q26 27 52 51t51 41h61v-13z" />
    <glyph glyph-name="longs" unicode="&#x17f;" horiz-adv-x="310" 
d="M247 692q-38 0 -59.5 -26t-21.5 -89v-577h-87v577q0 69 20.5 110t58.5 59.5t88 18.5q31 0 54.5 -5.5t42.5 -13.5l-22 -69q-15 5 -34.5 10t-39.5 5z" />
    <glyph glyph-name="uni0180" unicode="&#x180;" horiz-adv-x="579" 
d="M322 -10q-39 0 -69 10.5t-51 28.5t-35 39h-7l-18 -68h-63v605h-71v66h71v89h88v-89h196v-66h-196v-30q0 -34 -1.5 -63.5t-3.5 -46.5h5q21 34 58.5 57t96.5 23q62 0 108.5 -31t72 -92.5t25.5 -153.5t-26 -154t-72 -93t-108 -31zM307 63q66 0 99 53t33 153q0 101 -33 152
t-101 51q-51 0 -81.5 -21.5t-43.5 -66t-13 -113.5v-4q0 -99 29.5 -151.5t110.5 -52.5z" />
    <glyph glyph-name="uni0181" unicode="&#x181;" horiz-adv-x="691" 
d="M169 0v637h-25q-29 0 -43 -13.5t-14 -36.5q0 -16 3.5 -31.5t5.5 -22.5h-77q-4 11 -7 27t-3 28q0 43 14.5 71t45 41.5t76.5 13.5h217q84 0 141 -17t86 -56t29 -104q0 -63 -32.5 -104.5t-93.5 -53.5v-5q42 -7 75.5 -26t53 -54t19.5 -91q0 -65 -28.5 -110.5t-81 -69
t-124.5 -23.5h-237zM390 76q87 0 121 37t34 97q0 38 -15 66t-50.5 43.5t-96.5 15.5h-125v-259h132zM379 410q84 0 115.5 29.5t31.5 87.5q0 59 -38.5 84.5t-121.5 25.5h-108v-227h121z" />
    <glyph glyph-name="uni0182" unicode="&#x182;" horiz-adv-x="581" 
d="M91 0v714h401v-79h-312v-223h96q101 0 156.5 -26.5t78 -72t22.5 -104.5q0 -65 -24.5 -112t-78.5 -72t-143 -25h-196zM279 77q89 0 125.5 32.5t36.5 99.5q0 46 -17.5 73.5t-56.5 39.5t-102 12h-85v-257h99z" />
    <glyph glyph-name="uni0183" unicode="&#x183;" horiz-adv-x="579" 
d="M321 -10q-39 0 -69 10.5t-51 28.5t-35 39h-7l-17 -68h-63v760h398v-74h-311v-111q0 -22 -1 -43.5t-2 -38.5t-2 -28h5q21 34 59 57t96 23q63 0 109.5 -31t72 -92.5t25.5 -153.5t-26 -154t-72.5 -93t-108.5 -31zM307 63q65 0 98 53t33 153q0 101 -33 152t-100 51
q-52 0 -82.5 -21.5t-43.5 -66t-13 -113.5v-4q0 -99 29.5 -151.5t111.5 -52.5z" />
    <glyph glyph-name="uni0184" unicode="&#x184;" horiz-adv-x="599" 
d="M321 -10q-87 0 -139 28t-75 77.5t-23 114.5v504h89v-302h123q94 0 149.5 -28t80.5 -75t25 -104q0 -94 -57 -154.5t-173 -60.5zM320 67q73 0 106 35.5t33 102.5q0 46 -20 74.5t-58.5 41.5t-95.5 13h-112v-124q0 -78 35 -110.5t112 -32.5z" />
    <glyph glyph-name="uni0185" unicode="&#x185;" horiz-adv-x="577" 
d="M304 -10q-69 0 -120 31t-79 92.5t-28 153.5v493h87v-185q0 -34 -1.5 -63.5t-3.5 -46.5h5q21 34 59 57t97 23q62 0 108.5 -31t72 -92.5t25.5 -153.5t-27 -154t-77 -93t-118 -31zM305 63q66 0 98.5 53t32.5 153q0 101 -32.5 152t-100.5 51q-78 0 -108.5 -49t-30.5 -152v-6
q0 -96 37 -149t104 -53z" />
    <glyph glyph-name="uni0186" unicode="&#x186;" horiz-adv-x="594" 
d="M228 -10q-55 0 -95 7t-78 22v78q39 -12 78 -20t82 -8q71 0 122 34.5t78.5 99.5t27.5 154q0 66 -14.5 119.5t-43 91t-71 57.5t-98.5 20q-45 0 -83 -12t-69 -27l-35 76q38 20 88.5 31t111.5 11q77 0 134.5 -25.5t96 -74t58 -116.5t19.5 -152q0 -108 -36.5 -190.5
t-105.5 -129t-167 -46.5z" />
    <glyph glyph-name="uni0187" unicode="&#x187;" horiz-adv-x="594" 
d="M598 858q18 0 32.5 -4t24.5 -9v-72q-7 3 -20.5 6.5t-28.5 3.5q-22 0 -33.5 -12t-11.5 -36v-51l-34 -78q-31 15 -68 27t-81 12q-53 0 -95 -19.5t-71.5 -57t-45 -91t-15.5 -120.5q0 -88 25 -153t75.5 -100t125.5 -35q44 0 83.5 8t78.5 20v-78q-38 -15 -78 -22t-96 -7
q-103 0 -171.5 45t-102.5 128t-34 195q0 81 21 148t62 116t101 75.5t138 26.5q28 0 55.5 -3.5t52.5 -10.5v14q0 43 11.5 73t36 45.5t63.5 15.5z" />
    <glyph glyph-name="uni0188" unicode="&#x188;" horiz-adv-x="473" 
d="M282 -10q-68 0 -120 29t-81.5 90t-29.5 156q0 99 31 161t84.5 91t121.5 29q15 0 30.5 -2t29.5 -4v91q0 43 11.5 73t36 45.5t63.5 15.5q18 0 32.5 -4t24.5 -9v-73q-6 3 -19.5 6.5t-29.5 3.5q-21 0 -32.5 -12t-11.5 -36v-124l-27 -73q-23 9 -53.5 17t-56.5 8q-49 0 -81 -23
t-48 -68t-16 -112q0 -64 16 -109t47.5 -68t77.5 -23q41 0 73 9t59 22v-78q-26 -14 -57 -21.5t-75 -7.5z" />
    <glyph glyph-name="uni0189" unicode="&#x189;" horiz-adv-x="687" 
d="M298 714q101 0 175.5 -40t115.5 -117.5t41 -192.5q0 -120 -42 -201t-120.5 -122t-190.5 -41h-180v314h-69v78h69v322h201zM287 637h-101v-245h163v-78h-163v-237h83q134 0 200.5 71.5t66.5 212.5q0 143 -65 209.5t-184 66.5z" />
    <glyph glyph-name="uni018A" unicode="&#x18a;" horiz-adv-x="765" 
d="M169 0v637h-25q-29 0 -43 -13.5t-14 -36.5q0 -16 3.5 -31.5t5.5 -22.5h-77q-4 11 -7 27t-3 28q0 43 14.5 71t45 41.5t76.5 13.5h231q102 0 176.5 -40t115 -117.5t40.5 -192.5q0 -120 -42 -201t-120.5 -122t-189.5 -41h-187zM347 77q134 0 200.5 71.5t66.5 212.5
q0 143 -65 209.5t-184 66.5h-107v-560h89z" />
    <glyph glyph-name="uni018B" unicode="&#x18b;" horiz-adv-x="581" 
d="M301 0q-133 0 -193 52t-60 146q0 56 25.5 105t84.5 79t159 30h84v223h-312v79h401v-714h-189zM309 77h92v258h-74q-63 0 -104.5 -13t-62 -42.5t-20.5 -77.5q0 -63 41 -94t128 -31z" />
    <glyph glyph-name="uni018C" unicode="&#x18c;" horiz-adv-x="579" 
d="M257 -10q-62 0 -108.5 31t-72 92.5t-25.5 153.5t26 154t72.5 93.5t108.5 31.5q39 0 68 -10.5t50.5 -28.5t36.5 -40h6q-1 13 -3.5 38.5t-2.5 40.5v140h-311v74h398v-760h-70l-13 72h-4q-15 -23 -36.5 -41.5t-51 -29.5t-68.5 -11zM273 63q78 0 109.5 46.5t31.5 140.5v16
q0 100 -30 153.5t-112 53.5q-66 0 -98.5 -56.5t-32.5 -151.5q0 -96 32.5 -149t99.5 -53z" />
    <glyph glyph-name="uni018D" unicode="&#x18d;" horiz-adv-x="569" 
d="M268 -224q-65 0 -111.5 17t-84.5 37l38 69q35 -21 74.5 -36t86.5 -15q42 0 61.5 20.5t19.5 48.5q0 24 -12 43t-40 39.5t-74 47.5q-57 33 -96.5 69.5t-59.5 81t-20 102.5q0 80 29.5 135t82.5 83t125 28q67 0 119.5 -26t82.5 -76.5t30 -121.5q0 -64 -25.5 -112t-70 -80.5
t-99.5 -49.5q34 -22 60.5 -45.5t41 -52.5t14.5 -66q0 -69 -49 -104.5t-123 -35.5zM257 118q28 7 58 21.5t55.5 38t41.5 59t16 86.5q0 44 -16.5 78t-48.5 53t-76 19q-47 0 -80 -20t-50 -58.5t-17 -93.5q0 -68 31 -110t86 -73z" />
    <glyph glyph-name="uni018E" unicode="&#x18e;" horiz-adv-x="523" 
d="M432 714v-714h-376v79h287v255h-270v78h270v223h-287v79h376z" />
    <glyph glyph-name="uni018F" unicode="&#x18f;" horiz-adv-x="700" 
d="M317 646q-43 0 -82 -5.5t-72.5 -15t-63.5 -20.5v82q28 11 59 19.5t70.5 13.5t90.5 5q80 0 140 -26t101 -75t61.5 -116.5t20.5 -151.5q0 -83 -19.5 -150.5t-58 -115.5t-95.5 -74t-131 -26q-101 0 -163 45.5t-90 128t-28 193.5v34h491q-4 81 -30.5 138t-76 87t-124.5 30z
M338 69q61 0 106.5 28t72.5 82.5t31 132.5h-396q0 -75 18 -129.5t58.5 -84t109.5 -29.5z" />
    <glyph glyph-name="uni0190" unicode="&#x190;" horiz-adv-x="557" 
d="M296 724q71 0 127 -21.5t95 -52.5l-42 -61q-37 27 -77 44t-100 17q-57 0 -92 -29t-35 -83q0 -40 20 -69.5t60.5 -45.5t102.5 -16h88v-75h-93q-98 0 -153 -31t-55 -99q0 -44 20.5 -75t60 -47t96.5 -16q51 0 104.5 15t96.5 37v-82q-42 -22 -93.5 -33t-114.5 -11
q-94 0 -152 26.5t-84 73t-26 105.5q0 76 44.5 121t129.5 57v4q-43 8 -75.5 29.5t-50.5 56.5t-18 84q0 52 25 91.5t73 62.5t118 23z" />
    <glyph glyph-name="uni0191" unicode="&#x191;" horiz-adv-x="560" 
d="M125 -242q-45 0 -77 16t-48.5 46.5t-16.5 71.5q0 17 3.5 32.5t7.5 28.5l82 -26q-1 -7 -2.5 -15t-1.5 -17q0 -26 14.5 -44t42.5 -18q30 0 46 26.5t16 69.5v785h345v-79h-257v-223h240v-79h-240v-414q0 -73 -39 -117t-115 -44z" />
    <glyph glyph-name="florin" unicode="&#x192;" horiz-adv-x="406" 
d="M121 -242q-66 0 -101.5 36t-35.5 89q0 14 2 26t5 21l76 -16q-1 -5 -1.5 -11t-0.5 -12q0 -28 14 -43t42 -15q32 0 46 25.5t14 66.5v543h-87v41l87 30v31q0 69 19.5 112t56.5 63t89 20q31 0 56.5 -5.5t44.5 -12.5l-23 -69q-16 5 -35.5 10t-40.5 5q-40 0 -59.5 -29.5
t-19.5 -92.5v-35h126v-68h-126v-553q0 -43 -15 -78.5t-47.5 -57t-85.5 -21.5z" />
    <glyph glyph-name="uni0193" unicode="&#x193;" horiz-adv-x="684" 
d="M642 858q17 0 32 -4t25 -9v-72q-7 3 -20.5 6.5t-28.5 3.5q-22 0 -33.5 -12t-11.5 -36v-53l-33 -78q-35 17 -79.5 29t-91.5 12q-79 0 -135 -35t-86 -99.5t-30 -153.5q0 -85 25 -150.5t79.5 -102t142.5 -36.5q43 0 73 5t55 12v212h-146v80h235v-350q-54 -19 -109.5 -28
t-126.5 -9q-104 0 -175.5 44.5t-108.5 127t-37 195.5q0 112 41 194t119 127.5t188 45.5q34 0 65.5 -4.5t60.5 -12.5v17q0 43 11.5 73t36 45.5t63.5 15.5z" />
    <glyph glyph-name="uni0194" unicode="&#x194;" horiz-adv-x="542" 
d="M270 -240q-52 0 -81 38t-29 95q0 30 8.5 66t22.5 74t31 74l-222 607h93l131 -373q10 -29 19 -56t16 -51.5t11 -48.5q5 24 11.5 49t16 52.5t19.5 56.5l130 371h95l-224 -606q21 -43 35 -83t21 -73.5t7 -58.5q0 -56 -29.5 -94.5t-81.5 -38.5zM270 -162q15 0 23.5 13.5
t8.5 43.5q0 23 -7.5 59.5t-24.5 70.5q-17 -37 -24.5 -71.5t-7.5 -56.5q0 -31 9.5 -45t22.5 -14z" />
    <glyph glyph-name="uni0195" unicode="&#x195;" horiz-adv-x="882" 
d="M602 -10q-67 0 -112 20.5t-68 64t-23 111.5v157q0 65 -24.5 97t-76.5 32q-50 0 -79 -22.5t-41 -66t-12 -106.5v-277h-87v760h87v-223q0 -19 -1.5 -39t-3.5 -36h6q15 28 38 46t51 27.5t58 9.5q57 0 95 -20.5t57.5 -63.5t19.5 -112v-157q0 -64 28.5 -96.5t87.5 -32.5
q61 0 89 35t28 114v324h87v-327q0 -120 -51.5 -169.5t-152.5 -49.5z" />
    <glyph glyph-name="uni0196" unicode="&#x196;" horiz-adv-x="330" 
d="M230 -10q-42 0 -75 14.5t-52 51t-19 101.5v557h89v-549q0 -48 17 -72t54 -24q21 0 43 3.5t34 7.5v-74q-13 -7 -39 -11.5t-52 -4.5z" />
    <glyph glyph-name="uni0197" unicode="&#x197;" horiz-adv-x="322" 
d="M284 714v-52l-79 -20v-237h85v-78h-85v-256l79 -19v-52h-247v52l79 19v256h-85v78h85v237l-79 20v52h247z" />
    <glyph glyph-name="uni0198" unicode="&#x198;" horiz-adv-x="585" 
d="M522 720q17 0 28.5 -2t20.5 -6v-70q-7 2 -20 2.5t-22 0.5q-13 0 -27 -7.5t-38 -38.5l-150 -194l271 -405h-104l-228 342l-73 -77v-265h-89v714h89v-360q26 35 55 72t55 72l113 152q24 32 42.5 46.5t36.5 19t40 4.5z" />
    <glyph glyph-name="uni0199" unicode="&#x199;" horiz-adv-x="508" 
d="M197 765q18 0 35 -4t27 -9v-73q-7 3 -20.5 6.5t-28.5 3.5q-22 0 -33.5 -13t-11.5 -45v-268q0 -16 -1 -42t-3 -45h4q6 9 17 23.5t23 30t21 25.5l159 181h101l-204 -229l218 -307h-104l-173 250l-58 -53v-197h-86v625q0 46 13 77t39.5 47t65.5 16z" />
    <glyph glyph-name="uni019A" unicode="&#x19a;" horiz-adv-x="248" 
d="M81 0v354h-67v66h67v340h87v-340h66v-66h-66v-354h-87z" />
    <glyph glyph-name="uni019B" unicode="&#x19b;" horiz-adv-x="514" 
d="M-5 0l217 526l-21 64l-99 -32l-18 63l92 30q-13 24 -29 33t-42 9q-16 0 -29 -2t-23 -4v71q9 2 19 4t21.5 3t22.5 1q37 0 62.5 -10t44 -29.5t33.5 -50.5l102 33l18 -63l-95 -32l166 -498q9 -28 21 -41t28 -13q7 0 15 2t13 3v-65q-10 -5 -24.5 -8.5t-30.5 -3.5
q-24 0 -41.5 8t-30 26t-22.5 47l-67 205q-6 18 -13 39.5t-13 43.5t-11.5 41.5t-8.5 34.5h-3q-8 -35 -21.5 -75t-29.5 -79l-112 -281h-91z" />
    <glyph glyph-name="uni019C" unicode="&#x19c;" horiz-adv-x="969" 
d="M270 -10q-62 0 -103.5 22.5t-62 71t-20.5 124.5v506h89v-506q0 -70 26.5 -105t84.5 -35q55 0 88.5 22.5t48.5 65.5t15 106v452h89v-506q0 -70 27 -105t86 -35q57 0 89.5 24.5t46.5 72.5t14 117v432h89v-714h-70l-15 82h-5q-17 -31 -44 -51.5t-59 -30.5t-66 -10
q-63 0 -103 24.5t-61 75.5h-5q-28 -51 -76.5 -75.5t-102.5 -24.5z" />
    <glyph glyph-name="uni019D" unicode="&#x19d;" horiz-adv-x="718" 
d="M43 -240q-17 0 -30.5 3.5t-23.5 9.5v76q9 -4 20 -7t23 -3q29 0 44 17.5t15 64.5v793h104l353 -591h3q0 10 -1 25.5t-1.5 35.5t-1.5 42t-1.5 44t-0.5 41v403h82v-714h-105l-354 593h-3q1 -14 1.5 -31t1.5 -36.5t2 -40.5t1.5 -42.5t0.5 -43.5v-482q0 -55 -14.5 -89.5
t-43 -51t-71.5 -16.5z" />
    <glyph glyph-name="uni019E" unicode="&#x19e;" horiz-adv-x="584" 
d="M325 546q60 0 101 -20.5t61.5 -64t20.5 -112.5v-589h-87v583q0 64 -26.5 96.5t-83.5 32.5q-54 0 -86 -22.5t-45.5 -65.5t-13.5 -106v-278h-87v536h70l13 -73h5q16 28 41 46.5t55 27.5t62 9z" />
    <glyph glyph-name="uni019F" unicode="&#x19f;" horiz-adv-x="736" 
d="M678 358q0 -83 -20 -150.5t-59 -116.5t-97 -75t-134 -26q-79 0 -137.5 26.5t-97 75t-57.5 116.5t-19 151q0 110 34 192t103.5 128t174.5 46q101 0 170 -45.5t104 -128t35 -193.5zM368 68q70 0 116.5 30.5t70.5 88t28 138.5h-431q4 -81 28.5 -138.5t71 -88t116.5 -30.5z
M369 646q-69 0 -115 -29t-71 -83.5t-31 -130.5h430q-8 114 -59.5 178.5t-153.5 64.5z" />
    <glyph glyph-name="Ohorn" unicode="&#x1a0;" horiz-adv-x="740" 
d="M677 358q0 -83 -19.5 -150.5t-58.5 -116.5t-97 -75t-134 -26q-79 0 -137.5 26.5t-97 75t-57.5 116.5t-19 151q0 110 34 192t103 128t175 46q77 0 135.5 -27.5t97.5 -76.5q26 8 38.5 27.5t16.5 48.5t4 63h93l6 -11q-10 -59 -37.5 -109t-86.5 -73q20 -43 30.5 -95.5
t10.5 -113.5zM151 358q0 -90 23 -155t71 -100t123 -35q76 0 123 35t69.5 100t22.5 155q0 134 -50.5 211t-163.5 77q-76 0 -124 -34.5t-71 -99t-23 -154.5z" />
    <glyph glyph-name="ohorn" unicode="&#x1a1;" horiz-adv-x="584" 
d="M520 269q0 -89 -29 -151.5t-82 -95t-126 -32.5q-67 0 -119.5 32.5t-82.5 95t-30 151.5q0 133 63 205t172 72q50 0 92 -18t73 -51q28 9 41.5 29.5t17.5 49.5t4 62h92l7 -11q-8 -46 -23 -82t-39.5 -61.5t-62.5 -39.5q15 -31 23.5 -70t8.5 -85zM141 269q0 -67 15 -113
t47 -69.5t82 -23.5q51 0 83 23.5t47 69.5t15 113t-15.5 112t-47.5 68t-83 23q-76 0 -109.5 -51t-33.5 -152z" />
    <glyph glyph-name="uni01A2" unicode="&#x1a2;" horiz-adv-x="1014" 
d="M649 358q0 -83 -19 -150.5t-56 -116.5t-92.5 -75t-128.5 -26q-75 0 -130.5 26.5t-92.5 75t-55 116.5t-18 151q0 110 32.5 192t98.5 128t166 46q69 0 122 -23.5t90 -67.5q29 47 77 69t101 22q63 0 104 -22.5t61.5 -70.5t20.5 -125v-507h-89v507q0 70 -27 105t-85 35
q-49 0 -80.5 -15t-48.5 -46q24 -46 36.5 -103t12.5 -125zM151 358q0 -90 21.5 -155t66.5 -100t114 -35q70 0 114.5 35t66 100t21.5 155t-21.5 154.5t-65.5 99t-114 34.5t-115 -34.5t-66.5 -99t-21.5 -154.5z" />
    <glyph glyph-name="uni01A3" unicode="&#x1a3;" horiz-adv-x="801" 
d="M496 269q0 -67 -15.5 -118.5t-44.5 -87.5t-70.5 -54.5t-93.5 -18.5q-48 0 -88 18.5t-70 54.5t-46.5 87.5t-16.5 118.5q0 89 27 150.5t77 94t119 32.5q50 0 90.5 -18.5t69.5 -53.5q25 37 61.5 54.5t76.5 17.5q51 0 85 -20.5t51 -64t17 -112.5v-589h-87v585q0 63 -21 95
t-65 32q-30 0 -51.5 -11t-35.5 -33q16 -31 23.5 -71.5t7.5 -87.5zM141 269q0 -63 14 -109.5t43 -71.5t75 -25t75.5 25t44 71.5t14.5 109.5q0 64 -14.5 109t-44 69.5t-75.5 24.5q-69 0 -100.5 -54t-31.5 -149z" />
    <glyph glyph-name="uni01A4" unicode="&#x1a4;" horiz-adv-x="649" 
d="M169 0v637h-25q-29 0 -43 -13.5t-14 -36.5q0 -16 3.5 -31.5t5.5 -22.5h-77q-4 11 -7 27t-3 28q0 43 14.5 71t45 41.5t76.5 13.5h204q132 0 192 -55t60 -155q0 -44 -14 -84.5t-44.5 -72.5t-82 -50.5t-126.5 -18.5h-76v-278h-89zM324 355q62 0 103 14.5t61.5 46.5t20.5 84
q0 69 -40.5 103t-126.5 34h-84v-282h66z" />
    <glyph glyph-name="uni01A5" unicode="&#x1a5;" horiz-adv-x="579" 
d="M198 765q18 0 35 -4t27 -9v-73q-7 3 -20.5 6.5t-29.5 3.5q-21 0 -32.5 -13t-11.5 -45v-80q0 -19 -2 -45t-4 -43h6q15 23 36 42t50.5 30t69.5 11q62 0 108.5 -30.5t72 -92t25.5 -154.5q0 -91 -25.5 -153.5t-72 -94t-109.5 -31.5q-38 0 -67.5 11t-51 28.5t-36.5 38.5h-5
q2 -17 3.5 -43t1.5 -45v-220h-87v865q0 46 13.5 77t40 47t65.5 16zM305 472q-50 0 -80.5 -20.5t-44.5 -61.5t-14 -104v-17q0 -66 12.5 -112t43.5 -70t85 -24q45 0 74 27t43 73.5t14 106.5q0 92 -32.5 147t-100.5 55z" />
    <glyph glyph-name="uni01A6" unicode="&#x1a6;" horiz-adv-x="588" 
d="M471 -100l-162 295h-129v-195h-89v714h89v-100h97q84 0 138.5 -22.5t81 -67.5t26.5 -113q0 -57 -19.5 -95t-50 -60.5t-64.5 -35.5l186 -320h-104zM276 271q81 0 118 34.5t37 101.5q0 47 -17 75t-52.5 41t-89.5 13h-92v-265h96z" />
    <glyph glyph-name="uni01A7" unicode="&#x1a7;" horiz-adv-x="516" 
d="M256 724q95 0 154.5 -48.5t59.5 -133.5q0 -42 -11.5 -74t-33 -57t-54 -44.5t-74.5 -36.5q-58 -23 -94.5 -43.5t-53 -44.5t-16.5 -59t16.5 -61t49.5 -40t81 -14q53 0 103.5 15.5t85.5 31.5v-86q-33 -16 -81.5 -27.5t-104.5 -11.5q-73 0 -127 24t-83 68.5t-29 108.5
q0 56 23 93t66 63.5t101 49.5q54 22 86 41t46 43t14 60q0 47 -31 75.5t-92 28.5q-40 0 -77 -11t-69 -27l-28 77q37 18 80 29t93 11z" />
    <glyph glyph-name="uni01A8" unicode="&#x1a8;" horiz-adv-x="452" 
d="M215 546q61 0 103.5 -16.5t64.5 -48t22 -77.5q0 -44 -18.5 -72t-53.5 -48t-84 -40q-37 -15 -61 -27.5t-37.5 -24.5t-19 -24.5t-5.5 -27.5q0 -36 28 -57.5t89 -21.5q44 0 86.5 13.5t73.5 29.5v-80q-30 -16 -68 -25t-91 -9q-100 0 -151 40t-51 118q0 43 18 71t52 48.5
t81 39.5q48 20 76 34.5t40 30t12 37.5q0 30 -26 47.5t-75 17.5q-30 0 -62 -10t-64 -24l-29 70q37 17 74 26.5t76 9.5z" />
    <glyph glyph-name="uni01A9" unicode="&#x1a9;" horiz-adv-x="537" 
d="M34 0v74l220 299l-214 266v75h447v-80h-237h-35.5t-42 0.5t-31.5 0.5l211 -261l-221 -296q35 0 70.5 0.5t72.5 0.5h240v-79h-480z" />
    <glyph glyph-name="uni01AA" unicode="&#x1aa;" horiz-adv-x="340" 
d="M111 765q40 0 67.5 -15.5t42.5 -46.5t15 -79v-696q0 -48 17.5 -72t54.5 -24q20 0 42.5 3.5t35.5 7.5v-67q-14 -7 -39.5 -11.5t-51.5 -4.5q-42 0 -75 14.5t-51.5 51t-18.5 101.5v615h-41q-62 0 -89.5 31.5t-27.5 80.5q0 28 11 53.5t37 41.5t71 16zM104 693
q-19 0 -27.5 -12t-8.5 -27q0 -22 13.5 -31t32.5 -9h36v13q0 29 -10 47.5t-36 18.5z" />
    <glyph glyph-name="uni01AB" unicode="&#x1ab;" horiz-adv-x="345" 
d="M212 -240q-18 0 -33 4t-25 8v73q8 -3 20 -6t27 -3q21 0 33 12.5t12 39.5v102h-9h-10q-27 0 -52 8t-45 26.5t-31.5 50.5t-11.5 81v312h-71v42l73 35l33 114h52v-123h146v-68h-146v-310q0 -49 20.5 -72.5t57.5 -23.5q19 0 39 3.5t33 7.5v-180q0 -64 -27.5 -98.5
t-84.5 -34.5z" />
    <glyph glyph-name="uni01AC" unicode="&#x1ac;" horiz-adv-x="544" 
d="M238 0v635h-94q-29 0 -43 -12.5t-14 -35.5q0 -16 3.5 -31.5t5.5 -22.5h-77q-4 11 -7 27t-3 28q0 43 14.5 71t45 41.5t76.5 13.5h388v-79h-206v-635h-89z" />
    <glyph glyph-name="uni01AD" unicode="&#x1ad;" horiz-adv-x="345" 
d="M229 765q22 0 42 -4t32 -9v-73q-9 3 -30 6.5t-43 3.5q-29 0 -42.5 -17t-13.5 -51v-85h146v-68h-146v-310q0 -49 22 -72.5t56 -23.5q19 0 39 3.5t33 7.5v-67q-14 -7 -39.5 -11.5t-48.5 -4.5q-40 0 -74 14.5t-54.5 50.5t-20.5 101v312h-71v42l72 35v66q0 50 15.5 84t47 52
t78.5 18z" />
    <glyph glyph-name="uni01AE" unicode="&#x1ae;" horiz-adv-x="524" 
d="M347 -240q-64 0 -96.5 37.5t-32.5 119.5v718h-208v79h503v-79h-206v-714q0 -47 15 -64.5t43 -17.5q12 0 23 3t20 7v-76q-10 -6 -26.5 -9.5t-34.5 -3.5z" />
    <glyph glyph-name="Uhorn" unicode="&#x1af;" horiz-adv-x="740" 
d="M604 617q30 5 45.5 24t21 49.5t5.5 69.5h92l6 -11q-6 -36 -17 -67.5t-30 -57t-49 -43.5t-74 -26v-303q0 -74 -26.5 -133.5t-83.5 -94t-147 -34.5q-129 0 -196 72.5t-67 191.5v460h89v-464q0 -86 44 -134t132 -48q60 0 96.5 23.5t53 65t16.5 94.5v463h89v-97z" />
    <glyph glyph-name="uhorn" unicode="&#x1b0;" horiz-adv-x="640" 
d="M673 608q-6 -35 -17 -68t-30 -59.5t-48.5 -44t-73.5 -22.5v-414h-70l-13 71h-4q-16 -28 -41 -46t-55 -26.5t-62 -8.5q-61 0 -102 20.5t-62 63.5t-21 111v350h88v-344q0 -64 27 -96t83 -32q82 0 113.5 50t31.5 144v278h87v-59q30 6 45 25t20.5 49.5t5.5 68.5h91z" />
    <glyph glyph-name="uni01B1" unicode="&#x1b1;" horiz-adv-x="735" 
d="M368 68q74 0 121 29.5t70 84.5t23 131q0 67 -14.5 125t-48 109t-91.5 95v72h272v-79h-167q40 -32 72.5 -80t51.5 -109t19 -136q0 -98 -36 -170t-105 -111.5t-167 -39.5q-99 0 -168.5 39t-105.5 111t-36 170q0 75 19 136.5t51.5 109.5t72.5 80h-167v79h273v-72
q-57 -44 -91.5 -95t-49.5 -109.5t-15 -124.5q0 -76 23.5 -131t71.5 -84.5t122 -29.5z" />
    <glyph glyph-name="uni01B2" unicode="&#x1b2;" horiz-adv-x="689" 
d="M341 -10q-126 0 -191.5 72.5t-65.5 191.5v460h89v-463q0 -87 43 -135t130 -48q60 0 97 23.5t54.5 65t17.5 95.5v322q0 39 -16 55t-47 16q-20 0 -39 -5.5t-35 -14.5v76q15 11 40 17t51 6q68 0 101.5 -35.5t33.5 -108.5v-328q0 -74 -28.5 -133.5t-87 -94t-147.5 -34.5z" />
    <glyph glyph-name="uni01B3" unicode="&#x1b3;" horiz-adv-x="566" 
d="M224 0v273l-224 441h97l171 -351l118 240q20 41 38 66.5t40.5 38t53.5 12.5q13 0 25 -2t20 -5v-73q-6 2 -14.5 3.5t-15.5 1.5q-15 0 -25.5 -8t-20.5 -24.5t-24 -42.5l-150 -293v-277h-89z" />
    <glyph glyph-name="uni01B4" unicode="&#x1b4;" horiz-adv-x="515" 
d="M460 546q16 0 30.5 -3.5t24.5 -8.5v-65q-5 2 -13 3.5t-16 1.5q-11 0 -19.5 -5.5t-15.5 -18t-14 -32.5l-169 -490q-26 -77 -69 -122.5t-117 -45.5q-22 0 -39.5 2.5t-29.5 5.5v70q10 -2 24.5 -4t30.5 -2q29 0 51 12t37.5 33.5t25.5 51.5l23 69l-203 538h93l107 -305
q14 -40 25 -76.5t17 -69.5h3q6 25 19 65.5t26 82.5l69 214q13 39 26 60.5t31 30t42 8.5z" />
    <glyph glyph-name="uni01B5" unicode="&#x1b5;" horiz-adv-x="539" 
d="M73 407h173l140 227h-340v80h448v-68l-149 -239h113v-71h-160l-155 -256h360v-80h-468v68l164 268h-126v71z" />
    <glyph glyph-name="uni01B6" unicode="&#x1b6;" horiz-adv-x="443" 
d="M401 536v-66l-103 -157h93v-70h-142l-113 -175h271v-68h-371v58l120 185h-103v70h151l100 155h-252v68h349z" />
    <glyph glyph-name="uni01B7" unicode="&#x1b7;" horiz-adv-x="550" 
d="M470 714v-71l-228 -236q120 -4 188.5 -54t68.5 -149q0 -62 -29.5 -110.5t-90 -76t-152.5 -27.5q-55 0 -103.5 8.5t-91.5 30.5v82q44 -22 96 -34.5t99 -12.5q91 0 135 37t44 104q0 45 -23.5 73.5t-68.5 42t-112 13.5h-62v73l216 227h-305v80h419z" />
    <glyph glyph-name="uni01B8" unicode="&#x1b8;" horiz-adv-x="550" 
d="M312 -10q-91 0 -149 30.5t-85 81t-27 109.5q0 76 31 126t82.5 75.5t110.5 27.5l-196 203v71h419v-80h-305l191 -202v-65h-72q-48 0 -86.5 -16t-60.5 -49.5t-22 -88.5q0 -69 44.5 -109t135.5 -40q47 0 99 12.5t96 34.5v-82q-43 -22 -93 -30.5t-113 -8.5z" />
    <glyph glyph-name="uni01B9" unicode="&#x1b9;" horiz-adv-x="474" 
d="M273 -240q-75 0 -129 30t-83 82t-29 117q0 79 30.5 130t83 78t117.5 31l-206 244v64h389v-74h-286l204 -243v-61h-55q-58 0 -100.5 -17t-66 -53.5t-23.5 -96.5q0 -47 20 -83t56.5 -55.5t84.5 -19.5q37 0 69.5 6t60.5 16t49 20v-80q-31 -16 -76.5 -25.5t-109.5 -9.5z" />
    <glyph glyph-name="uni01BA" unicode="&#x1ba;" horiz-adv-x="475" 
d="M205 -240q-51 0 -91 12.5t-63 39t-23 67.5q0 33 15 60.5t52.5 44t106.5 16.5q39 0 65.5 7t42.5 22t23 38t7 55q0 43 -19.5 68t-58 36.5t-95.5 11.5h-56v61l170 163h-252v74h374v-64l-175 -164q48 -2 85 -15t63 -36.5t39 -56.5t13 -77q0 -42 -12 -78t-38.5 -62.5t-69 -41
t-104.5 -14.5q-39 0 -59.5 -6t-28 -16.5t-7.5 -25.5q0 -21 25 -33.5t74 -12.5t87.5 11.5t65.5 24.5v-80q-27 -13 -66.5 -21t-89.5 -8z" />
    <glyph glyph-name="uni01BB" unicode="&#x1bb;" horiz-adv-x="537" 
d="M245 765q59 0 102 -21.5t66 -62t23 -97.5q0 -42 -9.5 -81.5t-32.5 -83.5h91v-70h-135l-208 -275v-4h348v-70h-446v73l207 276h-180v70h228q26 46 36.5 83.5t10.5 79.5q0 53 -28.5 79.5t-75.5 26.5q-44 0 -77 -17t-68 -49l-46 59q25 24 54 43t64 30t76 11z" />
    <glyph glyph-name="uni01BC" unicode="&#x1bc;" horiz-adv-x="549" 
d="M225 -10q-54 0 -102.5 8.5t-90.5 30.5v82q29 -15 61.5 -25.5t67 -16t65.5 -5.5q60 0 99.5 18.5t59.5 54t20 85.5q0 75 -47 110t-117 35h-117v267h-88v80h434v-80h-257v-193h38q71 0 126.5 -25.5t88 -74.5t32.5 -120q0 -67 -29.5 -119.5t-90 -82t-153.5 -29.5z" />
    <glyph glyph-name="uni01BD" unicode="&#x1bd;" horiz-adv-x="465" 
d="M204 -10q-54 0 -99 9.5t-74 25.5v79q21 -10 48 -20t58.5 -16t65.5 -6q38 0 68 11t48 35t18 63q0 53 -35.5 77.5t-107.5 24.5h-85v189h-69v74h353v-74h-206v-117h27q78 0 123.5 -21.5t65.5 -59.5t20 -87t-23.5 -91.5t-72 -69t-123.5 -26.5z" />
    <glyph glyph-name="uni01BE" unicode="&#x1be;" horiz-adv-x="438" 
d="M194 -10q-35 0 -64 4t-52.5 11.5t-43.5 18.5v80q20 -10 46 -20t55.5 -16.5t58.5 -6.5q42 0 68 9.5t38 27.5t12 42q0 19 -9.5 34t-32 30t-63.5 33q-27 12 -44.5 29t-26 44t-8.5 68v90h-86v42l87 35l33 114h52v-123h145v-68h-145v-92q0 -23 4.5 -37t14 -22t25.5 -15
q43 -17 73.5 -37t47.5 -48t17 -69q0 -52 -24.5 -87t-69.5 -53t-108 -18z" />
    <glyph glyph-name="uni01BF" unicode="&#x1bf;" horiz-adv-x="555" 
d="M314 546q57 0 101 -25t69.5 -74.5t25.5 -123.5q0 -71 -24.5 -130t-70.5 -102.5t-109 -69.5t-140 -31v-230h-87v776h71l12 -73h4q14 23 34 42t48 30t66 11zM295 472q-70 0 -99.5 -46t-29.5 -140v-224q54 3 100.5 23t81 54.5t53.5 80.5t19 101q0 46 -15 79.5t-42.5 52.5
t-67.5 19z" />
    <glyph glyph-name="uni01C0" unicode="&#x1c0;" horiz-adv-x="301" 
d="M113 0v760h75v-760h-75z" />
    <glyph glyph-name="uni01C1" unicode="&#x1c1;" horiz-adv-x="525" 
d="M113 0v760h75v-760h-75zM337 0v760h75v-760h-75z" />
    <glyph glyph-name="uni01C2" unicode="&#x1c2;" horiz-adv-x="485" 
d="M280 760v-255h145v-72h-145v-94h145v-72h-145v-267h-75v267h-145v72h145v94h-145v72h145v255h75z" />
    <glyph glyph-name="uni01C3" unicode="&#x1c3;" horiz-adv-x="269" 
d="M162 201h-70l-17 513h105zM67 54q0 37 17.5 52t42.5 15q24 0 42 -15t18 -52q0 -36 -18 -52t-42 -16q-25 0 -42.5 16t-17.5 52z" />
    <glyph glyph-name="uni01C4" unicode="&#x1c4;" horiz-adv-x="1217" 
d="M630 364q0 -120 -42 -201t-120.5 -122t-189.5 -41h-187v714h207q102 0 176.5 -40t115 -117.5t40.5 -192.5zM536 361q0 95 -29 156t-84.5 90.5t-135.5 29.5h-107v-560h89q134 0 200.5 71.5t66.5 212.5zM1181 0h-468v68l351 566h-340v80h448v-68l-351 -566h360v-80z
M1155 931q-18 -19 -41 -45t-44 -52.5t-33 -49.5h-90q-12 23 -33 49.5t-43.5 52.5t-39.5 45v13h59q25 -17 51.5 -41t49.5 -51q26 27 52 51t51 41h61v-13z" />
    <glyph glyph-name="uni01C5" unicode="&#x1c5;" horiz-adv-x="1130" 
d="M630 364q0 -120 -42 -201t-120.5 -122t-189.5 -41h-187v714h207q102 0 176.5 -40t115 -117.5t40.5 -192.5zM536 361q0 95 -29 156t-84.5 90.5t-135.5 29.5h-107v-560h89q134 0 200.5 71.5t66.5 212.5zM1094 0h-371v58l268 410h-252v68h349v-66l-265 -402h271v-68z
M1110 753q-18 -19 -41 -45t-44 -52.5t-33 -49.5h-90q-12 23 -33 49.5t-43.5 52.5t-39.5 45v13h59q25 -17 51.5 -41t49.5 -51q26 27 52 51t51 41h61v-13z" />
    <glyph glyph-name="uni01C6" unicode="&#x1c6;" horiz-adv-x="1022" 
d="M257 -10q-93 0 -149.5 69.5t-56.5 207.5t57 208.5t150 70.5q39 0 68 -10.5t50.5 -28.5t36.5 -40h6q-1 13 -3.5 38.5t-2.5 40.5v214h87v-760h-70l-13 72h-4q-15 -23 -36.5 -41.5t-51 -29.5t-68.5 -11zM273 63q78 0 109.5 46.5t31.5 140.5v16q0 100 -30 153.5t-112 53.5
q-66 0 -98.5 -56.5t-32.5 -151.5q0 -96 32.5 -149t99.5 -53zM986 0h-371v58l268 410h-252v68h349v-66l-265 -402h271v-68zM995 753q-18 -19 -41 -45t-44 -52.5t-33 -49.5h-90q-12 23 -33 49.5t-43.5 52.5t-39.5 45v13h59q25 -17 51.5 -41t49.5 -51q26 27 52 51t51 41h61v-13
z" />
    <glyph glyph-name="uni01C7" unicode="&#x1c7;" horiz-adv-x="756" 
d="M91 0v714h89v-634h292v-80h-381zM494 -190q-23 0 -40.5 3.5t-30.5 9.5v76q15 -4 32 -7t36 -3q24 0 44.5 10t33.5 35t13 70v710h89v-703q0 -69 -22 -113.5t-61.5 -66t-93.5 -21.5z" />
    <glyph glyph-name="uni01C8" unicode="&#x1c8;" horiz-adv-x="742" 
d="M91 0v714h89v-634h292v-80h-381zM518 -240q-24 0 -42.5 3.5t-31.5 8.5v71q14 -4 29 -7t33 -3q31 0 50.5 17.5t19.5 66.5v619h87v-616q0 -50 -15 -86t-47 -55t-83 -19zM569 681q0 29 15 42.5t36 13.5q20 0 35 -13.5t15 -42.5q0 -28 -15 -42t-35 -14q-21 0 -36 14t-15 42z
" />
    <glyph glyph-name="uni01C9" unicode="&#x1c9;" horiz-adv-x="491" 
d="M166 0h-87v760h87v-760zM267 -240q-24 0 -42.5 3.5t-31.5 8.5v71q14 -4 29 -7t33 -3q31 0 50.5 17.5t19.5 66.5v619h87v-616q0 -50 -15 -86t-47 -55t-83 -19zM318 681q0 29 15 42.5t36 13.5q20 0 35 -13.5t15 -42.5q0 -28 -15 -42t-35 -14q-21 0 -36 14t-15 42z" />
    <glyph glyph-name="uni01CA" unicode="&#x1ca;" horiz-adv-x="979" 
d="M628 0h-105l-354 593h-4q1 -18 2.5 -40t2.5 -47.5t2 -52.5t1 -54v-399h-82v714h104l353 -591h4q-1 12 -2 33.5t-2 48t-2 54.5t-1 52v403h83v-714zM717 -190q-23 0 -40.5 3.5t-30.5 9.5v76q15 -4 32 -7t36 -3q24 0 44.5 10t33.5 35t13 70v710h89v-703q0 -69 -22 -113.5
t-61.5 -66t-93.5 -21.5z" />
    <glyph glyph-name="uni01CB" unicode="&#x1cb;" horiz-adv-x="965" 
d="M628 0h-105l-354 593h-4q1 -18 2.5 -40t2.5 -47.5t2 -52.5t1 -54v-399h-82v714h104l353 -591h4q-1 12 -2 33.5t-2 48t-2 54.5t-1 52v403h83v-714zM741 -240q-24 0 -42.5 3.5t-31.5 8.5v71q14 -4 29 -7t33 -3q31 0 50.5 17.5t19.5 66.5v619h87v-616q0 -50 -15 -86t-47 -55
t-83 -19zM792 681q0 29 15 42.5t36 13.5q20 0 35 -13.5t15 -42.5q0 -28 -15 -42t-35 -14q-21 0 -36 14t-15 42z" />
    <glyph glyph-name="uni01CC" unicode="&#x1cc;" horiz-adv-x="830" 
d="M325 546q90 0 136.5 -46.5t46.5 -150.5v-349h-87v343q0 65 -27 97t-83 32q-82 0 -113.5 -50t-31.5 -144v-278h-87v536h70l13 -73h5q16 28 41 46.5t55 27.5t62 9zM606 -240q-24 0 -42.5 3.5t-31.5 8.5v71q14 -4 29 -7t33 -3q31 0 50.5 17.5t19.5 66.5v619h87v-616
q0 -50 -15 -86t-47 -55t-83 -19zM657 681q0 29 15 42.5t36 13.5q20 0 35 -13.5t15 -42.5q0 -28 -15 -42t-35 -14q-21 0 -36 14t-15 42z" />
    <glyph glyph-name="uni01CD" unicode="&#x1cd;" horiz-adv-x="604" 
d="M511 0l-78 221h-265l-77 -221h-91l260 717h84l259 -717h-92zM333 517q-2 8 -8.5 29t-13 43.5t-10.5 34.5q-7 -31 -15.5 -60.5t-14.5 -46.5l-74 -216h210zM463 931q-18 -19 -41 -45t-44 -52.5t-33 -49.5h-90q-12 23 -33 49.5t-43.5 52.5t-39.5 45v13h59q25 -17 51.5 -41
t49.5 -51q26 27 52 51t51 41h61v-13z" />
    <glyph glyph-name="uni01CE" unicode="&#x1ce;" horiz-adv-x="531" 
d="M272 545q92 0 137.5 -43t45.5 -137v-365h-63l-17 76h-4q-22 -29 -44.5 -48.5t-52 -28.5t-72.5 -9q-45 0 -81 17t-57 52.5t-21 89.5q0 80 59 123.5t182 47.5l85 3v32q0 67 -26.5 93t-75.5 26q-39 0 -74.5 -12.5t-67.5 -28.5l-27 66q34 19 79 32.5t95 13.5zM296 259
q-92 -4 -127.5 -32t-35.5 -79q0 -45 25 -66t65 -21q62 0 104 37.5t42 115.5v48zM426 753q-18 -19 -41 -45t-44 -52.5t-33 -49.5h-90q-12 23 -33 49.5t-43.5 52.5t-39.5 45v13h59q25 -17 51.5 -41t49.5 -51q26 27 52 51t51 41h61v-13z" />
    <glyph glyph-name="uni01CF" unicode="&#x1cf;" horiz-adv-x="322" 
d="M284 0h-247v52l79 19v571l-79 20v52h247v-52l-79 -20v-571l79 -19v-52zM315 931q-18 -19 -41 -45t-44 -52.5t-33 -49.5h-90q-12 23 -33 49.5t-43.5 52.5t-39.5 45v13h59q25 -17 51.5 -41t49.5 -51q26 27 52 51t51 41h61v-13z" />
    <glyph glyph-name="uni01D0" unicode="&#x1d0;" horiz-adv-x="245" 
d="M166 0h-87v536h87v-536zM274 753q-18 -19 -41 -45t-44 -52.5t-33 -49.5h-90q-12 23 -33 49.5t-43.5 52.5t-39.5 45v13h59q25 -17 51.5 -41t49.5 -51q26 27 52 51t51 41h61v-13z" />
    <glyph glyph-name="uni01D1" unicode="&#x1d1;" horiz-adv-x="735" 
d="M678 358q0 -83 -20 -150.5t-59 -116.5t-97 -75t-134 -26q-79 0 -137.5 26.5t-97 75t-57.5 116.5t-19 151q0 110 34 192t103.5 128t174.5 46q101 0 170 -45.5t104 -128t35 -193.5zM151 358q0 -90 23 -155t71.5 -100t122.5 -35q75 0 123 35t70.5 100t22.5 155
q0 135 -51.5 211.5t-163.5 76.5q-75 0 -123.5 -34.5t-71.5 -99t-23 -154.5zM536 931q-18 -19 -41 -45t-44 -52.5t-33 -49.5h-90q-12 23 -33 49.5t-43.5 52.5t-39.5 45v13h59q25 -17 51.5 -41t49.5 -51q26 27 52 51t51 41h61v-13z" />
    <glyph glyph-name="uni01D2" unicode="&#x1d2;" horiz-adv-x="570" 
d="M520 269q0 -67 -16.5 -118.5t-47.5 -87.5t-75 -54.5t-98 -18.5q-50 0 -92.5 18.5t-74 54.5t-48.5 87.5t-17 118.5q0 89 28.5 150.5t81.5 94t125 32.5q69 0 121.5 -32.5t82.5 -94t30 -150.5zM141 269q0 -63 15 -109.5t47 -71.5t82 -25t82 25t47.5 71.5t15.5 109.5
q0 64 -15.5 109t-47.5 69.5t-83 24.5q-75 0 -109 -54t-34 -149zM448 753q-18 -19 -41 -45t-44 -52.5t-33 -49.5h-90q-12 23 -33 49.5t-43.5 52.5t-39.5 45v13h59q25 -17 51.5 -41t49.5 -51q26 27 52 51t51 41h61v-13z" />
    <glyph glyph-name="uni01D3" unicode="&#x1d3;" horiz-adv-x="689" 
d="M604 252q0 -74 -28.5 -133.5t-87 -94t-147.5 -34.5q-126 0 -191.5 72.5t-65.5 191.5v460h89v-463q0 -87 43 -135t130 -48q60 0 97 23.5t54.5 65t17.5 95.5v462h89v-462zM511 931q-18 -19 -41 -45t-44 -52.5t-33 -49.5h-90q-12 23 -33 49.5t-43.5 52.5t-39.5 45v13h59
q25 -17 51.5 -41t49.5 -51q26 27 52 51t51 41h61v-13z" />
    <glyph glyph-name="uni01D4" unicode="&#x1d4;" horiz-adv-x="583" 
d="M504 536v-536h-70l-13 71h-4q-16 -28 -41.5 -46t-55.5 -26.5t-63 -8.5q-60 0 -101 20.5t-61.5 63.5t-20.5 111v351h88v-345q0 -64 27 -96t83 -32q55 0 86.5 22.5t45 66t13.5 105.5v279h87zM454 753q-18 -19 -41 -45t-44 -52.5t-33 -49.5h-90q-12 23 -33 49.5t-43.5 52.5
t-39.5 45v13h59q25 -17 51.5 -41t49.5 -51q26 27 52 51t51 41h61v-13z" />
    <glyph glyph-name="uni01D5" unicode="&#x1d5;" horiz-adv-x="689" 
d="M507 1014v-71h-282v71h282zM277 878q19 0 32 -12t13 -38t-13 -37.5t-32 -11.5q-18 0 -31.5 11.5t-13.5 37.5t13.5 38t31.5 12zM454 878q19 0 32 -12t13 -38t-13 -37.5t-32 -11.5q-18 0 -31.5 11.5t-13.5 37.5t13.5 38t31.5 12zM604 252q0 -74 -28.5 -133.5t-87 -94
t-147.5 -34.5q-126 0 -191.5 72.5t-65.5 191.5v460h89v-463q0 -87 43 -135t130 -48q60 0 97 23.5t54.5 65t17.5 95.5v462h89v-462z" />
    <glyph glyph-name="uni01D6" unicode="&#x1d6;" horiz-adv-x="583" 
d="M450 836v-71h-282v71h282zM220 700q19 0 32 -12t13 -38t-13 -37.5t-32 -11.5q-18 0 -31.5 11.5t-13.5 37.5t13.5 38t31.5 12zM397 700q19 0 32 -12t13 -38t-13 -37.5t-32 -11.5q-18 0 -31.5 11.5t-13.5 37.5t13.5 38t31.5 12zM504 536v-536h-70l-13 71h-4
q-16 -28 -41.5 -46t-55.5 -26.5t-63 -8.5q-60 0 -101 20.5t-61.5 63.5t-20.5 111v351h88v-345q0 -64 27 -96t83 -32q55 0 86.5 22.5t45 66t13.5 105.5v279h87z" />
    <glyph glyph-name="uni01D7" unicode="&#x1d7;" horiz-adv-x="689" 
d="M315 916q22 28 48 63.5t41 69.5h103v-10q-11 -18 -34.5 -43t-50.5 -49.5t-49 -42.5h-58v12zM277 779q-18 0 -31.5 11.5t-13.5 37.5t13.5 38t31.5 12q19 0 32 -12t13 -38t-13 -37.5t-32 -11.5zM454 779q-19 0 -32 11.5t-13 37.5t13 38t32 12t32 -12t13 -38t-13 -37.5
t-32 -11.5zM604 252q0 -74 -28.5 -133.5t-87 -94t-147.5 -34.5q-126 0 -191.5 72.5t-65.5 191.5v460h89v-463q0 -87 43 -135t130 -48q60 0 97 23.5t54.5 65t17.5 95.5v462h89v-462z" />
    <glyph glyph-name="uni01D8" unicode="&#x1d8;" horiz-adv-x="583" 
d="M258 738q22 28 48 63.5t41 69.5h103v-10q-11 -18 -34.5 -43t-50.5 -49.5t-49 -42.5h-58v12zM220 601q-18 0 -31.5 11.5t-13.5 37.5t13.5 38t31.5 12q19 0 32 -12t13 -38t-13 -37.5t-32 -11.5zM397 601q-19 0 -32 11.5t-13 37.5t13 38t32 12t32 -12t13 -38t-13 -37.5
t-32 -11.5zM504 536v-536h-70l-13 71h-4q-16 -28 -41.5 -46t-55.5 -26.5t-63 -8.5q-60 0 -101 20.5t-61.5 63.5t-20.5 111v351h88v-345q0 -64 27 -96t83 -32q55 0 86.5 22.5t45 66t13.5 105.5v279h87z" />
    <glyph glyph-name="uni01D9" unicode="&#x1d9;" horiz-adv-x="689" 
d="M321 909q-12 23 -33 47t-43 47.5t-39 42.5v13h57q25 -17 51.5 -36t49.5 -46q26 27 52 46t51 36h59v-13q-18 -19 -41 -42.5t-43.5 -47.5t-32.5 -47h-88zM277 779q-18 0 -31.5 11.5t-13.5 37.5t13.5 38t31.5 12t31.5 -12t13.5 -38t-13.5 -37.5t-31.5 -11.5zM454 779
q-19 0 -32.5 11.5t-13.5 37.5t13.5 38t32.5 12t32 -12t13 -38t-13 -37.5t-32 -11.5zM604 252q0 -74 -28.5 -133.5t-87 -94t-147.5 -34.5q-126 0 -191.5 72.5t-65.5 191.5v460h89v-463q0 -87 43 -135t130 -48q60 0 97 23.5t54.5 65t17.5 95.5v462h89v-462z" />
    <glyph glyph-name="uni01DA" unicode="&#x1da;" horiz-adv-x="583" 
d="M264 731q-12 23 -33 47t-43 47.5t-39 42.5v13h57q25 -17 51.5 -36t49.5 -46q26 27 52 46t51 36h59v-13q-18 -19 -41 -42.5t-43.5 -47.5t-32.5 -47h-88zM220 601q-18 0 -31.5 11.5t-13.5 37.5t13.5 38t31.5 12t31.5 -12t13.5 -38t-13.5 -37.5t-31.5 -11.5zM397 601
q-19 0 -32.5 11.5t-13.5 37.5t13.5 38t32.5 12t32 -12t13 -38t-13 -37.5t-32 -11.5zM504 536v-536h-70l-13 71h-4q-16 -28 -41.5 -46t-55.5 -26.5t-63 -8.5q-60 0 -101 20.5t-61.5 63.5t-20.5 111v351h88v-345q0 -64 27 -96t83 -32q55 0 86.5 22.5t45 66t13.5 105.5v279h87z
" />
    <glyph glyph-name="uni01DB" unicode="&#x1db;" horiz-adv-x="689" 
d="M328 1049q16 -34 42 -69.5t48 -63.5v-12h-59q-21 18 -48.5 42.5t-51 49.5t-34.5 43v10h103zM278 878q18 0 31 -12t13 -38t-13 -37.5t-31 -11.5q-19 0 -32.5 11.5t-13.5 37.5t13.5 38t32.5 12zM454 878q19 0 32 -12t13 -38t-13 -37.5t-32 -11.5q-18 0 -31.5 11.5
t-13.5 37.5t13.5 38t31.5 12zM604 252q0 -74 -28.5 -133.5t-87 -94t-147.5 -34.5q-126 0 -191.5 72.5t-65.5 191.5v460h89v-463q0 -87 43 -135t130 -48q60 0 97 23.5t54.5 65t17.5 95.5v462h89v-462z" />
    <glyph glyph-name="uni01DC" unicode="&#x1dc;" horiz-adv-x="583" 
d="M271 871q16 -34 42 -69.5t48 -63.5v-12h-59q-21 18 -48.5 42.5t-51 49.5t-34.5 43v10h103zM221 700q18 0 31 -12t13 -38t-13 -37.5t-31 -11.5q-19 0 -32.5 11.5t-13.5 37.5t13.5 38t32.5 12zM397 700q19 0 32 -12t13 -38t-13 -37.5t-32 -11.5q-18 0 -31.5 11.5
t-13.5 37.5t13.5 38t31.5 12zM504 536v-536h-70l-13 71h-4q-16 -28 -41.5 -46t-55.5 -26.5t-63 -8.5q-60 0 -101 20.5t-61.5 63.5t-20.5 111v351h88v-345q0 -64 27 -96t83 -32q55 0 86.5 22.5t45 66t13.5 105.5v279h87z" />
    <glyph glyph-name="uni01DD" unicode="&#x1dd;" horiz-adv-x="532" 
d="M237 546q72 0 127 -31t86 -92t31 -151q0 -88 -28 -151t-78.5 -97t-118.5 -34q-64 0 -111 30t-72.5 84.5t-25.5 127.5v53h344q-2 91 -43 138.5t-115 47.5q-48 0 -85.5 -9.5t-77.5 -27.5v77q39 18 77 26.5t90 8.5zM137 215q1 -45 13.5 -79.5t39 -54t67.5 -19.5
q58 0 92 40.5t40 112.5h-252z" />
    <glyph glyph-name="uni01DE" unicode="&#x1de;" horiz-adv-x="604" 
d="M459 1014v-71h-282v71h282zM229 878q19 0 32 -12t13 -38t-13 -37.5t-32 -11.5q-18 0 -31.5 11.5t-13.5 37.5t13.5 38t31.5 12zM406 878q19 0 32 -12t13 -38t-13 -37.5t-32 -11.5q-18 0 -31.5 11.5t-13.5 37.5t13.5 38t31.5 12zM511 0l-78 221h-265l-77 -221h-91l260 717
h84l259 -717h-92zM333 517q-2 8 -8.5 29t-13 43.5t-10.5 34.5q-7 -31 -15.5 -60.5t-14.5 -46.5l-74 -216h210z" />
    <glyph glyph-name="uni01DF" unicode="&#x1df;" horiz-adv-x="531" 
d="M422 836v-71h-282v71h282zM192 700q19 0 32 -12t13 -38t-13 -37.5t-32 -11.5q-18 0 -31.5 11.5t-13.5 37.5t13.5 38t31.5 12zM369 700q19 0 32 -12t13 -38t-13 -37.5t-32 -11.5q-18 0 -31.5 11.5t-13.5 37.5t13.5 38t31.5 12zM272 545q92 0 137.5 -43t45.5 -137v-365h-63
l-17 76h-4q-22 -29 -44.5 -48.5t-52 -28.5t-72.5 -9q-45 0 -81 17t-57 52.5t-21 89.5q0 80 59 123.5t182 47.5l85 3v32q0 67 -26.5 93t-75.5 26q-39 0 -74.5 -12.5t-67.5 -28.5l-27 66q34 19 79 32.5t95 13.5zM296 259q-92 -4 -127.5 -32t-35.5 -79q0 -45 25 -66t65 -21
q62 0 104 37.5t42 115.5v48z" />
    <glyph glyph-name="uni01E0" unicode="&#x1e0;" horiz-adv-x="604" 
d="M177 930v71h282v-71h-282zM319 882q20 0 34.5 -13.5t14.5 -42.5q0 -28 -14.5 -42t-34.5 -14q-21 0 -35.5 14t-14.5 42q0 29 14.5 42.5t35.5 13.5zM511 0l-78 221h-265l-77 -221h-91l260 717h84l259 -717h-92zM333 517q-2 8 -8.5 29t-13 43.5t-10.5 34.5
q-7 -31 -15.5 -60.5t-14.5 -46.5l-74 -216h210z" />
    <glyph glyph-name="uni01E1" unicode="&#x1e1;" horiz-adv-x="531" 
d="M422 837v-71h-282v71h282zM280 718q20 0 34.5 -13.5t14.5 -42.5q0 -28 -14.5 -42t-34.5 -14q-21 0 -35 14t-14 42q0 29 14 42.5t35 13.5zM272 545q92 0 137.5 -43t45.5 -137v-365h-63l-17 76h-4q-22 -29 -44.5 -48.5t-52 -28.5t-72.5 -9q-45 0 -81 17t-57 52.5t-21 89.5
q0 80 59 123.5t182 47.5l85 3v32q0 67 -26.5 93t-75.5 26q-39 0 -74.5 -12.5t-67.5 -28.5l-27 66q34 19 79 32.5t95 13.5zM296 259q-92 -4 -127.5 -32t-35.5 -79q0 -45 25 -66t65 -21q62 0 104 37.5t42 115.5v48z" />
    <glyph glyph-name="uni01E2" unicode="&#x1e2;" horiz-adv-x="833" 
d="M777 0h-354v221h-234l-98 -221h-92l317 714h461v-79h-265v-223h247v-78h-247v-255h265v-79zM223 301h200v333h-55zM604 855v-71h-282v71h282z" />
    <glyph glyph-name="uni01E3" unicode="&#x1e3;" horiz-adv-x="816" 
d="M570 546q61 0 105.5 -30t69 -84t24.5 -126v-54h-323q2 -96 38.5 -141.5t105.5 -45.5q47 0 83 9.5t73 27.5v-77q-37 -18 -74 -26.5t-85 -8.5q-43 0 -79.5 12.5t-64.5 38t-48 62.5q-22 -34 -47.5 -59.5t-60.5 -39.5t-84 -14q-45 0 -81.5 17t-57.5 52.5t-21 89.5t25 91
t76 57.5t128 22.5l85 3v34q0 65 -28 91t-75 26q-37 0 -73.5 -12t-67.5 -29l-27 66q34 20 81 33t93 13q59 0 97 -20.5t58 -65.5q25 41 64.5 64t90.5 23zM286 259q-86 -4 -119.5 -32t-33.5 -79q0 -45 23.5 -66t62.5 -21t69.5 16.5t48.5 50.5t18 86v48zM569 474
q-54 0 -85.5 -39.5t-36.5 -113.5h231q0 46 -12 80.5t-36 53.5t-61 19zM563 677v-71h-282v71h282z" />
    <glyph glyph-name="uni01E4" unicode="&#x1e4;" horiz-adv-x="684" 
d="M386 -10q-112 0 -185 45t-108.5 126.5t-35.5 192.5q0 112 41 195t119 129t188 46q56 0 106.5 -11t93.5 -31l-33 -78q-23 11 -51.5 20.5t-59.5 15t-63 5.5q-79 0 -134.5 -33.5t-84.5 -97.5t-29 -157q0 -89 25 -154t79.5 -100t142.5 -35q43 0 73 5t55 12v73h-136v71h136v78
h-146v80h235v-158h60v-71h-60v-128q-49 -17 -101.5 -28.5t-126.5 -11.5z" />
    <glyph glyph-name="uni01E5" unicode="&#x1e5;" horiz-adv-x="579" 
d="M257 546q50 0 89.5 -20t67.5 -61h5l11 71h70v-568h52v-71h-60q-13 -61 -67.5 -99t-152.5 -38q-55 0 -100 8.5t-82 25.5v81q37 -20 85 -31t102 -11q52 0 82.5 16.5t41.5 47.5h-155v71h168v65q0 17 1 36t2 30h-4q-26 -41 -65 -61t-90 -20q-65 0 -111.5 31t-71 90.5
t-24.5 142.5q0 121 54.5 192.5t151.5 71.5zM271 472q-41 0 -70.5 -22.5t-44.5 -65t-15 -103.5q0 -93 33.5 -142t98.5 -49q37 0 64 10t44 30.5t25.5 53t8.5 77.5v16q0 68 -15.5 111t-47 63.5t-81.5 20.5z" />
    <glyph glyph-name="uni01E6" unicode="&#x1e6;" horiz-adv-x="684" 
d="M379 377h235v-350q-54 -19 -109.5 -28t-126.5 -9q-104 0 -175.5 44.5t-108.5 127t-37 195.5q0 112 41 194t119 127.5t188 45.5q56 0 106.5 -11t93.5 -31l-33 -78q-35 17 -79.5 29t-91.5 12q-79 0 -135 -35t-86 -99.5t-30 -153.5q0 -85 25 -150.5t79.5 -102t142.5 -36.5
q29 0 51.5 2.5t41.5 6.5t35 8v212h-146v80zM550 931q-18 -19 -41 -45t-44 -52.5t-33 -49.5h-90q-12 23 -33 49.5t-43.5 52.5t-39.5 45v13h59q25 -17 51.5 -41t49.5 -51q26 27 52 51t51 41h61v-13z" />
    <glyph glyph-name="uni01E7" unicode="&#x1e7;" horiz-adv-x="579" 
d="M257 546q50 0 89.5 -20t67.5 -61h5l11 71h70v-545q0 -76 -24.5 -127.5t-75 -77.5t-128.5 -26q-55 0 -100 8.5t-82 25.5v81q25 -13 54.5 -22.5t63 -14.5t69.5 -5q64 0 100.5 40.5t36.5 110.5v21q0 12 1 34.5t2 31.5h-4q-26 -41 -65 -61t-90 -20q-97 0 -152 73t-55 204
q0 86 24.5 148.5t71 96.5t110.5 34zM271 472q-41 0 -70.5 -24t-44.5 -70t-15 -112q0 -99 33.5 -151.5t98.5 -52.5q37 0 64 10.5t44 33t25.5 57.5t8.5 83v21q0 73 -15.5 118t-47 66t-81.5 21zM442 753q-18 -19 -41 -45t-44 -52.5t-33 -49.5h-90q-12 23 -33 49.5t-43.5 52.5
t-39.5 45v13h59q25 -17 51.5 -41t49.5 -51q26 27 52 51t51 41h61v-13z" />
    <glyph glyph-name="uni01E8" unicode="&#x1e8;" horiz-adv-x="585" 
d="M585 0h-104l-233 341l-68 -64v-277h-89v714h89v-352q27 34 55 68l56 68l181 216h104l-264 -311zM485 931q-18 -19 -41 -45t-44 -52.5t-33 -49.5h-90q-12 23 -33 49.5t-43.5 52.5t-39.5 45v13h59q25 -17 51.5 -41t49.5 -51q26 27 52 51t51 41h61v-13z" />
    <glyph glyph-name="uni01E9" unicode="&#x1e9;" horiz-adv-x="508" 
d="M165 363q0 -16 -1.5 -42t-2.5 -45h4q6 8 17 23t23 30.5t21 25.5l159 181h101l-204 -229l218 -307h-104l-173 250l-58 -53v-197h-86v760h86v-397zM274 977q-18 -19 -41 -45t-44 -52.5t-33 -49.5h-90q-12 23 -33 49.5t-43.5 52.5t-39.5 45v13h59q25 -17 51.5 -41t49.5 -51
q26 27 52 51t51 41h61v-13z" />
    <glyph glyph-name="uni01EA" unicode="&#x1ea;" horiz-adv-x="735" 
d="M678 358q0 -83 -20 -150.5t-59 -116.5t-97 -75t-134 -26q-79 0 -137.5 26.5t-97 75t-57.5 116.5t-19 151q0 110 34 192t103.5 128t174.5 46q101 0 170 -45.5t104 -128t35 -193.5zM151 358q0 -90 23 -155t71.5 -100t122.5 -35q75 0 123 35t70.5 100t22.5 155
q0 135 -51.5 211.5t-163.5 76.5q-75 0 -123.5 -34.5t-71.5 -99t-23 -154.5zM384 -116q0 -22 11.5 -33.5t30.5 -11.5q15 0 26.5 2.5t18.5 3.5v-56q-13 -4 -26.5 -6.5t-32.5 -2.5q-33 0 -55 11t-32.5 32.5t-10.5 50.5t14 56t34.5 49t39.5 36l46 -15q-31 -32 -47.5 -58.5
t-16.5 -57.5z" />
    <glyph glyph-name="uni01EB" unicode="&#x1eb;" horiz-adv-x="570" 
d="M520 269q0 -67 -16.5 -118.5t-47.5 -87.5t-75 -54.5t-98 -18.5q-50 0 -92.5 18.5t-74 54.5t-48.5 87.5t-17 118.5q0 89 28.5 150.5t81.5 94t125 32.5q69 0 121.5 -32.5t82.5 -94t30 -150.5zM141 269q0 -63 15 -109.5t47 -71.5t82 -25t82 25t47.5 71.5t15.5 109.5
q0 64 -15.5 109t-47.5 69.5t-83 24.5q-75 0 -109 -54t-34 -149zM288 -116q0 -22 11.5 -33.5t30.5 -11.5q15 0 26.5 2.5t18.5 3.5v-56q-13 -4 -26.5 -6.5t-32.5 -2.5q-33 0 -55 11t-32.5 32.5t-10.5 50.5t14 56t34.5 49t39.5 36l46 -15q-31 -32 -47.5 -58.5t-16.5 -57.5z" />
    <glyph glyph-name="uni01EC" unicode="&#x1ec;" horiz-adv-x="735" 
d="M678 358q0 -83 -20 -150.5t-59 -116.5t-97 -75t-134 -26q-79 0 -137.5 26.5t-97 75t-57.5 116.5t-19 151q0 110 34 192t103.5 128t174.5 46q101 0 170 -45.5t104 -128t35 -193.5zM151 358q0 -90 23 -155t71.5 -100t122.5 -35q75 0 123 35t70.5 100t22.5 155
q0 135 -51.5 211.5t-163.5 76.5q-75 0 -123.5 -34.5t-71.5 -99t-23 -154.5zM515 855v-71h-282v71h282zM396 -116q0 -22 11.5 -33.5t30.5 -11.5q15 0 26.5 2.5t18.5 3.5v-56q-13 -4 -26.5 -6.5t-32.5 -2.5q-33 0 -55 11t-32.5 32.5t-10.5 50.5t14 56t34.5 49t39.5 36l46 -15
q-31 -32 -47.5 -58.5t-16.5 -57.5z" />
    <glyph glyph-name="uni01ED" unicode="&#x1ed;" horiz-adv-x="570" 
d="M520 269q0 -67 -16.5 -118.5t-47.5 -87.5t-75 -54.5t-98 -18.5q-50 0 -92.5 18.5t-74 54.5t-48.5 87.5t-17 118.5q0 89 28.5 150.5t81.5 94t125 32.5q69 0 121.5 -32.5t82.5 -94t30 -150.5zM141 269q0 -63 15 -109.5t47 -71.5t82 -25t82 25t47.5 71.5t15.5 109.5
q0 64 -15.5 109t-47.5 69.5t-83 24.5q-75 0 -109 -54t-34 -149zM427 677v-71h-282v71h282zM291 -116q0 -22 11.5 -33.5t30.5 -11.5q15 0 26.5 2.5t18.5 3.5v-56q-13 -4 -26.5 -6.5t-32.5 -2.5q-33 0 -55 11t-32.5 32.5t-10.5 50.5t14 56t34.5 49t39.5 36l46 -15
q-31 -32 -47.5 -58.5t-16.5 -57.5z" />
    <glyph glyph-name="uni01EE" unicode="&#x1ee;" horiz-adv-x="550" 
d="M470 714v-71l-228 -236q120 -4 188.5 -54t68.5 -149q0 -62 -29.5 -110.5t-90 -76t-152.5 -27.5q-55 0 -103.5 8.5t-91.5 30.5v82q44 -22 96 -34.5t99 -12.5q91 0 135 37t44 104q0 45 -23.5 73.5t-68.5 42t-112 13.5h-62v73l216 227h-305v80h419zM420 931q-18 -19 -41 -45
t-44 -52.5t-33 -49.5h-90q-12 23 -33 49.5t-43.5 52.5t-39.5 45v13h59q25 -17 51.5 -41t49.5 -51q26 27 52 51t51 41h61v-13z" />
    <glyph glyph-name="uni01EF" unicode="&#x1ef;" horiz-adv-x="474" 
d="M417 536v-64l-206 -244q66 -4 118 -30.5t82.5 -75t30.5 -121.5q0 -71 -30.5 -125.5t-87 -85t-134.5 -30.5q-37 0 -69 4t-59 12t-48 19v80q32 -16 78.5 -29t100.5 -13q49 0 85 20t56 57.5t20 88.5q0 56 -23 91t-65.5 51.5t-100.5 16.5h-55v61l204 243h-286v74h389z
M380 753q-18 -19 -41 -45t-44 -52.5t-33 -49.5h-90q-12 23 -33 49.5t-43.5 52.5t-39.5 45v13h59q25 -17 51.5 -41t49.5 -51q26 27 52 51t51 41h61v-13z" />
    <glyph glyph-name="uni01F0" unicode="&#x1f0;" horiz-adv-x="246" 
d="M22 -240q-24 0 -42.5 3.5t-31.5 8.5v71q14 -4 29 -7t33 -3q31 0 50.5 17.5t19.5 66.5v619h87v-616q0 -50 -15 -86t-47 -55t-83 -19zM274 753q-18 -19 -41 -45t-44 -52.5t-33 -49.5h-90q-12 23 -33 49.5t-43.5 52.5t-39.5 45v13h59q25 -17 51.5 -41t49.5 -51q26 27 52 51
t51 41h61v-13z" />
    <glyph glyph-name="uni01F1" unicode="&#x1f1;" horiz-adv-x="1217" 
d="M630 364q0 -120 -42 -201t-120.5 -122t-189.5 -41h-187v714h207q102 0 176.5 -40t115 -117.5t40.5 -192.5zM536 361q0 95 -29 156t-84.5 90.5t-135.5 29.5h-107v-560h89q134 0 200.5 71.5t66.5 212.5zM1181 0h-468v68l351 566h-340v80h448v-68l-351 -566h360v-80z" />
    <glyph glyph-name="uni01F2" unicode="&#x1f2;" horiz-adv-x="1130" 
d="M630 364q0 -120 -42 -201t-120.5 -122t-189.5 -41h-187v714h207q102 0 176.5 -40t115 -117.5t40.5 -192.5zM536 361q0 95 -29 156t-84.5 90.5t-135.5 29.5h-107v-560h89q134 0 200.5 71.5t66.5 212.5zM1094 0h-371v58l268 410h-252v68h349v-66l-265 -402h271v-68z" />
    <glyph glyph-name="uni01F3" unicode="&#x1f3;" horiz-adv-x="1022" 
d="M257 -10q-93 0 -149.5 69.5t-56.5 207.5t57 208.5t150 70.5q39 0 68 -10.5t50.5 -28.5t36.5 -40h6q-1 13 -3.5 38.5t-2.5 40.5v214h87v-760h-70l-13 72h-4q-15 -23 -36.5 -41.5t-51 -29.5t-68.5 -11zM273 63q78 0 109.5 46.5t31.5 140.5v16q0 100 -30 153.5t-112 53.5
q-66 0 -98.5 -56.5t-32.5 -151.5q0 -96 32.5 -149t99.5 -53zM986 0h-371v58l268 410h-252v68h349v-66l-265 -402h271v-68z" />
    <glyph glyph-name="uni01F4" unicode="&#x1f4;" horiz-adv-x="684" 
d="M379 377h235v-350q-54 -19 -109.5 -28t-126.5 -9q-104 0 -175.5 44.5t-108.5 127t-37 195.5q0 112 41 194t119 127.5t188 45.5q56 0 106.5 -11t93.5 -31l-33 -78q-35 17 -79.5 29t-91.5 12q-79 0 -135 -35t-86 -99.5t-30 -153.5q0 -85 25 -150.5t79.5 -102t142.5 -36.5
q29 0 51.5 2.5t41.5 6.5t35 8v212h-146v80zM527 934q-9 -14 -25.5 -34t-36 -41.5t-39.5 -41t-37 -33.5h-57v12q14 19 31 45t33 53.5t27 49.5h104v-10z" />
    <glyph glyph-name="uni01F5" unicode="&#x1f5;" horiz-adv-x="579" 
d="M257 546q50 0 89.5 -20t67.5 -61h5l11 71h70v-545q0 -76 -24.5 -127.5t-75 -77.5t-128.5 -26q-55 0 -100 8.5t-82 25.5v81q25 -13 54.5 -22.5t63 -14.5t69.5 -5q64 0 100.5 40.5t36.5 110.5v21q0 12 1 34.5t2 31.5h-4q-26 -41 -65 -61t-90 -20q-97 0 -152 73t-55 204
q0 86 24.5 148.5t71 96.5t110.5 34zM271 472q-41 0 -70.5 -24t-44.5 -70t-15 -112q0 -99 33.5 -151.5t98.5 -52.5q37 0 64 10.5t44 33t25.5 57.5t8.5 83v21q0 73 -15.5 118t-47 66t-81.5 21zM427 756q-9 -14 -25.5 -34t-36 -41.5t-39.5 -41t-37 -33.5h-57v12q14 19 31 45
t33 53.5t27 49.5h104v-10z" />
    <glyph glyph-name="uni01F6" unicode="&#x1f6;" horiz-adv-x="890" 
d="M91 0v714h89v-302h274v302h89v-550q0 -30 9.5 -51.5t29 -32.5t48.5 -11q30 0 49.5 12.5t28.5 34t9 49.5v371h89v-371q0 -49 -19.5 -88.5t-58.5 -62.5t-100 -23q-57 0 -96 21.5t-58.5 61t-19.5 92.5v167h-274v-333h-89z" />
    <glyph glyph-name="uni01F7" unicode="&#x1f7;" horiz-adv-x="622" 
d="M368 725q59 0 104.5 -26t72 -80t26.5 -137q0 -67 -19.5 -133.5t-64.5 -130.5t-120.5 -121.5t-186.5 -106.5v-230h-89v955h70l15 -97h4q19 30 44.5 54.5t61 38.5t82.5 14zM351 647q-63 0 -100.5 -28.5t-54 -80t-16.5 -120.5v-344q77 35 133.5 79.5t94 96.5t56 110
t18.5 121q0 56 -15.5 92.5t-45 55t-70.5 18.5z" />
    <glyph glyph-name="uni01F8" unicode="&#x1f8;" horiz-adv-x="719" 
d="M628 0h-105l-354 593h-4q1 -18 2.5 -40t2.5 -47.5t2 -52.5t1 -54v-399h-82v714h104l353 -591h4q-1 12 -2 33.5t-2 48t-2 54.5t-1 52v403h83v-714zM320 944q11 -22 27 -49.5t33.5 -53.5t31.5 -45v-12h-59q-16 14 -36 33.5t-39.5 41t-35.5 41.5t-25 34v10h103z" />
    <glyph glyph-name="uni01F9" unicode="&#x1f9;" horiz-adv-x="584" 
d="M325 546q90 0 136.5 -46.5t46.5 -150.5v-349h-87v343q0 65 -27 97t-83 32q-82 0 -113.5 -50t-31.5 -144v-278h-87v536h70l13 -73h5q16 28 41 46.5t55 27.5t62 9zM253 766q11 -22 27 -49.5t33.5 -53.5t31.5 -45v-12h-59q-16 14 -36 33.5t-39.5 41t-35.5 41.5t-25 34v10
h103z" />
    <glyph glyph-name="Aringacute" unicode="&#x1fa;" horiz-adv-x="605" 
d="M242 608q-21 13 -33 36t-12 54q0 50 29 78t75 28q44 0 75 -27.5t31 -77.5q0 -31 -11.5 -54t-31.5 -36l241 -609h-92l-75 192h-275l-71 -192h-92zM193 272h220l-77 207q-4 12 -10.5 29t-12.5 35.5t-11 36.5q-4 -13 -8.5 -27.5t-9 -28.5t-8.5 -26t-7 -20zM301 642
q23 0 37.5 14.5t14.5 41.5t-14.5 41.5t-37.5 14.5q-22 0 -37 -14.5t-15 -41.5q0 -26 13.5 -41t38.5 -15zM256 838q13 16 28 37t28.5 43t23.5 40h104v-8q-7 -11 -22 -27t-33 -33.5t-36.5 -33.5t-34.5 -27h-58v9z" />
    <glyph glyph-name="aringacute" unicode="&#x1fb;" horiz-adv-x="531" 
d="M272 545q92 0 137.5 -43t45.5 -137v-365h-63l-17 76h-4q-22 -29 -44.5 -48.5t-52 -28.5t-72.5 -9q-45 0 -81 17t-57 52.5t-21 89.5q0 80 59 123.5t182 47.5l85 3v32q0 67 -26.5 93t-75.5 26q-39 0 -74.5 -12.5t-67.5 -28.5l-27 66q34 19 79 32.5t95 13.5zM296 259
q-92 -4 -127.5 -32t-35.5 -79q0 -45 25 -66t65 -21q42 0 75 16.5t52 50.5t19 86v48zM269 768q-22 0 -37 -15t-15 -41t13.5 -41t38.5 -15q23 0 37.5 15t14.5 41t-14.5 41t-37.5 15zM269 817q30 0 54 -12.5t38 -35.5t14 -56q0 -51 -30 -79t-76 -28t-74.5 28t-28.5 78
t28.5 77.5t74.5 27.5zM422 952q-10 -11 -36.5 -29.5t-56.5 -36.5t-51 -30h-62v8q14 13 28.5 29t28 33.5t23.5 31.5h126v-6z" />
    <glyph glyph-name="AEacute" unicode="&#x1fc;" horiz-adv-x="833" 
d="M777 0h-354v221h-234l-98 -221h-92l317 714h461v-79h-265v-223h247v-78h-247v-255h265v-79zM223 301h200v333h-55zM611 934q-9 -14 -25.5 -34t-36 -41.5t-39.5 -41t-37 -33.5h-57v12q14 19 31 45t33 53.5t27 49.5h104v-10z" />
    <glyph glyph-name="aeacute" unicode="&#x1fd;" horiz-adv-x="816" 
d="M570 546q61 0 105.5 -30t69 -84t24.5 -126v-54h-323q2 -96 38.5 -141.5t105.5 -45.5q47 0 83 9.5t73 27.5v-77q-37 -18 -74 -26.5t-85 -8.5q-43 0 -79.5 12.5t-64.5 38t-48 62.5q-22 -34 -47.5 -59.5t-60.5 -39.5t-84 -14q-45 0 -81.5 17t-57.5 52.5t-21 89.5t25 91
t76 57.5t128 22.5l85 3v34q0 65 -28 91t-75 26q-37 0 -73.5 -12t-67.5 -29l-27 66q34 20 81 33t93 13q59 0 97 -20.5t58 -65.5q25 41 64.5 64t90.5 23zM286 259q-86 -4 -119.5 -32t-33.5 -79q0 -45 23.5 -66t62.5 -21t69.5 16.5t48.5 50.5t18 86v48zM569 474
q-54 0 -85.5 -39.5t-36.5 -113.5h231q0 46 -12 80.5t-36 53.5t-61 19zM562 756q-9 -14 -25.5 -34t-36 -41.5t-39.5 -41t-37 -33.5h-57v12q14 19 31 45t33 53.5t27 49.5h104v-10z" />
    <glyph glyph-name="Oslashacute" unicode="&#x1fe;" horiz-adv-x="735" 
d="M678 358q0 -83 -20 -150.5t-59 -116.5t-97 -75t-134 -26q-52 0 -95.5 12t-76.5 35l-45 -68l-59 40l48 74q-42 49 -62.5 119t-20.5 157q0 110 34 192t103.5 128t174.5 46q49 0 90.5 -12t75.5 -33l43 66l59 -41l-47 -71q43 -48 65.5 -118t22.5 -158zM584 358
q0 63 -11.5 114t-34.5 88l-295 -454q24 -18 55.5 -28t69.5 -10q75 0 123 35t70.5 100t22.5 155zM151 358q0 -61 10.5 -111t32.5 -87l294 451q-23 17 -53 26t-66 9q-75 0 -123.5 -34.5t-71.5 -99t-23 -154.5zM516 966q-9 -14 -25.5 -34t-36 -41.5t-39.5 -41t-37 -33.5h-57v12
q14 19 31 45t33 53.5t27 49.5h104v-10z" />
    <glyph glyph-name="oslashacute" unicode="&#x1ff;" horiz-adv-x="570" 
d="M520 269q0 -89 -29 -151.5t-82 -95t-126 -32.5q-34 0 -64 8.5t-56 24.5l-37 -56l-56 39l42 62q-29 36 -45 86.5t-16 114.5q0 133 63 205t172 72q35 0 66 -9.5t57 -26.5l35 56l57 -38l-41 -63q28 -35 44 -84.5t16 -111.5zM141 269q0 -38 5 -70.5t16 -57.5l203 306
q-16 12 -36.5 18.5t-44.5 6.5q-75 0 -109 -54t-34 -149zM430 269q0 37 -5 68t-16 55l-202 -306q16 -11 36 -17t42 -6q50 0 82 25t47.5 71.5t15.5 109.5zM432 786q-9 -14 -25.5 -34t-36 -41.5t-39.5 -41t-37 -33.5h-57v12q14 19 31 45t33 53.5t27 49.5h104v-10z" />
    <glyph glyph-name="uni0200" unicode="&#x200;" horiz-adv-x="604" 
d="M511 0l-78 221h-265l-77 -221h-91l260 717h84l259 -717h-92zM333 517q-2 8 -8.5 29t-13 43.5t-10.5 34.5q-7 -31 -15.5 -60.5t-14.5 -46.5l-74 -216h210zM349 944q10 -22 23.5 -49.5t28.5 -53.5t28 -45v-12h-49q-16 14 -34.5 33.5t-37 41.5t-33 42t-21.5 33v10h95z
M182 944q10 -22 24 -49.5t29 -53.5t28 -45v-12h-50q-16 14 -34.5 33.5t-36.5 41.5t-32.5 42t-22.5 33v10h95z" />
    <glyph glyph-name="uni0201" unicode="&#x201;" horiz-adv-x="531" 
d="M272 545q92 0 137.5 -43t45.5 -137v-365h-63l-17 76h-4q-22 -29 -44.5 -48.5t-52 -28.5t-72.5 -9q-45 0 -81 17t-57 52.5t-21 89.5q0 80 59 123.5t182 47.5l85 3v32q0 67 -26.5 93t-75.5 26q-39 0 -74.5 -12.5t-67.5 -28.5l-27 66q34 19 79 32.5t95 13.5zM296 259
q-92 -4 -127.5 -32t-35.5 -79q0 -45 25 -66t65 -21q62 0 104 37.5t42 115.5v48zM314 766q10 -22 23.5 -49.5t28.5 -53.5t28 -45v-12h-49q-16 14 -34.5 33.5t-37 41.5t-33 42t-21.5 33v10h95zM147 766q10 -22 24 -49.5t29 -53.5t28 -45v-12h-50q-16 14 -34.5 33.5t-36.5 41.5
t-32.5 42t-22.5 33v10h95z" />
    <glyph glyph-name="uni0202" unicode="&#x202;" horiz-adv-x="604" 
d="M511 0l-78 221h-265l-77 -221h-91l260 717h84l259 -717h-92zM333 517q-2 8 -8.5 29t-13 43.5t-10.5 34.5q-7 -31 -15.5 -60.5t-14.5 -46.5l-74 -216h210zM303 918q47 0 79 -16.5t49 -46.5t19 -71h-53q-3 28 -15 41t-32 17.5t-49 4.5q-24 0 -44.5 -5t-34 -18.5
t-16.5 -39.5h-54q4 40 22.5 70t51 47t77.5 17z" />
    <glyph glyph-name="uni0203" unicode="&#x203;" horiz-adv-x="531" 
d="M272 545q92 0 137.5 -43t45.5 -137v-365h-63l-17 76h-4q-22 -29 -44.5 -48.5t-52 -28.5t-72.5 -9q-45 0 -81 17t-57 52.5t-21 89.5q0 80 59 123.5t182 47.5l85 3v32q0 67 -26.5 93t-75.5 26q-39 0 -74.5 -12.5t-67.5 -28.5l-27 66q34 19 79 32.5t95 13.5zM296 259
q-92 -4 -127.5 -32t-35.5 -79q0 -45 25 -66t65 -21q62 0 104 37.5t42 115.5v48zM268 740q47 0 79 -16.5t49 -46.5t19 -71h-53q-3 28 -15 41t-32 17.5t-49 4.5q-24 0 -44.5 -5t-34 -18.5t-16.5 -39.5h-54q4 40 22.5 70t51 47t77.5 17z" />
    <glyph glyph-name="uni0204" unicode="&#x204;" horiz-adv-x="523" 
d="M467 0h-376v714h376v-79h-287v-223h270v-78h-270v-255h287v-79zM335 944q10 -22 23.5 -49.5t28.5 -53.5t28 -45v-12h-49q-16 14 -34.5 33.5t-37 41.5t-33 42t-21.5 33v10h95zM168 944q10 -22 24 -49.5t29 -53.5t28 -45v-12h-50q-16 14 -34.5 33.5t-36.5 41.5t-32.5 42
t-22.5 33v10h95z" />
    <glyph glyph-name="uni0205" unicode="&#x205;" horiz-adv-x="532" 
d="M275 546q65 0 112 -30t72.5 -84.5t25.5 -127.5v-53h-344q2 -91 43 -138.5t115 -47.5q48 0 85.5 9.5t77.5 27.5v-77q-39 -18 -76.5 -26.5t-90.5 -8.5q-72 0 -127 31t-86 92.5t-31 150.5q0 88 28 151t78.5 97t117.5 34zM275 474q-58 0 -92 -40.5t-40 -112.5h252
q0 46 -13 80t-39.5 53.5t-67.5 19.5zM317 766q10 -22 23.5 -49.5t28.5 -53.5t28 -45v-12h-49q-16 14 -34.5 33.5t-37 41.5t-33 42t-21.5 33v10h95zM150 766q10 -22 24 -49.5t29 -53.5t28 -45v-12h-50q-16 14 -34.5 33.5t-36.5 41.5t-32.5 42t-22.5 33v10h95z" />
    <glyph glyph-name="uni0206" unicode="&#x206;" horiz-adv-x="523" 
d="M467 0h-376v714h376v-79h-287v-223h270v-78h-270v-255h287v-79zM289 918q47 0 79 -16.5t49 -46.5t19 -71h-53q-3 28 -15 41t-32 17.5t-49 4.5q-24 0 -44.5 -5t-34 -18.5t-16.5 -39.5h-54q4 40 22.5 70t51 47t77.5 17z" />
    <glyph glyph-name="uni0207" unicode="&#x207;" horiz-adv-x="532" 
d="M275 546q65 0 112 -30t72.5 -84.5t25.5 -127.5v-53h-344q2 -91 43 -138.5t115 -47.5q48 0 85.5 9.5t77.5 27.5v-77q-39 -18 -76.5 -26.5t-90.5 -8.5q-72 0 -127 31t-86 92.5t-31 150.5q0 88 28 151t78.5 97t117.5 34zM275 474q-58 0 -92 -40.5t-40 -112.5h252
q0 46 -13 80t-39.5 53.5t-67.5 19.5zM271 740q47 0 79 -16.5t49 -46.5t19 -71h-53q-3 28 -15 41t-32 17.5t-49 4.5q-24 0 -44.5 -5t-34 -18.5t-16.5 -39.5h-54q4 40 22.5 70t51 47t77.5 17z" />
    <glyph glyph-name="uni0208" unicode="&#x208;" horiz-adv-x="322" 
d="M284 0h-247v52l79 19v571l-79 20v52h247v-52l-79 -20v-571l79 -19v-52zM210 944q10 -22 23.5 -49.5t28.5 -53.5t28 -45v-12h-49q-16 14 -34.5 33.5t-37 41.5t-33 42t-21.5 33v10h95zM43 944q10 -22 24 -49.5t29 -53.5t28 -45v-12h-50q-16 14 -34.5 33.5t-36.5 41.5
t-32.5 42t-22.5 33v10h95z" />
    <glyph glyph-name="uni0209" unicode="&#x209;" horiz-adv-x="245" 
d="M166 0h-87v536h87v-536zM171 766q10 -22 23.5 -49.5t28.5 -53.5t28 -45v-12h-49q-16 14 -34.5 33.5t-37 41.5t-33 42t-21.5 33v10h95zM4 766q10 -22 24 -49.5t29 -53.5t28 -45v-12h-50q-16 14 -34.5 33.5t-36.5 41.5t-32.5 42t-22.5 33v10h95z" />
    <glyph glyph-name="uni020A" unicode="&#x20a;" horiz-adv-x="322" 
d="M284 0h-247v52l79 19v571l-79 20v52h247v-52l-79 -20v-571l79 -19v-52zM164 918q47 0 79 -16.5t49 -46.5t19 -71h-53q-3 28 -15 41t-32 17.5t-49 4.5q-24 0 -44.5 -5t-34 -18.5t-16.5 -39.5h-54q4 40 22.5 70t51 47t77.5 17z" />
    <glyph glyph-name="uni020B" unicode="&#x20b;" horiz-adv-x="245" 
d="M166 0h-87v536h87v-536zM125 740q47 0 79 -16.5t49 -46.5t19 -71h-53q-3 28 -15 41t-32 17.5t-49 4.5q-24 0 -44.5 -5t-34 -18.5t-16.5 -39.5h-54q4 40 22.5 70t51 47t77.5 17z" />
    <glyph glyph-name="uni020C" unicode="&#x20c;" horiz-adv-x="735" 
d="M678 358q0 -83 -20 -150.5t-59 -116.5t-97 -75t-134 -26q-79 0 -137.5 26.5t-97 75t-57.5 116.5t-19 151q0 110 34 192t103.5 128t174.5 46q101 0 170 -45.5t104 -128t35 -193.5zM151 358q0 -90 23 -155t71.5 -100t122.5 -35q75 0 123 35t70.5 100t22.5 155
q0 135 -51.5 211.5t-163.5 76.5q-75 0 -123.5 -34.5t-71.5 -99t-23 -154.5zM416 955q10 -22 23.5 -49.5t28.5 -53.5t28 -45v-12h-49q-16 14 -34.5 33.5t-37 41.5t-33 42t-21.5 33v10h95zM249 955q10 -22 24 -49.5t29 -53.5t28 -45v-12h-50q-16 14 -34.5 33.5t-36.5 41.5
t-32.5 42t-22.5 33v10h95z" />
    <glyph glyph-name="uni020D" unicode="&#x20d;" horiz-adv-x="570" 
d="M520 269q0 -67 -16.5 -118.5t-47.5 -87.5t-75 -54.5t-98 -18.5q-50 0 -92.5 18.5t-74 54.5t-48.5 87.5t-17 118.5q0 89 28.5 150.5t81.5 94t125 32.5q69 0 121.5 -32.5t82.5 -94t30 -150.5zM141 269q0 -63 15 -109.5t47 -71.5t82 -25t82 25t47.5 71.5t15.5 109.5
q0 64 -15.5 109t-47.5 69.5t-83 24.5q-75 0 -109 -54t-34 -149zM333 766q10 -22 23.5 -49.5t28.5 -53.5t28 -45v-12h-49q-16 14 -34.5 33.5t-37 41.5t-33 42t-21.5 33v10h95zM166 766q10 -22 24 -49.5t29 -53.5t28 -45v-12h-50q-16 14 -34.5 33.5t-36.5 41.5t-32.5 42
t-22.5 33v10h95z" />
    <glyph glyph-name="uni020E" unicode="&#x20e;" horiz-adv-x="735" 
d="M678 358q0 -83 -20 -150.5t-59 -116.5t-97 -75t-134 -26q-79 0 -137.5 26.5t-97 75t-57.5 116.5t-19 151q0 110 34 192t103.5 128t174.5 46q101 0 170 -45.5t104 -128t35 -193.5zM151 358q0 -90 23 -155t71.5 -100t122.5 -35q75 0 123 35t70.5 100t22.5 155
q0 135 -51.5 211.5t-163.5 76.5q-75 0 -123.5 -34.5t-71.5 -99t-23 -154.5zM370 929q47 0 79 -16.5t49 -46.5t19 -71h-53q-3 28 -15 41t-32 17.5t-49 4.5q-24 0 -44.5 -5t-34 -18.5t-16.5 -39.5h-54q4 40 22.5 70t51 47t77.5 17z" />
    <glyph glyph-name="uni020F" unicode="&#x20f;" horiz-adv-x="570" 
d="M520 269q0 -67 -16.5 -118.5t-47.5 -87.5t-75 -54.5t-98 -18.5q-50 0 -92.5 18.5t-74 54.5t-48.5 87.5t-17 118.5q0 89 28.5 150.5t81.5 94t125 32.5q69 0 121.5 -32.5t82.5 -94t30 -150.5zM141 269q0 -63 15 -109.5t47 -71.5t82 -25t82 25t47.5 71.5t15.5 109.5
q0 64 -15.5 109t-47.5 69.5t-83 24.5q-75 0 -109 -54t-34 -149zM287 740q47 0 79 -16.5t49 -46.5t19 -71h-53q-3 28 -15 41t-32 17.5t-49 4.5q-24 0 -44.5 -5t-34 -18.5t-16.5 -39.5h-54q4 40 22.5 70t51 47t77.5 17z" />
    <glyph glyph-name="uni0210" unicode="&#x210;" horiz-adv-x="588" 
d="M277 714q84 0 138.5 -22.5t81 -67.5t26.5 -113q0 -57 -19.5 -95t-50 -60.5t-64.5 -35.5l186 -320h-104l-162 295h-129v-295h-89v714h186zM272 636h-92v-265h96q54 0 88.5 15.5t50.5 45.5t16 75q0 47 -17 75t-52.5 41t-89.5 13zM343 944q10 -22 23.5 -49.5t28.5 -53.5
t28 -45v-12h-49q-16 14 -34.5 33.5t-37 41.5t-33 42t-21.5 33v10h95zM176 944q10 -22 24 -49.5t29 -53.5t28 -45v-12h-50q-16 14 -34.5 33.5t-36.5 41.5t-32.5 42t-22.5 33v10h95z" />
    <glyph glyph-name="uni0211" unicode="&#x211;" horiz-adv-x="391" 
d="M318 546q14 0 30 -1.5t28 -4.5l-10 -81q-12 3 -26.5 5t-27.5 2q-29 0 -55 -13t-46.5 -36.5t-32.5 -56.5t-12 -74v-286h-87v536h71l10 -98h4q16 30 38.5 54.5t51.5 39t64 14.5zM284 766q10 -22 23.5 -49.5t28.5 -53.5t28 -45v-12h-49q-16 14 -34.5 33.5t-37 41.5t-33 42
t-21.5 33v10h95zM117 766q10 -22 24 -49.5t29 -53.5t28 -45v-12h-50q-16 14 -34.5 33.5t-36.5 41.5t-32.5 42t-22.5 33v10h95z" />
    <glyph glyph-name="uni0212" unicode="&#x212;" horiz-adv-x="588" 
d="M277 714q84 0 138.5 -22.5t81 -67.5t26.5 -113q0 -57 -19.5 -95t-50 -60.5t-64.5 -35.5l186 -320h-104l-162 295h-129v-295h-89v714h186zM272 636h-92v-265h96q54 0 88.5 15.5t50.5 45.5t16 75q0 47 -17 75t-52.5 41t-89.5 13zM297 918q47 0 79 -16.5t49 -46.5t19 -71
h-53q-3 28 -15 41t-32 17.5t-49 4.5q-24 0 -44.5 -5t-34 -18.5t-16.5 -39.5h-54q4 40 22.5 70t51 47t77.5 17z" />
    <glyph glyph-name="uni0213" unicode="&#x213;" horiz-adv-x="391" 
d="M318 546q14 0 30 -1.5t28 -4.5l-10 -81q-12 3 -26.5 5t-27.5 2q-29 0 -55 -13t-46.5 -36.5t-32.5 -56.5t-12 -74v-286h-87v536h71l10 -98h4q16 30 38.5 54.5t51.5 39t64 14.5zM238 740q47 0 79 -16.5t49 -46.5t19 -71h-53q-3 28 -15 41t-32 17.5t-49 4.5q-24 0 -44.5 -5
t-34 -18.5t-16.5 -39.5h-54q4 40 22.5 70t51 47t77.5 17z" />
    <glyph glyph-name="uni0214" unicode="&#x214;" horiz-adv-x="689" 
d="M604 252q0 -74 -28.5 -133.5t-87 -94t-147.5 -34.5q-126 0 -191.5 72.5t-65.5 191.5v460h89v-463q0 -87 43 -135t130 -48q60 0 97 23.5t54.5 65t17.5 95.5v462h89v-462zM393 944q10 -22 23.5 -49.5t28.5 -53.5t28 -45v-12h-49q-16 14 -34.5 33.5t-37 41.5t-33 42
t-21.5 33v10h95zM226 944q10 -22 24 -49.5t29 -53.5t28 -45v-12h-50q-16 14 -34.5 33.5t-36.5 41.5t-32.5 42t-22.5 33v10h95z" />
    <glyph glyph-name="uni0215" unicode="&#x215;" horiz-adv-x="583" 
d="M504 536v-536h-70l-13 71h-4q-16 -28 -41.5 -46t-55.5 -26.5t-63 -8.5q-60 0 -101 20.5t-61.5 63.5t-20.5 111v351h88v-345q0 -64 27 -96t83 -32q55 0 86.5 22.5t45 66t13.5 105.5v279h87zM340 766q10 -22 23.5 -49.5t28.5 -53.5t28 -45v-12h-49q-16 14 -34.5 33.5
t-37 41.5t-33 42t-21.5 33v10h95zM173 766q10 -22 24 -49.5t29 -53.5t28 -45v-12h-50q-16 14 -34.5 33.5t-36.5 41.5t-32.5 42t-22.5 33v10h95z" />
    <glyph glyph-name="uni0216" unicode="&#x216;" horiz-adv-x="689" 
d="M604 252q0 -74 -28.5 -133.5t-87 -94t-147.5 -34.5q-126 0 -191.5 72.5t-65.5 191.5v460h89v-463q0 -87 43 -135t130 -48q60 0 97 23.5t54.5 65t17.5 95.5v462h89v-462zM347 918q47 0 79 -16.5t49 -46.5t19 -71h-53q-3 28 -15 41t-32 17.5t-49 4.5q-24 0 -44.5 -5
t-34 -18.5t-16.5 -39.5h-54q4 40 22.5 70t51 47t77.5 17z" />
    <glyph glyph-name="uni0217" unicode="&#x217;" horiz-adv-x="583" 
d="M504 536v-536h-70l-13 71h-4q-16 -28 -41.5 -46t-55.5 -26.5t-63 -8.5q-60 0 -101 20.5t-61.5 63.5t-20.5 111v351h88v-345q0 -64 27 -96t83 -32q55 0 86.5 22.5t45 66t13.5 105.5v279h87zM294 740q47 0 79 -16.5t49 -46.5t19 -71h-53q-3 28 -15 41t-32 17.5t-49 4.5
q-24 0 -44.5 -5t-34 -18.5t-16.5 -39.5h-54q4 40 22.5 70t51 47t77.5 17z" />
    <glyph glyph-name="uni0218" unicode="&#x218;" horiz-adv-x="517" 
d="M473 191q0 -64 -29.5 -108.5t-83 -68.5t-127.5 -24q-37 0 -71.5 4t-63 11.5t-50.5 18.5v86q35 -16 85.5 -29t103.5 -13q49 0 81.5 14t49 40t16.5 61t-14.5 59t-48.5 44.5t-93 43.5q-55 22 -93.5 50t-58.5 67.5t-20 94.5q0 57 27.5 97.5t76 62.5t112.5 22q55 0 101 -11
t85 -29l-28 -77q-36 16 -76.5 27t-83.5 11q-41 0 -68.5 -13t-41.5 -36.5t-14 -54.5q0 -36 14 -60t46 -43t85 -41q59 -23 99.5 -49.5t61.5 -63.5t21 -93zM292 -70q-4 -18 -15.5 -45.5t-27 -55.5t-32.5 -50h-48v12q7 17 15 43.5t14.5 55t8.5 49.5h85v-9z" />
    <glyph glyph-name="uni0219" unicode="&#x219;" horiz-adv-x="452" 
d="M410 148q0 -52 -24.5 -87t-69.5 -53t-108 -18q-53 0 -91.5 9t-67.5 25v80q31 -16 74 -29.5t87 -13.5q61 0 88.5 21.5t27.5 57.5q0 20 -10.5 36t-37 32t-76.5 36q-48 20 -82.5 40t-53 48t-18.5 72q0 68 52.5 105t137.5 37q46 0 86 -9.5t76 -26.5l-29 -70q-21 10 -44 17.5
t-46.5 12t-47.5 4.5q-49 0 -75 -17.5t-26 -47.5q0 -22 12 -38t39.5 -30.5t75.5 -33.5t82 -39t51.5 -48.5t17.5 -71.5zM276 -70q-4 -18 -15.5 -45.5t-27 -55.5t-32.5 -50h-48v12q7 17 15 43.5t14.5 55t8.5 49.5h85v-9z" />
    <glyph glyph-name="uni021A" unicode="&#x21a;" horiz-adv-x="524" 
d="M307 0h-89v635h-208v79h503v-79h-206v-635zM311 -70q-4 -18 -15.5 -45.5t-27 -55.5t-32.5 -50h-48v12q7 17 15 43.5t14.5 55t8.5 49.5h85v-9z" />
    <glyph glyph-name="uni021B" unicode="&#x21b;" horiz-adv-x="345" 
d="M252 62q19 0 39 3.5t33 7.5v-67q-14 -7 -39.5 -11.5t-48.5 -4.5q-40 0 -74 14.5t-54.5 50.5t-20.5 101v312h-71v42l73 35l33 114h52v-123h146v-68h-146v-310q0 -49 22 -72.5t56 -23.5zM253 -70q-4 -18 -15.5 -45.5t-27 -55.5t-32.5 -50h-48v12q7 17 15 43.5t14.5 55
t8.5 49.5h85v-9z" />
    <glyph glyph-name="uni021C" unicode="&#x21c;" horiz-adv-x="557" 
d="M39 -94q110 29 182 59t114.5 63t60 71t17.5 83q0 60 -30.5 95t-81.5 60q-34 -12 -68 -22.5t-71 -20.5l-17 70q91 25 147 48t81.5 53.5t25.5 75.5q0 34 -13.5 58.5t-41.5 37.5t-70 13q-54 0 -101 -15.5t-92 -45.5l-43 61q57 40 116.5 57t119.5 17q58 0 107.5 -17.5
t80 -56.5t30.5 -106q0 -58 -31.5 -99.5t-83.5 -70.5q34 -16 63.5 -41t48 -61.5t18.5 -89.5q0 -93 -47.5 -158.5t-150.5 -113.5t-270 -90v86z" />
    <glyph glyph-name="uni021D" unicode="&#x21d;" horiz-adv-x="471" 
d="M10 -161q113 23 189 54t115 74t39 100q0 51 -27.5 80.5t-74.5 49.5q-29 -12 -62.5 -22t-70.5 -19l-17 66q91 23 139.5 46.5t67.5 50.5t19 61q0 31 -13.5 52t-39 32t-61.5 11q-44 0 -82.5 -10t-75.5 -30l-30 64q46 26 93 36.5t96 10.5q54 0 98.5 -16.5t70.5 -53t26 -96.5
q0 -47 -23.5 -83.5t-65.5 -63.5q33 -14 60.5 -36t43.5 -54t16 -79q0 -64 -30.5 -113t-87 -85t-135.5 -61.5t-177 -44.5v79z" />
    <glyph glyph-name="uni021E" unicode="&#x21e;" horiz-adv-x="699" 
d="M607 0h-89v333h-338v-333h-89v714h89v-302h338v302h89v-714zM512 931q-18 -19 -41 -45t-44 -52.5t-33 -49.5h-90q-12 23 -33 49.5t-43.5 52.5t-39.5 45v13h59q25 -17 51.5 -41t49.5 -51q26 27 52 51t51 41h61v-13z" />
    <glyph glyph-name="uni021F" unicode="&#x21f;" horiz-adv-x="584" 
d="M166 537q0 -19 -1.5 -39t-3.5 -36h6q16 28 40.5 46t54 27.5t61.5 9.5q61 0 102 -20.5t62 -63.5t21 -112v-349h-87v343q0 65 -27 97t-83 32q-55 0 -87 -22.5t-45 -66t-13 -106.5v-277h-87v760h87v-223zM286 977q-18 -19 -41 -45t-44 -52.5t-33 -49.5h-90q-12 23 -33 49.5
t-43.5 52.5t-39.5 45v13h59q25 -17 51.5 -41t49.5 -51q26 27 52 51t51 41h61v-13z" />
    <glyph glyph-name="uni0220" unicode="&#x220;" horiz-adv-x="698" 
d="M382 725q72 0 124 -27.5t79.5 -85.5t27.5 -151v-701h-89v701q0 93 -36 139.5t-119 46.5q-68 0 -109.5 -27t-60.5 -77.5t-19 -119.5v-423h-89v715h70l15 -92h4q22 31 54.5 54t71 35.5t76.5 12.5z" />
    <glyph glyph-name="uni0221" unicode="&#x221;" horiz-adv-x="812" 
d="M454 -100q4 41 10 76.5t14 64.5q-11 9 -18 18.5t-11 18t-7 15.5h-5q-16 -34 -38.5 -57t-56 -34.5t-83.5 -11.5q-94 0 -151 69.5t-57 207.5q0 92 26 154t72.5 93.5t108.5 31.5q39 0 68 -10.5t50.5 -28.5t36.5 -40h6q-1 6 -2 16.5t-2 22t-1.5 22.5t-0.5 18v214h87v-554
q0 -25 3 -45.5t10 -36.5q17 31 36.5 52t41.5 33t45 17t47 5q58 -1 89 -30.5t31 -74.5q0 -34 -18.5 -63t-58.5 -46t-107 -17q-21 0 -39 2t-33 6q-5 -25 -9 -53.5t-6 -59.5zM273 63q78 0 109.5 46.5t31.5 140.5v16q0 100 -30 153.5t-112 53.5q-66 0 -98.5 -56.5t-32.5 -151.5
q0 -96 32.5 -149t99.5 -53zM627 69q53 0 74 14.5t21 38.5q0 14 -12.5 26t-37.5 12q-23 0 -42.5 -10t-34.5 -28.5t-26 -44.5q12 -4 26.5 -6t31.5 -2z" />
    <glyph glyph-name="uni0222" unicode="&#x222;" horiz-adv-x="637" 
d="M316 -10q-57 0 -104.5 16t-83 47t-55 76t-19.5 103q0 55 16.5 95t47.5 66.5t75 40.5q-36 16 -59.5 43.5t-34.5 65t-11 83.5v88h89v-88q0 -45 15 -80.5t46.5 -55.5t79.5 -20q50 0 81.5 20t46.5 55.5t15 80.5v88h89v-88q0 -46 -11.5 -84t-35.5 -65t-61 -44
q43 -14 74.5 -40.5t49 -66.5t17.5 -94q0 -58 -18.5 -103t-53.5 -76t-84.5 -47t-110.5 -16zM318 68q59 0 97 19.5t56 56.5t18 88q0 77 -41.5 119t-130.5 42q-88 0 -128.5 -42t-40.5 -119q0 -51 18 -88t55.5 -56.5t96.5 -19.5z" />
    <glyph glyph-name="uni0223" unicode="&#x223;" horiz-adv-x="563" 
d="M280 -10q-67 0 -119.5 29t-83 85t-30.5 135q0 56 14 97.5t41.5 69t66.5 42.5q-30 12 -50 34.5t-30 59t-10 89.5v129h87v-126q0 -53 12 -86t38 -48t66 -15t65.5 15t38 48t12.5 86v126h87v-129q0 -54 -10.5 -90.5t-30.5 -59t-51 -34.5q38 -15 65.5 -42.5t42.5 -68.5t15 -97
q0 -60 -16.5 -106t-47.5 -78t-74.5 -48.5t-97.5 -16.5zM282 63q74 0 109 47t35 129q0 81 -35 127t-110 46q-76 0 -110 -46t-34 -127q0 -82 34.5 -129t110.5 -47z" />
    <glyph glyph-name="uni0224" unicode="&#x224;" horiz-adv-x="539" 
d="M414 -198q-18 0 -33.5 4t-25.5 8v73q8 -3 20.5 -6t27.5 -3q14 0 24.5 5.5t16 17t5.5 29.5v70h-10v80h89v-145q0 -43 -12.5 -72.5t-37.5 -45t-64 -15.5zM503 0h-468v68l351 566h-340v80h448v-68l-351 -566h360v-80z" />
    <glyph glyph-name="uni0225" unicode="&#x225;" horiz-adv-x="470" 
d="M401 536v-66l-265 -402h271v-133q0 -43 -12 -72.5t-36.5 -45t-62.5 -15.5q-18 0 -33 4t-25 8v73q8 -3 20 -6t27 -3q21 0 33 12.5t12 39.5v70h-294v58l268 410h-252v68h349z" />
    <glyph glyph-name="uni0226" unicode="&#x226;" horiz-adv-x="604" 
d="M511 0l-78 221h-265l-77 -221h-91l260 717h84l259 -717h-92zM333 517q-2 8 -8.5 29t-13 43.5t-10.5 34.5q-7 -31 -15.5 -60.5t-14.5 -46.5l-74 -216h210zM301 915q20 0 35 -13.5t15 -42.5q0 -28 -15 -42t-35 -14q-21 0 -36 14t-15 42q0 29 15 42.5t36 13.5z" />
    <glyph glyph-name="uni0227" unicode="&#x227;" horiz-adv-x="531" 
d="M272 545q92 0 137.5 -43t45.5 -137v-365h-63l-17 76h-4q-22 -29 -44.5 -48.5t-52 -28.5t-72.5 -9q-45 0 -81 17t-57 52.5t-21 89.5q0 80 59 123.5t182 47.5l85 3v32q0 67 -26.5 93t-75.5 26q-39 0 -74.5 -12.5t-67.5 -28.5l-27 66q34 19 79 32.5t95 13.5zM296 259
q-92 -4 -127.5 -32t-35.5 -79q0 -45 25 -66t65 -21q62 0 104 37.5t42 115.5v48zM266 737q20 0 35 -13.5t15 -42.5q0 -28 -15 -42t-35 -14q-21 0 -36 14t-15 42q0 29 15 42.5t36 13.5z" />
    <glyph glyph-name="uni0228" unicode="&#x228;" horiz-adv-x="523" 
d="M467 0h-376v714h376v-79h-287v-223h270v-78h-270v-255h287v-79zM388 -139q0 -32 -15.5 -54.5t-46 -34.5t-77.5 -12q-15 0 -28 1.5t-21 3.5v55q9 -2 23.5 -3.5t27.5 -1.5q32 0 49.5 9.5t17.5 34.5q0 26 -24 38t-61 17l40 86h57l-23 -53q22 -5 40.5 -15.5t29.5 -27.5
t11 -43z" />
    <glyph glyph-name="uni0229" unicode="&#x229;" horiz-adv-x="532" 
d="M275 546q65 0 112 -30t72.5 -84.5t25.5 -127.5v-53h-344q2 -91 43 -138.5t115 -47.5q48 0 85.5 9.5t77.5 27.5v-77q-39 -18 -76.5 -26.5t-90.5 -8.5q-72 0 -127 31t-86 92.5t-31 150.5q0 88 28 151t78.5 97t117.5 34zM275 474q-58 0 -92 -40.5t-40 -112.5h252
q0 46 -13 80t-39.5 53.5t-67.5 19.5zM389 -139q0 -32 -15.5 -54.5t-46 -34.5t-77.5 -12q-15 0 -28 1.5t-21 3.5v55q9 -2 23.5 -3.5t27.5 -1.5q32 0 49.5 9.5t17.5 34.5q0 26 -24 38t-61 17l40 86h57l-23 -53q22 -5 40.5 -15.5t29.5 -27.5t11 -43z" />
    <glyph glyph-name="uni022A" unicode="&#x22a;" horiz-adv-x="735" 
d="M532 1014v-71h-282v71h282zM302 878q19 0 32 -12t13 -38t-13 -37.5t-32 -11.5q-18 0 -31.5 11.5t-13.5 37.5t13.5 38t31.5 12zM479 878q19 0 32 -12t13 -38t-13 -37.5t-32 -11.5q-18 0 -31.5 11.5t-13.5 37.5t13.5 38t31.5 12zM678 358q0 -83 -20 -150.5t-59 -116.5
t-97 -75t-134 -26q-79 0 -137.5 26.5t-97 75t-57.5 116.5t-19 151q0 110 34 192t103.5 128t174.5 46q101 0 170 -45.5t104 -128t35 -193.5zM151 358q0 -90 23 -155t71.5 -100t122.5 -35q75 0 123 35t70.5 100t22.5 155q0 135 -51.5 211.5t-163.5 76.5q-75 0 -123.5 -34.5
t-71.5 -99t-23 -154.5z" />
    <glyph glyph-name="uni022B" unicode="&#x22b;" horiz-adv-x="570" 
d="M444 836v-71h-282v71h282zM214 700q19 0 32 -12t13 -38t-13 -37.5t-32 -11.5q-18 0 -31.5 11.5t-13.5 37.5t13.5 38t31.5 12zM391 700q19 0 32 -12t13 -38t-13 -37.5t-32 -11.5q-18 0 -31.5 11.5t-13.5 37.5t13.5 38t31.5 12zM520 269q0 -67 -16.5 -118.5t-47.5 -87.5
t-75 -54.5t-98 -18.5q-50 0 -92.5 18.5t-74 54.5t-48.5 87.5t-17 118.5q0 89 28.5 150.5t81.5 94t125 32.5q69 0 121.5 -32.5t82.5 -94t30 -150.5zM141 269q0 -63 15 -109.5t47 -71.5t82 -25t82 25t47.5 71.5t15.5 109.5q0 64 -15.5 109t-47.5 69.5t-83 24.5q-75 0 -109 -54
t-34 -149z" />
    <glyph glyph-name="uni022C" unicode="&#x22c;" horiz-adv-x="735" 
d="M233 783q5 53 28 83.5t64 30.5q20 0 38 -7t34.5 -16.5t32 -17t29.5 -7.5q20 0 28.5 13.5t14.5 35.5h48q-3 -34 -14.5 -60t-30.5 -40t-47 -14q-18 0 -35.5 7.5t-34.5 17t-33 16.5t-30 7q-20 0 -29 -13t-14 -36h-49zM250 943v71h282v-71h-282zM678 358q0 -83 -20 -150.5
t-59 -116.5t-97 -75t-134 -26q-79 0 -137.5 26.5t-97 75t-57.5 116.5t-19 151q0 110 34 192t103.5 128t174.5 46q101 0 170 -45.5t104 -128t35 -193.5zM151 358q0 -90 23 -155t71.5 -100t122.5 -35q75 0 123 35t70.5 100t22.5 155q0 135 -51.5 211.5t-163.5 76.5
q-75 0 -123.5 -34.5t-71.5 -99t-23 -154.5z" />
    <glyph glyph-name="uni022D" unicode="&#x22d;" horiz-adv-x="570" 
d="M145 605q5 53 28 83.5t64 30.5q20 0 38 -7t34.5 -16.5t32 -17t29.5 -7.5q20 0 28.5 13.5t14.5 35.5h48q-3 -34 -14.5 -60t-30.5 -40t-47 -14q-18 0 -35.5 7.5t-34.5 17t-33 16.5t-30 7q-20 0 -29 -13t-14 -36h-49zM162 765v71h282v-71h-282zM520 269q0 -67 -16.5 -118.5
t-47.5 -87.5t-75 -54.5t-98 -18.5q-50 0 -92.5 18.5t-74 54.5t-48.5 87.5t-17 118.5q0 89 28.5 150.5t81.5 94t125 32.5q69 0 121.5 -32.5t82.5 -94t30 -150.5zM141 269q0 -63 15 -109.5t47 -71.5t82 -25t82 25t47.5 71.5t15.5 109.5q0 64 -15.5 109t-47.5 69.5t-83 24.5
q-75 0 -109 -54t-34 -149z" />
    <glyph glyph-name="uni022E" unicode="&#x22e;" horiz-adv-x="735" 
d="M678 358q0 -83 -20 -150.5t-59 -116.5t-97 -75t-134 -26q-79 0 -137.5 26.5t-97 75t-57.5 116.5t-19 151q0 110 34 192t103.5 128t174.5 46q101 0 170 -45.5t104 -128t35 -193.5zM151 358q0 -90 23 -155t71.5 -100t122.5 -35q75 0 123 35t70.5 100t22.5 155
q0 135 -51.5 211.5t-163.5 76.5q-75 0 -123.5 -34.5t-71.5 -99t-23 -154.5zM368 926q20 0 35 -13.5t15 -42.5q0 -28 -15 -42t-35 -14q-21 0 -36 14t-15 42q0 29 15 42.5t36 13.5z" />
    <glyph glyph-name="uni022F" unicode="&#x22f;" horiz-adv-x="570" 
d="M520 269q0 -67 -16.5 -118.5t-47.5 -87.5t-75 -54.5t-98 -18.5q-50 0 -92.5 18.5t-74 54.5t-48.5 87.5t-17 118.5q0 89 28.5 150.5t81.5 94t125 32.5q69 0 121.5 -32.5t82.5 -94t30 -150.5zM141 269q0 -63 15 -109.5t47 -71.5t82 -25t82 25t47.5 71.5t15.5 109.5
q0 64 -15.5 109t-47.5 69.5t-83 24.5q-75 0 -109 -54t-34 -149zM285 737q20 0 35 -13.5t15 -42.5q0 -28 -15 -42t-35 -14q-21 0 -36 14t-15 42q0 29 15 42.5t36 13.5z" />
    <glyph glyph-name="uni0230" unicode="&#x230;" horiz-adv-x="735" 
d="M250 930v71h282v-71h-282zM392 882q20 0 34.5 -13.5t14.5 -42.5q0 -28 -14.5 -42t-34.5 -14q-21 0 -35.5 14t-14.5 42q0 29 14.5 42.5t35.5 13.5zM678 358q0 -83 -20 -150.5t-59 -116.5t-97 -75t-134 -26q-79 0 -137.5 26.5t-97 75t-57.5 116.5t-19 151q0 110 34 192
t103.5 128t174.5 46q101 0 170 -45.5t104 -128t35 -193.5zM151 358q0 -90 23 -155t71.5 -100t122.5 -35q75 0 123 35t70.5 100t22.5 155q0 135 -51.5 211.5t-163.5 76.5q-75 0 -123.5 -34.5t-71.5 -99t-23 -154.5z" />
    <glyph glyph-name="uni0231" unicode="&#x231;" horiz-adv-x="570" 
d="M444 837v-71h-282v71h282zM302 718q20 0 34.5 -13.5t14.5 -42.5q0 -28 -14.5 -42t-34.5 -14q-21 0 -35 14t-14 42q0 29 14 42.5t35 13.5zM520 269q0 -67 -16.5 -118.5t-47.5 -87.5t-75 -54.5t-98 -18.5q-50 0 -92.5 18.5t-74 54.5t-48.5 87.5t-17 118.5q0 89 28.5 150.5
t81.5 94t125 32.5q69 0 121.5 -32.5t82.5 -94t30 -150.5zM141 269q0 -63 15 -109.5t47 -71.5t82 -25t82 25t47.5 71.5t15.5 109.5q0 64 -15.5 109t-47.5 69.5t-83 24.5q-75 0 -109 -54t-34 -149z" />
    <glyph glyph-name="uni0232" unicode="&#x232;" horiz-adv-x="536" 
d="M268 363l172 351h96l-223 -437v-277h-89v273l-224 441h97zM408 855v-71h-282v71h282z" />
    <glyph glyph-name="uni0233" unicode="&#x233;" horiz-adv-x="484" 
d="M1 536h94l107 -305q10 -27 18 -52t14 -48.5t9 -45.5h3q6 25 17.5 65.5t24.5 81.5l101 304h95l-217 -610q-18 -50 -42.5 -87.5t-59.5 -58t-84 -20.5q-22 0 -39.5 2.5t-29.5 5.5v70q10 -2 25 -4t31 -2q29 0 50 11.5t36 33t25 50.5l25 71zM382 677v-71h-282v71h282z" />
    <glyph glyph-name="uni0234" unicode="&#x234;" horiz-adv-x="363" 
d="M9 0q17 49 34.5 86t36.5 65v31v33v545h87v-542q14 6 30 9t34 3q61 0 92 -32.5t31 -83.5q0 -52 -32.5 -88t-94.5 -36q-44 0 -74.5 18t-47.5 47q-8 -17 -16.5 -39t-16.5 -46zM227 58q25 0 37.5 15t12.5 37q0 26 -14 39t-39 13q-15 0 -29 -6t-28 -18q2 -36 15.5 -58
t44.5 -22z" />
    <glyph glyph-name="uni0235" unicode="&#x235;" horiz-adv-x="702" 
d="M349 0q17 49 34.5 86t37.5 65q-1 14 -1 27.5v26.5v138q0 65 -27 97t-83 32q-54 0 -85.5 -22.5t-45 -65.5t-13.5 -106v-278h-87v536h70l13 -73h5q16 28 41 46.5t55 27.5t62 9q60 0 100 -20.5t60.5 -64t20.5 -112.5v-131q15 6 31 9t34 3q60 0 91 -35t31 -85
q0 -55 -32.5 -87.5t-94.5 -32.5q-43 0 -73.5 17.5t-47.5 46.5q-9 -17 -16.5 -38.5t-15.5 -45.5zM566 58q27 0 38.5 15t11.5 37q0 26 -14 39t-38 13q-15 0 -29.5 -6t-28.5 -18q2 -36 15.5 -58t44.5 -22z" />
    <glyph glyph-name="uni0236" unicode="&#x236;" horiz-adv-x="370" 
d="M17 0q17 49 34.5 86t36.5 65q-1 17 -1 34v34v249h-71v42l73 35l33 114h52v-123h146v-68h-146v-250q15 6 31 9t34 3q60 0 91 -35t31 -85q0 -55 -32.5 -87.5t-94.5 -32.5q-43 0 -73.5 17.5t-48.5 46.5q-9 -17 -16.5 -38.5t-15.5 -45.5zM234 58q27 0 38.5 15t11.5 37
q0 26 -14 39t-38 13q-15 0 -29.5 -6t-28.5 -18q2 -36 15.5 -58t44.5 -22z" />
    <glyph glyph-name="uni0237" unicode="&#x237;" horiz-adv-x="246" 
d="M22 -240q-24 0 -42.5 3.5t-31.5 8.5v71q14 -4 29 -7t33 -3q31 0 50.5 17.5t19.5 66.5v619h87v-616q0 -50 -15 -86t-47 -55t-83 -19z" />
    <glyph glyph-name="uni0238" unicode="&#x238;" horiz-adv-x="913" 
d="M275 -10q-53 0 -94.5 17.5t-70.5 52t-44 86.5t-15 121q0 92 25.5 154t72.5 93.5t109 31.5q58 0 95 -23t60 -56h6q-1 13 -3.5 42t-2.5 63v188h87v-185q0 -34 -1.5 -63.5t-3.5 -46.5h5q21 34 59 57t96 23q63 0 109.5 -31t72 -92.5t25.5 -153.5q0 -69 -15.5 -121t-45 -87
t-71 -52.5t-94.5 -17.5q-63 0 -109 31.5t-72 93.5q-26 -64 -73 -94.5t-107 -30.5zM278 63q45 0 75 25.5t45.5 72.5t15.5 110q0 100 -30.5 151t-111.5 51q-65 0 -98 -56.5t-33 -151.5q0 -96 33.5 -149t103.5 -53zM637 63q69 0 102 53t33 153q0 101 -33 152t-100 51
q-52 0 -82.5 -21.5t-43.5 -66t-13 -113.5q0 -101 33.5 -154.5t103.5 -53.5z" />
    <glyph glyph-name="uni0239" unicode="&#x239;" horiz-adv-x="913" 
d="M638 546q53 0 94.5 -17.5t70.5 -52t44 -86.5t15 -121q0 -92 -25.5 -154t-72 -93.5t-109.5 -31.5q-58 0 -95 23t-60 56h-6q2 -13 4 -41.5t2 -63.5v-204h-87v201q0 34 2 64t3 46h-5q-21 -34 -58.5 -57t-96.5 -23q-62 0 -109 31t-72.5 92.5t-25.5 153.5q0 69 15.5 121t45 87
t71.5 52.5t94 17.5q63 0 109 -31.5t71 -93.5q27 65 74 95t107 30zM276 473q-69 0 -102 -53t-33 -153q0 -101 33 -152t100 -51q53 0 83 21.5t43 66.5t13 113q0 101 -33 154.5t-104 53.5zM635 473q-44 0 -74.5 -25.5t-46 -72t-15.5 -110.5q0 -100 30.5 -151t111.5 -51
q65 0 98 56.5t33 151.5q0 96 -33 149t-104 53z" />
    <glyph glyph-name="uni023A" unicode="&#x23a;" horiz-adv-x="639" 
d="M499 760l-290 -835h-67l290 835h67zM511 0l-78 221h-265l-77 -221h-91l260 717h84l259 -717h-92zM333 517q-2 8 -8.5 29t-13 43.5t-10.5 34.5q-7 -31 -15.5 -60.5t-14.5 -46.5l-74 -216h210z" />
    <glyph glyph-name="uni023B" unicode="&#x23b;" horiz-adv-x="632" 
d="M559 760l-290 -835h-67l290 835h67zM378 645q-53 0 -95 -19.5t-71.5 -57t-45 -91t-15.5 -120.5q0 -88 25 -153t75.5 -100t125.5 -35q44 0 83.5 8t78.5 20v-78q-38 -15 -78 -22t-96 -7q-103 0 -171.5 45t-102.5 128t-34 195q0 81 21 148t62 116t101 75.5t138 26.5
q51 0 99 -11t87 -31l-35 -76q-31 15 -69.5 27t-82.5 12z" />
    <glyph glyph-name="uni023C" unicode="&#x23c;" horiz-adv-x="480" 
d="M479 760l-345 -968h-67l345 968h67zM282 -10q-68 0 -120 29t-81.5 90t-29.5 156q0 99 31 161t84.5 91t121.5 29q39 0 75.5 -8.5t59.5 -20.5l-27 -73q-23 9 -53.5 17t-56.5 8q-49 0 -81 -23t-48 -68t-16 -112q0 -64 16 -109t47.5 -68t77.5 -23q41 0 73 9t59 22v-78
q-26 -14 -57 -21.5t-75 -7.5z" />
    <glyph glyph-name="uni023D" unicode="&#x23d;" horiz-adv-x="496" 
d="M10 332v71h347v-71h-347zM91 0v714h89v-634h292v-80h-381z" />
    <glyph glyph-name="uni023E" unicode="&#x23e;" horiz-adv-x="556" 
d="M520 760l-388 -835h-70l388 835h70zM307 0h-89v635h-208v79h503v-79h-206v-635z" />
    <glyph glyph-name="uni023F" unicode="&#x23f;" horiz-adv-x="452" 
d="M338 -240q-51 0 -84.5 17t-53.5 51.5t-34 88.5q-9 36 -25.5 56.5t-45.5 29.5q-15 5 -25 9.5t-21 11.5v80q31 -16 74 -29.5t87 -13.5q61 0 88.5 21.5t27.5 57.5q0 20 -10.5 36t-37 32t-76.5 36q-48 20 -82.5 40t-53 48t-18.5 72q0 68 52.5 105t137.5 37q46 0 86 -9.5
t76 -26.5l-29 -70q-21 10 -44 17.5t-46.5 12t-47.5 4.5q-49 0 -75 -17.5t-26 -47.5q0 -22 12 -38t39.5 -30.5t75.5 -33.5t82 -39t51.5 -48.5t17.5 -71.5q0 -50 -22.5 -84.5t-65 -53t-102.5 -19.5q10 -16 17.5 -34.5t12.5 -39.5q8 -29 21 -48t32.5 -27.5t44.5 -8.5q16 0 35 4
t32 9v-72q-11 -5 -33 -9.5t-44 -4.5z" />
    <glyph glyph-name="uni0240" unicode="&#x240;" horiz-adv-x="444" 
d="M364 -240q-56 0 -91.5 17.5t-56.5 52.5t-35 87q-11 44 -34 63.5t-76 19.5h-35v58l268 410h-252v68h349v-66l-265 -402q37 -7 61.5 -26t40.5 -50t26 -74q8 -30 21.5 -48.5t35 -27.5t51.5 -9q19 0 33.5 3t28.5 8v-72q-13 -5 -29.5 -8.5t-40.5 -3.5z" />
    <glyph glyph-name="uni0241" unicode="&#x241;" horiz-adv-x="423" 
d="M182 724q65 0 111.5 -23t71.5 -65.5t25 -102.5q0 -37 -10.5 -73.5t-33 -70.5t-57.5 -64t-84 -54v-271h-88v322q42 14 75.5 35t57 47.5t35.5 58.5t12 67q0 52 -29 83.5t-91 31.5q-22 0 -48 -6t-51 -17t-44 -26l-32 72q34 26 82 41t98 15z" />
    <glyph glyph-name="uni0242" unicode="&#x242;" horiz-adv-x="414" 
d="M182 546q65 0 109 -23t66.5 -65.5t22.5 -102.5q0 -45 -17 -92t-55.5 -89.5t-103.5 -75.5v-98h-87v144q42 14 74.5 35t54.5 47.5t33.5 58.5t11.5 67q0 59 -28 90t-86 31q-22 0 -46 -6t-46.5 -17t-41.5 -26l-32 66q34 26 77.5 41t93.5 15z" />
    <glyph glyph-name="uni0243" unicode="&#x243;" horiz-adv-x="613" 
d="M91 0v171h-77v78h77v465h193q84 0 141 -17t86 -56t29 -104q0 -42 -14.5 -74.5t-42.5 -54t-69 -29.5v-5q42 -7 75.5 -26t53 -54t19.5 -91q0 -65 -28.5 -110.5t-80.5 -69t-125 -23.5h-237zM312 76q87 0 121.5 37t34.5 97q0 38 -15.5 66t-50.5 43.5t-96 15.5h-126v-86h137
v-78h-137v-95h132zM301 410q84 0 115.5 29.5t31.5 87.5q0 59 -38.5 84.5t-121.5 25.5h-108v-227h121z" />
    <glyph glyph-name="uni0244" unicode="&#x244;" horiz-adv-x="689" 
d="M10 354v78h669v-78h-669zM604 252q0 -74 -28.5 -133.5t-87 -94t-147.5 -34.5q-126 0 -191.5 72.5t-65.5 191.5v460h89v-463q0 -87 43 -135t130 -48q60 0 97 23.5t54.5 65t17.5 95.5v462h89v-462z" />
    <glyph glyph-name="uni0245" unicode="&#x245;" horiz-adv-x="575" 
d="M333 714l241 -714h-94l-146 450q-10 31 -19 60t-16.5 55.5t-12.5 50.5q-5 -24 -12.5 -50.5t-16 -55.5t-18.5 -59l-145 -451h-94l240 714h93z" />
    <glyph glyph-name="uni0246" unicode="&#x246;" horiz-adv-x="556" 
d="M459 760l-212 -835h-65l212 835h65zM467 0h-376v714h376v-79h-287v-223h270v-78h-270v-255h287v-79z" />
    <glyph glyph-name="uni0247" unicode="&#x247;" horiz-adv-x="564" 
d="M479 760l-335 -968h-67l335 968h67zM275 546q65 0 112 -30t72.5 -84.5t25.5 -127.5v-53h-344q2 -91 43 -138.5t115 -47.5q48 0 85.5 9.5t77.5 27.5v-77q-39 -18 -76.5 -26.5t-90.5 -8.5q-72 0 -127 31t-86 92.5t-31 150.5q0 88 28 151t78.5 97t117.5 34zM275 474
q-58 0 -92 -40.5t-40 -112.5h252q0 46 -13 80t-39.5 53.5t-67.5 19.5z" />
    <glyph glyph-name="uni0248" unicode="&#x248;" horiz-adv-x="261" 
d="M-2 -190q-23 0 -40.5 3.5t-30.5 9.5v76q15 -4 32 -7t36 -3q24 0 44.5 10t33.5 35t13 70v310h-77v78h77v322h89v-322h77v-78h-77v-303q0 -69 -22 -113.5t-61.5 -66t-93.5 -21.5z" />
    <glyph glyph-name="uni0249" unicode="&#x249;" horiz-adv-x="247" 
d="M22 -240q-24 0 -42.5 3.5t-31.5 8.5v71q14 -4 29 -7t33 -3q21 0 36.5 7.5t24.5 26t9 50.5v331h-71v71h71v217h87v-217h71v-71h-71v-328q0 -50 -15 -86t-47 -55t-83 -19zM73 681q0 29 15 42.5t36 13.5q14 0 25 -6t18 -18t7 -32q0 -19 -7 -31.5t-18 -18.5t-25 -6
q-21 0 -36 14t-15 42z" />
    <glyph glyph-name="uni024A" unicode="&#x24a;" horiz-adv-x="721" 
d="M339 724q46 0 85 -12.5t69 -35.5t47 -54h4l14 92h72v-793q0 -47 15 -64.5t43 -17.5q13 0 23.5 3t19.5 7v-76q-10 -6 -23.5 -9.5t-30.5 -3.5q-64 0 -100 37.5t-36 119.5v103q0 13 0.5 25t1.5 24t1 23h-4q-17 -31 -46.5 -54t-69.5 -35.5t-90 -12.5q-88 0 -150 46
t-94.5 128.5t-32.5 193.5q0 83 18.5 150.5t54.5 115.5t88.5 74t120.5 26zM340 646q-60 0 -102.5 -34.5t-65 -99.5t-22.5 -155t22.5 -154.5t65.5 -99.5t103 -35q80 0 123.5 27t60 74.5t16.5 110.5v154q0 47 -9 86t-31 67t-61.5 43.5t-99.5 15.5z" />
    <glyph glyph-name="uni024B" unicode="&#x24b;" horiz-adv-x="580" 
d="M258 546q59 0 96.5 -24t59.5 -59h4l12 73h70v-608q0 -59 11.5 -77.5t34.5 -18.5q16 0 28.5 3.5t19.5 7.5v-67q-9 -7 -26.5 -11.5t-41.5 -4.5q-31 0 -57 14.5t-41 51t-15 101.5v62q0 18 1 42t4 41h-6q-22 -34 -59.5 -58t-97.5 -24q-91 0 -147.5 69.5t-56.5 207.5
q0 92 26 154t73 93.5t108 31.5zM272 473q-67 0 -99 -56.5t-32 -151.5t32.5 -148.5t100.5 -53.5q51 0 81.5 20t44.5 61.5t14 103.5v18q0 102 -31 154.5t-111 52.5z" />
    <glyph glyph-name="uni024C" unicode="&#x24c;" horiz-adv-x="588" 
d="M127 295h-117v76h117v-76zM277 714q84 0 138.5 -22.5t81 -67.5t26.5 -113q0 -57 -19.5 -95t-50 -60.5t-64.5 -35.5l186 -320h-104l-162 295h-129v-295h-89v714h186zM272 636h-92v-265h96q54 0 88.5 15.5t50.5 45.5t16 75q0 47 -17 75t-52.5 41t-89.5 13z" />
    <glyph glyph-name="uni024D" unicode="&#x24d;" horiz-adv-x="391" 
d="M299 319v-71h-289v71h289zM318 546q14 0 30 -1.5t28 -4.5l-10 -81q-12 3 -26.5 5t-27.5 2q-29 0 -55 -13t-46.5 -36.5t-32.5 -56.5t-12 -74v-286h-87v536h71l10 -98h4q16 30 38.5 54.5t51.5 39t64 14.5z" />
    <glyph glyph-name="uni024E" unicode="&#x24e;" horiz-adv-x="536" 
d="M524 586v-78h-514v78h514zM268 363l172 351h96l-223 -437v-277h-89v273l-224 441h97z" />
    <glyph glyph-name="uni024F" unicode="&#x24f;" horiz-adv-x="484" 
d="M474 359v-71h-464v71h464zM1 536h94l107 -305q10 -27 18 -52t14 -48.5t9 -45.5h3q6 25 17.5 65.5t24.5 81.5l101 304h95l-217 -610q-18 -50 -42.5 -87.5t-59.5 -58t-84 -20.5q-22 0 -39.5 2.5t-29.5 5.5v70q10 -2 25 -4t31 -2q29 0 50 11.5t36 33t25 50.5l25 71z" />
    <glyph glyph-name="uni0250" unicode="&#x250;" horiz-adv-x="531" 
d="M259 -9q-92 0 -137.5 43t-45.5 137v365h63l17 -76h4q22 29 44.5 48.5t52 28.5t72.5 9q45 0 81 -17t57 -52.5t21 -89.5q0 -80 -59 -123.5t-182 -47.5l-85 -3v-32q0 -67 26.5 -93t75.5 -26q39 0 74.5 12.5t67.5 28.5l27 -66q-34 -19 -79 -32.5t-95 -13.5zM235 277
q92 4 127.5 32t35.5 79q0 45 -25 66t-65 21q-62 0 -104 -37.5t-42 -115.5v-48z" />
    <glyph glyph-name="uni0251" unicode="&#x251;" horiz-adv-x="582" 
d="M257 -10q-62 0 -108.5 31t-72 92.5t-25.5 153.5q0 138 57 208.5t150 70.5q59 0 96 -23t59 -56h4l13 69h70v-418q0 -31 11.5 -43.5t27.5 -12.5q7 0 15.5 2t12.5 3v-64q-5 -3 -14 -6t-19.5 -5t-22.5 -2q-36 0 -58 18t-33 64h-4q-22 -34 -61 -58t-98 -24zM273 63
q52 0 83 20.5t44.5 62.5t13.5 104v16q0 100 -30 153.5t-112 53.5q-66 0 -98.5 -56.5t-32.5 -151.5q0 -96 32.5 -149t99.5 -53z" />
    <glyph glyph-name="uni0252" unicode="&#x252;" horiz-adv-x="582" 
d="M361 546q62 0 108.5 -31t72 -92.5t25.5 -153.5q0 -138 -57 -208.5t-150 -70.5q-59 0 -96 23t-59 56h-4l-13 -69h-70v418q0 31 -11.5 43.5t-27.5 12.5q-7 0 -15.5 -2t-12.5 -3v64q5 3 14 6t19.5 5t22.5 2q36 0 58 -18t33 -64h4q22 34 61 58t98 24zM345 473
q-52 0 -83 -20.5t-44.5 -62.5t-13.5 -104v-16q0 -100 30 -153.5t112 -53.5q66 0 98.5 56.5t32.5 151.5q0 96 -32.5 149t-99.5 53z" />
    <glyph glyph-name="uni0253" unicode="&#x253;" horiz-adv-x="579" 
d="M197 765q18 0 35.5 -4t27.5 -9v-73q-7 3 -20.5 6.5t-29.5 3.5q-21 0 -32.5 -13t-11.5 -45v-56q0 -34 -1.5 -63.5t-3.5 -46.5h5q21 34 59 57t96 23q63 0 109.5 -31t72 -92.5t25.5 -153.5t-26 -154t-72.5 -93t-108.5 -31q-39 0 -69 10.5t-51 28.5t-35 39h-7l-17 -68h-63
v625q0 46 13 77t39.5 47t65.5 16zM305 472q-52 0 -82.5 -21.5t-43.5 -66t-13 -113.5q0 -102 29.5 -155t111.5 -53q65 0 98 53t33 153q0 101 -33 152t-100 51z" />
    <glyph glyph-name="uni0254" unicode="&#x254;" horiz-adv-x="454" 
d="M178 546q67 0 117.5 -27.5t79 -86.5t28.5 -154q0 -99 -31.5 -163t-85 -94.5t-120.5 -30.5q-42 0 -72.5 7.5t-56.5 21.5v78q27 -13 58 -22t71 -9q49 0 81.5 24t49 70.5t16.5 113.5q0 100 -35 148t-109 48q-26 0 -57.5 -7t-54.5 -19l-26 73q23 12 63.5 20.5t83.5 8.5z" />
    <glyph glyph-name="uni0255" unicode="&#x255;" horiz-adv-x="501" 
d="M295 546q40 0 76 -8.5t59 -20.5l-27 -73q-23 9 -53 17t-57 8q-49 0 -81.5 -23t-48.5 -68t-16 -112q0 -25 2.5 -47t6.5 -42q35 37 76 57t85 20q68 0 106.5 -34t38.5 -88q0 -50 -25 -81.5t-63.5 -46t-79.5 -14.5q-45 0 -83.5 11.5t-67.5 36.5q-9 -19 -18 -40.5t-17 -46.5
l-63 31q10 32 22.5 61t26.5 54q-18 32 -27.5 74t-9.5 94q0 99 31 161t85 91t122 29zM311 181q-31 0 -62 -16.5t-60 -55.5q18 -22 44.5 -34t61.5 -12q25 0 44.5 8t31 23.5t11.5 35.5q0 19 -16 35t-55 16z" />
    <glyph glyph-name="uni0256" unicode="&#x256;" horiz-adv-x="580" 
d="M534 -240q-34 0 -61.5 14.5t-43.5 51t-16 101.5v63q0 15 2.5 40.5t3.5 38.5h-6q-15 -22 -36.5 -40t-50.5 -28.5t-68 -10.5q-62 0 -109 31t-72.5 92.5t-25.5 153.5t26 154t72.5 93.5t108.5 31.5q39 0 68 -10.5t50.5 -28.5t36.5 -40h6q-1 9 -2.5 23.5t-2.5 30t-1 25.5v214
h87v-832q0 -59 13.5 -77.5t39.5 -18.5q18 0 32.5 3.5t21.5 7.5v-67q-10 -7 -28.5 -11.5t-44.5 -4.5zM273 63q78 0 109.5 46.5t31.5 140.5v16q0 100 -30 153.5t-112 53.5q-66 0 -98.5 -56.5t-32.5 -151.5q0 -96 32.5 -149t99.5 -53z" />
    <glyph glyph-name="uni0257" unicode="&#x257;" horiz-adv-x="580" 
d="M257 -10q-93 0 -149.5 69.5t-56.5 207.5t57 208.5t150 70.5q39 0 68 -10.5t50.5 -28.5t36.5 -40h6q-1 13 -3.5 38.5t-2.5 40.5v79q0 46 13 77t39 47t65 16q19 0 36.5 -4t27.5 -9v-73q-7 3 -20.5 6.5t-28.5 3.5q-22 0 -33.5 -13t-11.5 -45v-631h-70l-13 72h-4
q-15 -23 -36.5 -41.5t-51 -29.5t-68.5 -11zM273 63q78 0 109.5 46.5t31.5 140.5v16q0 100 -30 153.5t-112 53.5q-66 0 -98.5 -56.5t-32.5 -151.5q0 -96 32.5 -149t99.5 -53z" />
    <glyph glyph-name="uni0258" unicode="&#x258;" horiz-adv-x="532" 
d="M257 546q-65 0 -112 -30t-72.5 -84.5t-25.5 -127.5v-53h344q-2 -91 -43 -138.5t-115 -47.5q-48 0 -85.5 9.5t-77.5 27.5v-77q39 -18 76.5 -26.5t90.5 -8.5q72 0 127 31t86 92.5t31 150.5q0 88 -28 151t-78.5 97t-117.5 34zM257 474q58 0 92 -40.5t40 -112.5h-252
q0 46 13 80t39.5 53.5t67.5 19.5z" />
    <glyph glyph-name="uni0259" unicode="&#x259;" horiz-adv-x="532" 
d="M237 546q72 0 127 -31t86 -92t31 -151q0 -88 -28 -151t-78.5 -97t-118.5 -34q-64 0 -111 30t-72.5 84.5t-25.5 127.5v53h344q-2 91 -43 138.5t-115 47.5q-48 0 -85.5 -9.5t-77.5 -27.5v77q39 18 77 26.5t90 8.5zM137 215q1 -45 13.5 -79.5t39 -54t67.5 -19.5
q58 0 92 40.5t40 112.5h-252z" />
    <glyph glyph-name="uni025A" unicode="&#x25a;" horiz-adv-x="748" 
d="M258 -10q-99 0 -154.5 66.5t-55.5 183.5l339 98q-8 43 -28.5 72.5t-51.5 45t-73 15.5q-48 0 -85.5 -9.5t-77.5 -27.5v77q26 12 51 20t53 11.5t63 3.5q89 0 151 -47t83 -137l106 30l16 -60q12 -44 26.5 -61t34.5 -17q19 0 38.5 7.5t36.5 19.5l18 -66q-22 -16 -50.5 -27
t-58.5 -11q-26 0 -48 12t-40 39.5t-31 74.5l-38 -10q0 -92 -24 -160.5t-73.5 -105.5t-126.5 -37zM259 62q43 0 69.5 19t40.5 49.5t19 67t5 70.5l-254 -74q4 -39 17.5 -69t39 -46.5t63.5 -16.5z" />
    <glyph glyph-name="uni025B" unicode="&#x25b;" horiz-adv-x="459" 
d="M338 315v-72h-70q-48 0 -79 -10.5t-46.5 -30.5t-15.5 -51q0 -33 17 -52.5t47.5 -28t68.5 -8.5q53 0 93.5 13t71.5 29v-77q-19 -11 -44 -19.5t-56 -13t-70 -4.5q-73 0 -121 20.5t-71 56t-23 79.5q0 60 33.5 89t79.5 42v5q-43 14 -68.5 43.5t-25.5 78.5q0 45 25 77
t69.5 48.5t101.5 16.5q36 0 65.5 -4.5t55.5 -13t51 -20.5l-32 -70q-31 15 -64 25t-77 10q-56 0 -84.5 -19t-28.5 -57q0 -44 38.5 -63t104.5 -19h54z" />
    <glyph glyph-name="uni025C" unicode="&#x25c;" horiz-adv-x="465" 
d="M216 546q57 0 100 -16.5t66.5 -48t23.5 -76.5q0 -49 -25.5 -77.5t-69.5 -41.5v-4q30 -9 55.5 -25t41 -42t15.5 -67q0 -44 -23 -80t-71.5 -57t-123.5 -21q-36 0 -68.5 4t-59 12t-46.5 19v79q32 -16 76 -29t96 -13q56 0 95 20.5t39 70.5q0 46 -35.5 68t-108.5 22h-66v72h54
q65 0 104 18.5t39 63.5q0 38 -29.5 57t-84.5 19q-41 0 -73.5 -8.5t-69.5 -25.5l-31 70q41 19 86 28t94 9z" />
    </font>
</defs>
</svg>
